{
.appVersion = "3133";
classes = (
{
automatic = 1;

glyphs = (
{
glyphname = A;
layers = (
{
anchors = (
{
name = bottom;
position = "{250, 0}";
},
{
name = ogonek;
position = "{414, 0}";
},
{
name = top;
position = "{250, 623}";
}
);
background = {
paths = (
{
closed = 1;
nodes = (
"368 182 LINE",
"354 236 LINE",
"158 236 LINE",
"142 182 LINE"
);
},
{
closed = 1;
nodes = (
"414 0 LINE",
"483 0 LINE",
"253 634 LINE",
"245 634 LINE",
"15 0 LINE",
"87 0 LINE",
"250 474 LINE"
);
}
);
};
layerId = "051EFAE4-8BBE-4FBB-A016-4335C3E52F59";
paths = (
{
closed = 1;
nodes = (
"341 236 LINE",
"145 236 LINE",
"131 182 LINE",
"357 182 LINE"
);
},
{
closed = 1;
nodes = (
"412 0 LINE",
"484 0 LINE",
"254 634 LINE",
"246 634 LINE",
"16 0 LINE",
"85 0 LINE",
"249 474 LINE"
);
}
);
width = 500;
}
);
unicode = 0041;
},
{
glyphname = AE;
layers = (
{
layerId = "051EFAE4-8BBE-4FBB-A016-4335C3E52F59";
paths = (
{
closed = 1;
nodes = (
"79 0 LINE",
"133 169 LINE",
"263 169 LINE",
"263 0 LINE",
"493 0 LINE",
"493 62 LINE",
"324 62 LINE",
"324 293 LINE",
"469 293 LINE",
"469 357 LINE",
"324 357 LINE",
"324 562 LINE",
"495 562 LINE",
"495 624 LINE",
"211 624 LINE",
"15 0 LINE"
);
},
{
closed = 1;
nodes = (
"252 562 LINE",
"263 562 LINE",
"263 227 LINE",
"147 227 LINE"
);
}
);
width = 500;
}
);
unicode = 00C6;
},
{
glyphname = B;
layers = (
{
anchors = (
{
name = bottom;
position = "{250, 0}";
},
{
name = top;
position = "{250, 623}";
}
);
layerId = "051EFAE4-8BBE-4FBB-A016-4335C3E52F59";
paths = (
{
closed = 1;
nodes = (
"224 0 LINE SMOOTH",
"385 0 OFFCURVE",
"457 70 OFFCURVE",
"457 175 CURVE SMOOTH",
"457 244 OFFCURVE",
"410 310 OFFCURVE",
"340 334 CURVE",
"399 355 OFFCURVE",
"432 413 OFFCURVE",
"432 472 CURVE SMOOTH",
"432 561 OFFCURVE",
"369 623 OFFCURVE",
"225 623 CURVE SMOOTH",
"48 623 LINE",
"48 0 LINE"
);
},
{
closed = 1;
nodes = (
"117 306 LINE",
"219 306 LINE",
"340 306 OFFCURVE",
"383 253 OFFCURVE",
"383 179 CURVE SMOOTH",
"383 92 OFFCURVE",
"323 61 OFFCURVE",
"236 61 CURVE SMOOTH",
"117 61 LINE"
);
},
{
closed = 1;
nodes = (
"117 564 LINE",
"226 564 LINE",
"324 564 OFFCURVE",
"362 519 OFFCURVE",
"362 464 CURVE SMOOTH",
"362 407 OFFCURVE",
"325 365 OFFCURVE",
"215 365 CURVE SMOOTH",
"117 365 LINE"
);
}
);
width = 500;
}
);
unicode = 0042;
},
{
glyphname = C;
layers = (
{
anchors = (
{
name = bottom;
position = "{280, 0}";
},
{
name = top;
position = "{270, 623}";
}
);
hints = (
{
origin = "{0, 15}";
type = Corner;
name = _corner.rightSpur;
}
);
layerId = "051EFAE4-8BBE-4FBB-A016-4335C3E52F59";
paths = (
{
closed = 1;
nodes = (
"366 -10 OFFCURVE",
"420 25 OFFCURVE",
"460 92 CURVE",
"408 126 LINE",
"380 79 OFFCURVE",
"332 50 OFFCURVE",
"282 50 CURVE SMOOTH",
"186 50 OFFCURVE",
"109 156 OFFCURVE",
"109 313 CURVE SMOOTH",
"109 476 OFFCURVE",
"174 572 OFFCURVE",
"279 572 CURVE SMOOTH",
"326 572 OFFCURVE",
"371 553 OFFCURVE",
"408 477 CURVE",
"469 505 LINE",
"437 579 OFFCURVE",
"371 628 OFFCURVE",
"281 628 CURVE SMOOTH",
"169 628 OFFCURVE",
"41 553 OFFCURVE",
"41 308 CURVE",
"42 87 OFFCURVE",
"150 -10 OFFCURVE",
"285 -10 CURVE SMOOTH"
);
}
);
width = 500;
}
);
unicode = 0043;
},
{
glyphname = D;
layers = (
{
anchors = (
{
name = bottom;
position = "{250, 0}";
},
{
name = center;
position = "{250, 312}";
},
{
name = top;
position = "{220, 623}";
}
);
layerId = "051EFAE4-8BBE-4FBB-A016-4335C3E52F59";
paths = (
{
closed = 1;
nodes = (
"187 -1 LINE SMOOTH",
"381 -1 OFFCURVE",
"452 117 OFFCURVE",
"460 308 CURVE",
"460 405 OFFCURVE",
"440 483 OFFCURVE",
"399 538 CURVE SMOOTH",
"358 593 OFFCURVE",
"306 623 OFFCURVE",
"199 623 CURVE SMOOTH",
"54 623 LINE",
"54 -1 LINE"
);
},
{
closed = 1;
nodes = (
"120 564 LINE",
"195 564 LINE",
"335 564 OFFCURVE",
"389 467 OFFCURVE",
"390 304 CURVE SMOOTH",
"391 143 OFFCURVE",
"327 54 OFFCURVE",
"184 54 CURVE SMOOTH",
"120 54 LINE"
);
}
);
width = 500;
}
);
unicode = 0044;
},
{
glyphname = Eth;
layers = (
{
background = {
paths = (
{
closed = 1;
nodes = (
"206 -1 LINE SMOOTH",
"255 -1 OFFCURVE",
"293 5 OFFCURVE",
"319 18 CURVE",
"413 61 OFFCURVE",
"466 187 OFFCURVE",
"466 306 CURVE SMOOTH",
"466 495 OFFCURVE",
"396 623 OFFCURVE",
"218 623 CURVE SMOOTH",
"79 623 LINE",
"79 359 LINE",
"30 359 LINE",
"30 301 LINE",
"79 301 LINE",
"79 -1 LINE"
);
},
{
closed = 1;
nodes = (
"143 301 LINE",
"248 301 LINE",
"248 359 LINE",
"143 359 LINE",
"143 564 LINE",
"214 564 LINE SMOOTH",
"342 564 OFFCURVE",
"399 466 OFFCURVE",
"399 306 CURVE SMOOTH",
"399 149 OFFCURVE",
"331 57 OFFCURVE",
"203 57 CURVE SMOOTH",
"143 57 LINE"
);
}
);
};
layerId = "051EFAE4-8BBE-4FBB-A016-4335C3E52F59";
paths = (
{
closed = 1;
nodes = (
"205 -1 LINE SMOOTH",
"370 -1 OFFCURVE",
"466 113 OFFCURVE",
"466 309 CURVE SMOOTH",
"466 409 OFFCURVE",
"445 474 OFFCURVE",
"427 506 CURVE SMOOTH",
"395 564 OFFCURVE",
"342 623 OFFCURVE",
"218 623 CURVE SMOOTH",
"79 623 LINE",
"79 359 LINE",
"30 359 LINE",
"30 301 LINE",
"79 301 LINE",
"79 -1 LINE"
);
},
{
closed = 1;
nodes = (
"143 301 LINE",
"248 301 LINE",
"248 359 LINE",
"143 359 LINE",
"143 564 LINE",
"214 564 LINE SMOOTH",
"342 564 OFFCURVE",
"399 466 OFFCURVE",
"399 306 CURVE SMOOTH",
"399 149 OFFCURVE",
"331 57 OFFCURVE",
"203 57 CURVE SMOOTH",
"143 57 LINE"
);
}
);
width = 500;
}
);
unicode = 00D0;
},
{
glyphname = E;
layers = (
{
anchors = (
{
name = bottom;
position = "{250, 0}";
},
{
name = ogonek;
position = "{450, 10}";
},
{
name = top;
position = "{259, 623}";
},
{
name = topleft;
position = "{20, 623}";
}
);
layerId = "051EFAE4-8BBE-4FBB-A016-4335C3E52F59";
paths = (
{
closed = 1;
nodes = (
"438 0 LINE",
"438 62 LINE",
"125 62 LINE",
"125 293 LINE",
"386 293 LINE",
"386 357 LINE",
"125 357 LINE",
"125 562 LINE",
"441 562 LINE",
"441 624 LINE",
"59 624 LINE",
"59 0 LINE"
);
}
);
width = 500;
}
);
unicode = 0045;
},
{
glyphname = Ezhreversed;
layers = (
{
background = {
paths = (
{
closed = 1;
nodes = (
"288 309 LINE",
"139 560 LINE",
"411 560 LINE",
"411 623 LINE",
"56 623 LINE",
"56 574 LINE",
"205 322 LINE"
);
}
);
};
guideLines = (
{
angle = 0.6031;
position = "{269, 352}";
},
{
angle = 180;
position = "{260, 560}";
}
);
hints = (
{
origin = "{0, 3}";
type = Corner;
name = _corner.topSpur;
}
);
layerId = "051EFAE4-8BBE-4FBB-A016-4335C3E52F59";
paths = (
{
closed = 1;
nodes = (
"331 -11 OFFCURVE",
"386 13 OFFCURVE",
"429 60 CURVE",
"387 114 LINE",
"353 73 OFFCURVE",
"332 49 OFFCURVE",
"275 49 CURVE SMOOTH",
"191 49 OFFCURVE",
"143 101 OFFCURVE",
"143 177 CURVE SMOOTH",
"143 284 OFFCURVE",
"220 326 OFFCURVE",
"338 320 CURVE",
"338 372 LINE",
"273 372 LINE",
"153 371 OFFCURVE",
"71 281 OFFCURVE",
"71 172 CURVE SMOOTH",
"71 75 OFFCURVE",
"137 -11 OFFCURVE",
"268 -11 CURVE SMOOTH"
);
},
{
closed = 1;
nodes = (
"338 372 LINE",
"166 560 LINE",
"393 560 LINE",
"393 623 LINE",
"88 623 LINE",
"88 560 LINE",
"268 368 LINE"
);
}
);
width = 500;
}
);
unicode = 01B8;
},
{
glyphname = F;
layers = (
{
anchors = (
{
name = bottom;
position = "{250, 0}";
},
{
name = top;
position = "{250, 623}";
}
);
layerId = "051EFAE4-8BBE-4FBB-A016-4335C3E52F59";
paths = (
{
closed = 1;
nodes = (
"148 0 LINE",
"148 306 LINE",
"381 306 LINE",
"381 367 LINE",
"148 367 LINE",
"148 563 LINE",
"437 563 LINE",
"437 624 LINE",
"78 624 LINE",
"78 0 LINE"
);
}
);
width = 500;
}
);
unicode = 0046;
},
{
glyphname = G;
layers = (
{
anchors = (
{
name = bottom;
position = "{266, 0}";
},
{
name = top;
position = "{274, 623}";
}
);
hints = (
{
origin = "{0, 19}";
type = Corner;
name = _corner.rightSpur;
}
);
layerId = "051EFAE4-8BBE-4FBB-A016-4335C3E52F59";
paths = (
{
closed = 1;
nodes = (
"340 -10 OFFCURVE",
"401 12 OFFCURVE",
"460 55 CURVE",
"460 299 LINE",
"282 299 LINE",
"282 238 LINE",
"395 238 LINE",
"395 90 LINE",
"363 63 OFFCURVE",
"313 52 OFFCURVE",
"277 52 CURVE SMOOTH",
"171 52 OFFCURVE",
"105 146 OFFCURVE",
"105 319 CURVE SMOOTH",
"105 510 OFFCURVE",
"183 568 OFFCURVE",
"273 568 CURVE SMOOTH",
"333 568 OFFCURVE",
"365 542 OFFCURVE",
"408 485 CURVE",
"458 525 LINE",
"423 588 OFFCURVE",
"348 629 OFFCURVE",
"274 630 CURVE SMOOTH",
"183 631 OFFCURVE",
"33 573 OFFCURVE",
"36 304 CURVE",
"36 115 OFFCURVE",
"128 -10 OFFCURVE",
"277 -10 CURVE SMOOTH"
);
}
);
width = 500;
}
);
unicode = 0047;
},
{
glyphname = H;
layers = (
{
anchors = (
{
name = bottom;
position = "{250, 0}";
},
{
name = center;
position = "{250, 312}";
},
{
name = top;
position = "{250, 623}";
},
{
name = topleft;
position = "{20, 623}";
}
);
hints = (
{
origin = "{0, 9}";
type = Corner;
name = _corner.rightSpur;
},
{
origin = "{0, 5}";
type = Corner;
name = _corner.rightSpur;
}
);
layerId = "051EFAE4-8BBE-4FBB-A016-4335C3E52F59";
paths = (
{
closed = 1;
nodes = (
"123 0 LINE",
"123 297 LINE",
"366 297 LINE",
"366 0 LINE",
"440 0 LINE",
"440 623 LINE",
"367 623 LINE",
"367 357 LINE",
"123 357 LINE",
"123 623 LINE",
"50 623 LINE",
"50 0 LINE"
);
}
);
width = 500;
}
);
unicode = 0048;
},
{
glyphname = Hbar;
layers = (
{
components = (
{
name = H;
}
);
layerId = "051EFAE4-8BBE-4FBB-A016-4335C3E52F59";
paths = (
{
closed = 1;
nodes = (
"487 498 LINE",
"487 553 LINE",
"7 553 LINE",
"7 498 LINE"
);
}
);
width = 500;
}
);
unicode = 0126;
},
{
glyphname = I;
layers = (
{
anchors = (
{
name = bottom;
position = "{250, 0}";
},
{
name = ogonek;
position = "{353, 0}";
},
{
name = top;
position = "{239, 623}";
},
{
name = topleft;
position = "{20, 623}";
}
);
layerId = "051EFAE4-8BBE-4FBB-A016-4335C3E52F59";
paths = (
{
closed = 1;
nodes = (
"403 0 LINE",
"403 58 LINE",
"274 58 LINE",
"274 564 LINE",
"397 564 LINE",
"397 623 LINE",
"88 623 LINE",
"88 564 LINE",
"204 564 LINE",
"204 59 LINE",
"81 59 LINE",
"81 0 LINE"
);
}
);
width = 500;
}
);
unicode = 0049;
},
{
glyphname = J;
layers = (
{
anchors = (
{
name = bottom;
position = "{250, 0}";
},
{
name = top;
position = "{330, 623}";
}
);
hints = (
{
origin = "{0, 15}";
type = Corner;
name = _corner.rightSpur;
}
);
layerId = "051EFAE4-8BBE-4FBB-A016-4335C3E52F59";
paths = (
{
closed = 1;
nodes = (
"283 -12 OFFCURVE",
"366 49 OFFCURVE",
"361 209 CURVE",
"361 564 LINE",
"457 564 LINE",
"457 623 LINE",
"172 623 LINE",
"172 564 LINE",
"292 564 LINE",
"292 208 LINE SMOOTH",
"292 92 OFFCURVE",
"263 51 OFFCURVE",
"196 51 CURVE SMOOTH",
"154 51 OFFCURVE",
"125 70 OFFCURVE",
"90 109 CURVE",
"49 58 LINE",
"88 12 OFFCURVE",
"137 -11 OFFCURVE",
"196 -11 CURVE SMOOTH"
);
}
);
width = 500;
}
);
unicode = 004A;
},
{
glyphname = K;
layers = (
{
hints = (
{
origin = "{0, 8}";
type = Corner;
name = _corner.rightSpur;
}
);
layerId = "051EFAE4-8BBE-4FBB-A016-4335C3E52F59";
paths = (
{
closed = 1;
nodes = (
"471 0 LINE",
"219 354 LINE",
"455 623 LINE",
"429 623 LINE SMOOTH",
"409 623 OFFCURVE",
"392 625 OFFCURVE",
"377 628 CURVE",
"117 336 LINE",
"117 623 LINE",
"42 623 LINE",
"42 0 LINE",
"117 0 LINE",
"117 258 LINE",
"166 312 LINE",
"381 -4 LINE"
);
}
);
width = 500;
}
);
unicode = 004B;
},
{
glyphname = Khook;
layers = (
{
background = {
hints = (
{
origin = "{0, 3}";
type = Corner;
name = _corner.rightSpur;
}
);
paths = (
{
closed = 1;
nodes = (
"349 502 LINE",
"385 553 OFFCURVE",
"419 569 OFFCURVE",
"475 559 CURVE",
"476 623 LINE",
"415 637 OFFCURVE",
"352 610 OFFCURVE",
"301 543 CURVE"
);
}
);
};
hints = (
{
origin = "{0, 7}";
type = Corner;
name = _corner.rightSpur;
},
{
origin = "{0, 15}";
type = Corner;
name = _corner.rightSpur;
}
);
layerId = "051EFAE4-8BBE-4FBB-A016-4335C3E52F59";
paths = (
{
closed = 1;
nodes = (
"117 0 LINE",
"117 238 LINE",
"312 535 OFFCURVE",
"383 556 OFFCURVE",
"418 556 CURVE SMOOTH",
"443 556 OFFCURVE",
"449 554 OFFCURVE",
"465 550 CURVE",
"466 623 LINE",
"455 626 OFFCURVE",
"443 627 OFFCURVE",
"431 627 CURVE SMOOTH",
"346 627 OFFCURVE",
"246 551 OFFCURVE",
"117 326 CURVE",
"117 623 LINE",
"42 623 LINE",
"42 0 LINE"
);
},
{
closed = 1;
nodes = (
"471 0 LINE",
"198 384 LINE",
"145 342 LINE",
"381 -4 LINE"
);
}
);
width = 500;
}
);
unicode = 0198;
},
{
glyphname = L;
layers = (
{
anchors = (
{
name = bottom;
position = "{250, 0}";
},
{
name = center;
position = "{107, 312}";
},
{
name = top;
position = "{200, 623}";
},
{
name = topright;
position = "{180, 457}";
}
);
hints = (
{
origin = "{0, 3}";
type = Corner;
name = _corner.rightSpur;
}
);
layerId = "051EFAE4-8BBE-4FBB-A016-4335C3E52F59";
paths = (
{
closed = 1;
nodes = (
"439 0 LINE",
"439 60 LINE",
"139 60 LINE",
"139 623 LINE",
"66 623 LINE",
"66 0 LINE"
);
}
);
width = 500;
}
);
unicode = 004C;
},
{
glyphname = LJ;
layers = (
{
background = {
paths = (
{
closed = 1;
nodes = (
"309 0 LINE",
"309 61 LINE",
"139 61 LINE",
"139 589 LINE SMOOTH",
"139 601 OFFCURVE",
"148 609 OFFCURVE",
"148 623 CURVE",
"66 623 LINE",
"66 0 LINE"
);
}
);
};
layerId = "051EFAE4-8BBE-4FBB-A016-4335C3E52F59";
paths = (
{
closed = 1;
nodes = (
"373 -151 OFFCURVE",
"456 -91 OFFCURVE",
"451 69 CURVE",
"451 564 LINE",
"451 564 LINE",
"451 623 LINE",
"252 623 LINE",
"252 564 LINE",
"382 564 LINE",
"382 68 LINE SMOOTH",
"382 -48 OFFCURVE",
"348 -89 OFFCURVE",
"285 -89 CURVE SMOOTH",
"245 -89 OFFCURVE",
"215 -70 OFFCURVE",
"205 -57 CURVE SMOOTH",
"193 -44 OFFCURVE",
"198 -34 OFFCURVE",
"186 -25 CURVE",
"139 -82 LINE",
"178 -128 OFFCURVE",
"227 -151 OFFCURVE",
"286 -151 CURVE SMOOTH"
);
},
{
closed = 1;
nodes = (
"309 0 LINE",
"309 61 LINE",
"139 61 LINE",
"139 589 LINE SMOOTH",
"139 620 OFFCURVE",
"148 609 OFFCURVE",
"148 623 CURVE",
"66 623 LINE",
"66 0 LINE"
);
}
);
width = 500;
}
);
unicode = 01C7;
},
{
glyphname = Lj;
layers = (
{
background = {
components = (
{
name = dotaccent;
transform = "{1, 0, 0, 1, 72, 0}";
}
);
paths = (
{
closed = 1;
nodes = (
"289 -169 OFFCURVE",
"369 -117 OFFCURVE",
"369 22 CURVE SMOOTH",
"369 457 LINE",
"126 457 LINE",
"126 398 LINE",
"296 398 LINE",
"296 18 LINE SMOOTH",
"296 -74 OFFCURVE",
"253 -112 OFFCURVE",
"193 -112 CURVE SMOOTH",
"176 -112 OFFCURVE",
"161 -108 OFFCURVE",
"146 -101 CURVE SMOOTH",
"88 -74 OFFCURVE",
"109 -62 OFFCURVE",
"95 -48 CURVE",
"48 -110 LINE",
"83 -153 OFFCURVE",
"129 -174 OFFCURVE",
"188 -174 CURVE"
);
}
);
};
components = (
{
name = dotaccent;
transform = "{1, 0, 0, 1, 129, -1}";
}
);
layerId = "051EFAE4-8BBE-4FBB-A016-4335C3E52F59";
paths = (
{
closed = 1;
nodes = (
"299 0 LINE",
"299 61 LINE",
"139 61 LINE",
"139 589 LINE SMOOTH",
"139 601 OFFCURVE",
"148 609 OFFCURVE",
"148 623 CURVE",
"66 623 LINE",
"66 0 LINE"
);
},
{
closed = 1;
nodes = (
"349 -169 OFFCURVE",
"429 -117 OFFCURVE",
"429 22 CURVE SMOOTH",
"429 457 LINE",
"216 457 LINE",
"216 398 LINE",
"356 398 LINE",
"356 18 LINE SMOOTH",
"356 -74 OFFCURVE",
"313 -112 OFFCURVE",
"253 -112 CURVE SMOOTH",
"236 -112 OFFCURVE",
"221 -108 OFFCURVE",
"206 -101 CURVE SMOOTH",
"156 -78 OFFCURVE",
"169 -62 OFFCURVE",
"155 -48 CURVE",
"108 -110 LINE",
"143 -153 OFFCURVE",
"189 -174 OFFCURVE",
"248 -174 CURVE SMOOTH"
);
}
);
width = 500;
}
);
unicode = 01C8;
},
{
glyphname = Lslash;
layers = (
{
layerId = "051EFAE4-8BBE-4FBB-A016-4335C3E52F59";
paths = (
{
closed = 1;
nodes = (
"446 0 LINE",
"446 60 LINE",
"146 60 LINE",
"146 267 LINE",
"337 328 LINE",
"337 392 LINE",
"332 389 OFFCURVE",
"323 386 OFFCURVE",
"312 382 CURVE SMOOTH",
"146 328 LINE",
"146 589 LINE",
"149 614 OFFCURVE",
"156 616 OFFCURVE",
"156 621 CURVE SMOOTH",
"156 622 OFFCURVE",
"155 623 OFFCURVE",
"154 623 CURVE",
"73 623 LINE",
"73 305 LINE",
"20 287 LINE",
"20 226 LINE",
"73 243 LINE",
"73 0 LINE"
);
}
);
width = 500;
}
);
unicode = 0141;
},
{
glyphname = M;
layers = (
{
anchors = (
{
name = bottom;
position = "{250, 0}";
},
{
name = top;
position = "{250, 623}";
}
);
layerId = "051EFAE4-8BBE-4FBB-A016-4335C3E52F59";
paths = (
{
closed = 1;
nodes = (
"106 0 LINE",
"106 467 LINE",
"232 219 LINE",
"259 219 LINE",
"394 470 LINE",
"394 0 LINE",
"460 0 LINE",
"460 624 LINE",
"407 624 LINE",
"250 318 LINE",
"96 623 LINE",
"41 623 LINE",
"41 0 LINE"
);
}
);
width = 500;
}
);
unicode = 004D;
},
{
glyphname = N;
layers = (
{
anchors = (
{
name = bottom;
position = "{250, 0}";
},
{
name = top;
position = "{250, 623}";
}
);
hints = (
{
origin = "{0, 4}";
type = Corner;
name = _corner.rightSpur;
}
);
layerId = "051EFAE4-8BBE-4FBB-A016-4335C3E52F59";
paths = (
{
closed = 1;
nodes = (
"117 0 LINE",
"117 490 LINE",
"392 0 LINE",
"447 0 LINE",
"447 623 LINE",
"380 623 LINE",
"380 161 LINE",
"118 623 LINE",
"50 623 LINE",
"50 0 LINE"
);
}
);
width = 500;
}
);
unicode = 004E;
},
{
glyphname = Eng;
layers = (
{
anchors = (
{
name = bottom;
position = "{250, 0}";
},
{
name = top;
position = "{250, 623}";
}
);
background = {
components = (
{
name = N;
}
);
paths = (
{
closed = 1;
nodes = (
"388 -185 OFFCURVE",
"447 -124 OFFCURVE",
"447 0 CURVE",
"376 43 LINE",
"376 0 LINE",
"376 -79 OFFCURVE",
"350 -122 OFFCURVE",
"298 -122 CURVE SMOOTH",
"273 -122 OFFCURVE",
"257 -116 OFFCURVE",
"249 -104 CURVE SMOOTH",
"247 -101 OFFCURVE",
"245 -99 OFFCURVE",
"243 -98 CURVE",
"208 -160 LINE",
"235 -177 OFFCURVE",
"264 -185 OFFCURVE",
"295 -185 CURVE SMOOTH"
);
}
);
};
guideLines = (
{
angle = 90;
position = "{380, 287}";
}
);
layerId = "051EFAE4-8BBE-4FBB-A016-4335C3E52F59";
paths = (
{
closed = 1;
nodes = (
"380 161 LINE",
"118 623 LINE",
"50 623 LINE",
"50 0 LINE",
"117 0 LINE",
"117 490 LINE",
"380 22 LINE",
"378 -77 OFFCURVE",
"360 -122 OFFCURVE",
"298 -122 CURVE SMOOTH",
"255 -122 OFFCURVE",
"261 -104 OFFCURVE",
"243 -98 CURVE",
"208 -160 LINE",
"235 -177 OFFCURVE",
"264 -185 OFFCURVE",
"295 -185 CURVE SMOOTH",
"388 -185 OFFCURVE",
"447 -124 OFFCURVE",
"447 0 CURVE SMOOTH",
"447 596 LINE SMOOTH",
"447 610 OFFCURVE",
"454 615 OFFCURVE",
"454 623 CURVE",
"380 623 LINE"
);
}
);
width = 500;
}
);
unicode = 014A;
},
{
glyphname = O;
layers = (
{
anchors = (
{
name = bottom;
position = "{250, 0}";
},
{
name = center;
position = "{250, 312}";
},
{
name = ogonek;
position = "{287, 10}";
},
{
name = top;
position = "{250, 623}";
},
{
name = topleft;
position = "{20, 623}";
},
{
name = topright;
position = "{379, 584}";
}
);
background = {
paths = (
{
closed = 0;
nodes = (
"250 627 LINE",
"107 627 OFFCURVE",
"27 505 OFFCURVE",
"27 308 CURVE SMOOTH",
"27 104 OFFCURVE",
"107 -11 OFFCURVE",
"250 -11 CURVE"
);
},
{
closed = 0;
nodes = (
"250 50 LINE",
"155 50 OFFCURVE",
"99 142 OFFCURVE",
"99 308 CURVE SMOOTH",
"99 465 OFFCURVE",
"155 566 OFFCURVE",
"250 566 CURVE"
);
}
);
};
layerId = "051EFAE4-8BBE-4FBB-A016-4335C3E52F59";
paths = (
{
closed = 1;
nodes = (
"393 -11 OFFCURVE",
"473 104 OFFCURVE",
"473 308 CURVE SMOOTH",
"473 505 OFFCURVE",
"393 627 OFFCURVE",
"250 627 CURVE",
"107 627 OFFCURVE",
"27 505 OFFCURVE",
"27 308 CURVE SMOOTH",
"27 104 OFFCURVE",
"107 -11 OFFCURVE",
"250 -11 CURVE"
);
},
{
closed = 1;
nodes = (
"155 50 OFFCURVE",
"99 142 OFFCURVE",
"99 308 CURVE SMOOTH",
"99 465 OFFCURVE",
"155 566 OFFCURVE",
"250 566 CURVE",
"345 566 OFFCURVE",
"401 465 OFFCURVE",
"401 308 CURVE SMOOTH",
"401 142 OFFCURVE",
"345 50 OFFCURVE",
"250 50 CURVE"
);
}
);
width = 500;
}
);
unicode = 004F;
},
{
glyphname = Oslash;
layers = (
{
background = {
components = (
{
name = O;
}
);
paths = (
{
closed = 1;
nodes = (
"463 654 LINE",
"407 682 LINE",
"32 -22 LINE",
"88 -56 LINE"
);
}
);
};
components = (
{
name = O;
}
);
layerId = "051EFAE4-8BBE-4FBB-A016-4335C3E52F59";
paths = (
{
closed = 1;
nodes = (
"458 660 LINE",
"416 682 LINE",
"41 -22 LINE",
"85 -42 LINE"
);
}
);
width = 500;
}
);
unicode = 00D8;
},
{
glyphname = OE;
layers = (
{
layerId = "051EFAE4-8BBE-4FBB-A016-4335C3E52F59";
paths = (
{
closed = 1;
nodes = (
"203 -7 OFFCURVE",
"229 4 OFFCURVE",
"252 31 CURVE",
"252 0 LINE",
"482 0 LINE",
"482 62 LINE",
"315 62 LINE",
"315 293 LINE",
"458 293 LINE",
"458 357 LINE",
"315 357 LINE",
"315 562 LINE",
"484 562 LINE",
"484 624 LINE",
"253 624 LINE",
"253 595 LINE",
"229 622 OFFCURVE",
"201 632 OFFCURVE",
"173 632 CURVE SMOOTH",
"69 632 OFFCURVE",
"9 524 OFFCURVE",
"9 312 CURVE SMOOTH",
"9 93 OFFCURVE",
"72 -7 OFFCURVE",
"172 -7 CURVE SMOOTH"
);
},
{
closed = 1;
nodes = (
"111 54 OFFCURVE",
"73 149 OFFCURVE",
"73 313 CURVE SMOOTH",
"73 515 OFFCURVE",
"119 574 OFFCURVE",
"171 574 CURVE SMOOTH",
"212 574 OFFCURVE",
"236 530 OFFCURVE",
"252 485 CURVE",
"252 129 LINE",
"243 85 OFFCURVE",
"214 54 OFFCURVE",
"179 54 CURVE SMOOTH"
);
}
);
width = 500;
}
);
unicode = 0152;
},
{
glyphname = P;
layers = (
{
anchors = (
{
name = bottom;
position = "{93, 0}";
},
{
name = top;
position = "{250, 623}";
}
);
layerId = "051EFAE4-8BBE-4FBB-A016-4335C3E52F59";
paths = (
{
closed = 1;
nodes = (
"131 0 LINE",
"131 275 LINE",
"264 275 LINE SMOOTH",
"399 275 OFFCURVE",
"456 351 OFFCURVE",
"456 447 CURVE SMOOTH",
"456 544 OFFCURVE",
"398 623 OFFCURVE",
"259 623 CURVE SMOOTH",
"59 623 LINE",
"59 0 LINE"
);
},
{
closed = 1;
nodes = (
"131 557 LINE",
"257 557 LINE",
"346 557 OFFCURVE",
"384 506 OFFCURVE",
"384 445 CURVE SMOOTH",
"384 380 OFFCURVE",
"347 337 OFFCURVE",
"256 337 CURVE SMOOTH",
"131 337 LINE"
);
}
);
width = 500;
}
);
unicode = 0050;
},
{
glyphname = Thorn;
layers = (
{
layerId = "051EFAE4-8BBE-4FBB-A016-4335C3E52F59";
paths = (
{
closed = 1;
nodes = (
"129 0 LINE",
"129 158 LINE",
"264 158 LINE SMOOTH",
"399 158 OFFCURVE",
"456 234 OFFCURVE",
"456 330 CURVE SMOOTH",
"456 426 OFFCURVE",
"398 506 OFFCURVE",
"259 506 CURVE SMOOTH",
"129 506 LINE",
"129 595 LINE",
"132 607 OFFCURVE",
"139 616 OFFCURVE",
"139 620 CURVE SMOOTH",
"139 621 OFFCURVE",
"138 622 OFFCURVE",
"137 623 CURVE",
"59 623 LINE",
"59 0 LINE"
);
},
{
closed = 1;
nodes = (
"129 440 LINE",
"257 440 LINE SMOOTH",
"346 440 OFFCURVE",
"384 389 OFFCURVE",
"384 328 CURVE SMOOTH",
"384 267 OFFCURVE",
"350 219 OFFCURVE",
"264 219 CURVE SMOOTH",
"129 219 LINE"
);
}
);
width = 500;
}
);
unicode = 00DE;
},
{
glyphname = Q;
layers = (
{
anchors = (
{
name = bottom;
position = "{250, 0}";
},
{
name = top;
position = "{250, 623}";
}
);
layerId = "051EFAE4-8BBE-4FBB-A016-4335C3E52F59";
paths = (
{
closed = 1;
nodes = (
"440 -145 LINE",
"442 -77 LINE",
"361 -82 LINE",
"305 -82 OFFCURVE",
"290 -51 OFFCURVE",
"287 -7 CURVE",
"408 20 OFFCURVE",
"471 127 OFFCURVE",
"471 311 CURVE",
"476 536 OFFCURVE",
"364 630 OFFCURVE",
"251 630 CURVE SMOOTH",
"158 630 OFFCURVE",
"29 557 OFFCURVE",
"29 308 CURVE SMOOTH",
"29 107 OFFCURVE",
"126 6 OFFCURVE",
"226 -7 CURVE",
"226 -110 OFFCURVE",
"270 -151 OFFCURVE",
"401 -145 CURVE"
);
},
{
closed = 1;
nodes = (
"156 55 OFFCURVE",
"97 165 OFFCURVE",
"97 323 CURVE SMOOTH",
"97 450 OFFCURVE",
"146 569 OFFCURVE",
"251 569 CURVE SMOOTH",
"314 569 OFFCURVE",
"404 517 OFFCURVE",
"404 294 CURVE SMOOTH",
"404 118 OFFCURVE",
"324 55 OFFCURVE",
"256 55 CURVE SMOOTH"
);
}
);
width = 500;
}
);
unicode = 0051;
},
{
glyphname = R;
layers = (
{
anchors = (
{
name = bottom;
position = "{250, 0}";
},
{
name = top;
position = "{250, 623}";
}
);
layerId = "051EFAE4-8BBE-4FBB-A016-4335C3E52F59";
paths = (
{
closed = 1;
nodes = (
"127 0 LINE",
"127 275 LINE",
"248 275 LINE",
"386 0 LINE",
"464 0 LINE",
"320 278 LINE",
"397 297 OFFCURVE",
"447 374 OFFCURVE",
"447 445 CURVE SMOOTH",
"447 552 OFFCURVE",
"387 623 OFFCURVE",
"240 623 CURVE SMOOTH",
"56 623 LINE",
"56 0 LINE"
);
},
{
closed = 1;
nodes = (
"127 557 LINE",
"248 557 LINE",
"337 557 OFFCURVE",
"375 507 OFFCURVE",
"375 445 CURVE SMOOTH",
"375 380 OFFCURVE",
"337 337 OFFCURVE",
"248 337 CURVE SMOOTH",
"127 337 LINE"
);
}
);
width = 500;
}
);
unicode = 0052;
},
{
glyphname = S;
layers = (
{
anchors = (
{
name = bottom;
position = "{247, 0}";
},
{
name = top;
position = "{261, 623}";
}
);
hints = (
{
origin = "{0, 14}";
type = Corner;
name = _corner.rightSpur;
},
{
origin = "{0, 33}";
type = Corner;
name = _corner.rightSpur;
}
);
layerId = "051EFAE4-8BBE-4FBB-A016-4335C3E52F59";
paths = (
{
closed = 1;
nodes = (
"393 -10 OFFCURVE",
"455 84 OFFCURVE",
"455 170 CURVE SMOOTH",
"455 247 OFFCURVE",
"420 294 OFFCURVE",
"298 344 CURVE",
"172 394 OFFCURVE",
"144 426 OFFCURVE",
"144 482 CURVE SMOOTH",
"144 531 OFFCURVE",
"185 573 OFFCURVE",
"251 573 CURVE SMOOTH",
"315 573 OFFCURVE",
"354 555 OFFCURVE",
"395 500 CURVE",
"435 553 LINE",
"392 602 OFFCURVE",
"330 631 OFFCURVE",
"262 631 CURVE SMOOTH",
"144 631 OFFCURVE",
"72 569 OFFCURVE",
"72 477 CURVE SMOOTH",
"72 406 OFFCURVE",
"113 342 OFFCURVE",
"243 292 CURVE",
"360 241 OFFCURVE",
"386 217 OFFCURVE",
"386 160 CURVE SMOOTH",
"386 101 OFFCURVE",
"331 53 OFFCURVE",
"257 53 CURVE SMOOTH",
"178 53 OFFCURVE",
"122 87 OFFCURVE",
"88 133 CURVE",
"52 69 LINE",
"101 17 OFFCURVE",
"166 -10 OFFCURVE",
"247 -10 CURVE SMOOTH"
);
}
);
width = 500;
}
);
unicode = 0053;
},
{
glyphname = Germandbls;
layers = (
{
layerId = "051EFAE4-8BBE-4FBB-A016-4335C3E52F59";
paths = (
{
closed = 1;
nodes = (
"380 -10 OFFCURVE",
"464 46 OFFCURVE",
"464 181 CURVE SMOOTH",
"464 316 OFFCURVE",
"380 380 OFFCURVE",
"240 380 CURVE",
"249 348 LINE",
"420 493 LINE",
"420 586 OFFCURVE",
"364 669 OFFCURVE",
"246 669 CURVE SMOOTH",
"153 669 OFFCURVE",
"55 617 OFFCURVE",
"55 462 CURVE SMOOTH",
"55 0 LINE",
"123 0 LINE",
"123 475 LINE SMOOTH",
"123 576 OFFCURVE",
"185 611 OFFCURVE",
"247 611 CURVE SMOOTH",
"324 611 OFFCURVE",
"352 558 OFFCURVE",
"352 501 CURVE",
"214 380 LINE",
"214 323 LINE",
"244 323 LINE SMOOTH",
"371 323 OFFCURVE",
"398 251 OFFCURVE",
"398 190 CURVE SMOOTH",
"398 103 OFFCURVE",
"342 53 OFFCURVE",
"276 53 CURVE SMOOTH",
"252 53 OFFCURVE",
"223 61 OFFCURVE",
"199 77 CURVE",
"177 21 LINE",
"208 0 OFFCURVE",
"242 -10 OFFCURVE",
"283 -10 CURVE SMOOTH"
);
}
);
width = 500;
}
);
unicode = 1E9E;
},
{
glyphname = T;
layers = (
{
anchors = (
{
name = bottom;
position = "{250, 0}";
},
{
name = center;
position = "{244, 312}";
},
{
name = top;
position = "{250, 623}";
}
);
layerId = "051EFAE4-8BBE-4FBB-A016-4335C3E52F59";
paths = (
{
closed = 1;
nodes = (
"279 0 LINE",
"279 561 LINE",
"463 561 LINE",
"463 624 LINE",
"31 624 LINE",
"31 561 LINE",
"208 561 LINE",
"208 0 LINE"
);
}
);
width = 500;
}
);
unicode = 0054;
},
{
glyphname = U;
layers = (
{
anchors = (
{
name = bottom;
position = "{250, 0}";
},
{
name = ogonek;
position = "{302, 10}";
},
{
name = top;
position = "{250, 623}";
},
{
name = topright;
position = "{454, 623}";
}
);
hints = (
{
origin = "{0, 12}";
type = Corner;
name = _corner.rightSpur;
}
);
layerId = "051EFAE4-8BBE-4FBB-A016-4335C3E52F59";
paths = (
{
closed = 1;
nodes = (
"374 -11 OFFCURVE",
"454 60 OFFCURVE",
"454 218 CURVE SMOOTH",
"454 623 LINE",
"387 623 LINE",
"387 217 LINE SMOOTH",
"387 112 OFFCURVE",
"352 48 OFFCURVE",
"252 48 CURVE SMOOTH",
"153 48 OFFCURVE",
"119 113 OFFCURVE",
"119 214 CURVE SMOOTH",
"119 623 LINE",
"50 623 LINE",
"50 215 LINE SMOOTH",
"50 72 OFFCURVE",
"118 -11 OFFCURVE",
"251 -11 CURVE SMOOTH"
);
}
);
width = 500;
}
);
unicode = 0055;
},
{
glyphname = V;
layers = (
{
anchors = (
{
name = bottom;
position = "{250, 0}";
},
{
name = top;
position = "{250, 623}";
}
);
layerId = "051EFAE4-8BBE-4FBB-A016-4335C3E52F59";
paths = (
{
closed = 1;
nodes = (
"269 -4 LINE",
"478 623 LINE",
"409 623 LINE",
"258 145 LINE",
"98 624 LINE",
"25 624 LINE",
"237 -4 LINE"
);
}
);
width = 500;
}
);
unicode = 0056;
},
{
glyphname = W;
layers = (
{
anchors = (
{
name = bottom;
position = "{254, 0}";
},
{
name = top;
position = "{260, 623}";
}
);
guideLines = (
{
angle = 90;
position = "{254, 0}";
}
);
layerId = "051EFAE4-8BBE-4FBB-A016-4335C3E52F59";
paths = (
{
closed = 1;
nodes = (
"146 0 LINE",
"255 407 LINE",
"362 0 LINE",
"389 0 LINE",
"488 623 LINE",
"429 623 LINE",
"372 200 LINE",
"271 577 LINE",
"249 577 LINE",
"149 202 LINE",
"82 623 LINE",
"17 623 LINE",
"117 0 LINE"
);
}
);
width = 500;
}
);
unicode = 0057;
},
{
glyphname = X;
layers = (
{
anchors = (
{
name = bottom;
position = "{250, 0}";
},
{
name = top;
position = "{250, 623}";
}
);
layerId = "051EFAE4-8BBE-4FBB-A016-4335C3E52F59";
paths = (
{
closed = 1;
nodes = (
"117 0 LINE",
"251 247 LINE",
"389 0 LINE",
"468 0 LINE",
"291 319 LINE",
"449 624 LINE",
"379 624 LINE",
"250 387 LINE",
"119 624 LINE",
"44 624 LINE",
"211 318 LINE",
"41 0 LINE"
);
}
);
width = 500;
}
);
unicode = 0058;
},
{
glyphname = Y;
layers = (
{
anchors = (
{
name = bottom;
position = "{258, 0}";
},
{
name = top;
position = "{250, 623}";
},
{
name = topleft;
position = "{28, 623}";
}
);
layerId = "051EFAE4-8BBE-4FBB-A016-4335C3E52F59";
paths = (
{
closed = 1;
nodes = (
"296 0 LINE",
"296 246 LINE",
"473 623 LINE",
"399 623 LINE",
"261 321 LINE",
"108 623 LINE",
"28 623 LINE",
"220 246 LINE",
"220 0 LINE"
);
}
);
width = 500;
}
);
unicode = 0059;
},
{
glyphname = Z;
layers = (
{
anchors = (
{
name = bottom;
position = "{270, 0}";
},
{
name = top;
position = "{260, 623}";
}
);
hints = (
{
origin = "{0, 1}";
type = Corner;
name = _corner.topSpur;
}
);
layerId = "051EFAE4-8BBE-4FBB-A016-4335C3E52F59";
paths = (
{
closed = 1;
nodes = (
"463 0 LINE",
"463 62 LINE",
"138 62 LINE",
"447 574 LINE",
"447 623 LINE",
"62 623 LINE",
"62 560 LINE",
"364 560 LINE",
"50 49 LINE",
"50 0 LINE"
);
},
{
closed = 1;
nodes = (
"99 283 LINE",
"401 283 LINE",
"401 340 LINE",
"99 340 LINE"
);
}
);
width = 500;
}
);
unicode = 005A;
},
{
glyphname = a;
layers = (
{
anchors = (
{
name = bottom;
position = "{250, 0}";
},
{
name = ogonek;
position = "{385, 0}";
},
{
name = top;
position = "{250, 457}";
}
);
layerId = "051EFAE4-8BBE-4FBB-A016-4335C3E52F59";
paths = (
{
closed = 1;
nodes = (
"264 -11 OFFCURVE",
"332 3 OFFCURVE",
"367 70 CURVE",
"367 0 LINE",
"445 0 LINE",
"445 243 LINE SMOOTH",
"445 415 OFFCURVE",
"365 467 OFFCURVE",
"244 467 CURVE SMOOTH",
"181 467 OFFCURVE",
"124 446 OFFCURVE",
"81 403 CURVE",
"116 357 LINE",
"151 391 OFFCURVE",
"195 408 OFFCURVE",
"239 408 CURVE SMOOTH",
"336 408 OFFCURVE",
"383 367 OFFCURVE",
"383 232 CURVE SMOOTH",
"383 111 OFFCURVE",
"322 44 OFFCURVE",
"218 44 CURVE SMOOTH",
"163 44 OFFCURVE",
"121 62 OFFCURVE",
"121 119 CURVE SMOOTH",
"121 190 OFFCURVE",
"189 220 OFFCURVE",
"285 220 CURVE SMOOTH",
"318 220 OFFCURVE",
"357 217 OFFCURVE",
"393 212 CURVE",
"391 267 LINE",
"349 273 OFFCURVE",
"312 274 OFFCURVE",
"279 274 CURVE SMOOTH",
"153 274 OFFCURVE",
"49 213 OFFCURVE",
"49 115 CURVE SMOOTH",
"49 41 OFFCURVE",
"107 -11 OFFCURVE",
"211 -11 CURVE SMOOTH"
);
}
);
width = 500;
}
);
unicode = 0061;
},
{
glyphname = ae;
layers = (
{
layerId = "051EFAE4-8BBE-4FBB-A016-4335C3E52F59";
paths = (
{
closed = 1;
nodes = (
"190 -11 OFFCURVE",
"232 15 OFFCURVE",
"255 58 CURVE",
"282 15 OFFCURVE",
"329 -11 OFFCURVE",
"380 -11 CURVE SMOOTH",
"427 -11 OFFCURVE",
"465 7 OFFCURVE",
"494 42 CURVE",
"459 84 LINE",
"441 59 OFFCURVE",
"417 47 OFFCURVE",
"386 47 CURVE SMOOTH",
"322 47 OFFCURVE",
"282 98 OFFCURVE",
"282 175 CURVE SMOOTH",
"282 223 LINE",
"490 230 LINE",
"490 268 LINE SMOOTH",
"490 392 OFFCURVE",
"453 467 OFFCURVE",
"362 467 CURVE SMOOTH",
"322 467 OFFCURVE",
"281 444 OFFCURVE",
"258 405 CURVE",
"237 444 OFFCURVE",
"195 467 OFFCURVE",
"147 467 CURVE SMOOTH",
"98 467 OFFCURVE",
"60 449 OFFCURVE",
"31 412 CURVE",
"66 368 LINE",
"87 397 OFFCURVE",
"112 411 OFFCURVE",
"142 411 CURVE SMOOTH",
"198 411 OFFCURVE",
"221 366 OFFCURVE",
"221 279 CURVE",
"81 274 OFFCURVE",
"10 220 OFFCURVE",
"10 123 CURVE SMOOTH",
"10 48 OFFCURVE",
"48 -11 OFFCURVE",
"142 -11 CURVE SMOOTH"
);
},
{
closed = 1;
nodes = (
"99 50 OFFCURVE",
"74 66 OFFCURVE",
"74 122 CURVE SMOOTH",
"74 192 OFFCURVE",
"114 214 OFFCURVE",
"221 219 CURVE",
"221 127 OFFCURVE",
"215 50 OFFCURVE",
"144 50 CURVE SMOOTH"
);
},
{
closed = 1;
nodes = (
"282 364 OFFCURVE",
"312 411 OFFCURVE",
"362 411 CURVE SMOOTH",
"412 411 OFFCURVE",
"432 368 OFFCURVE",
"432 284 CURVE",
"282 279 LINE"
);
}
);
width = 500;
}
);
unicode = 00E6;
},
{
glyphname = b;
layers = (
{
anchors = (
{
name = bottom;
position = "{250, 0}";
},
{
name = top;
position = "{250, 457}";
}
);
hints = (
{
origin = "{0, 9}";
type = Corner;
name = _corner.rightSpur;
}
);
layerId = "051EFAE4-8BBE-4FBB-A016-4335C3E52F59";
paths = (
{
closed = 1;
nodes = (
"361 -11 OFFCURVE",
"457 69 OFFCURVE",
"457 233 CURVE SMOOTH",
"457 390 OFFCURVE",
"380 468 OFFCURVE",
"269 468 CURVE SMOOTH",
"217 468 OFFCURVE",
"162 436 OFFCURVE",
"133 387 CURVE",
"133 665 LINE",
"60 665 LINE",
"60 0 LINE",
"106 0 LINE",
"131 60 LINE",
"162 16 OFFCURVE",
"210 -11 OFFCURVE",
"266 -11 CURVE SMOOTH"
);
},
{
closed = 1;
nodes = (
"167 53 OFFCURVE",
"133 122 OFFCURVE",
"133 227 CURVE SMOOTH",
"133 333 OFFCURVE",
"185 406 OFFCURVE",
"259 406 CURVE SMOOTH",
"332 406 OFFCURVE",
"383 350 OFFCURVE",
"383 229 CURVE SMOOTH",
"383 98 OFFCURVE",
"321 53 OFFCURVE",
"257 53 CURVE SMOOTH"
);
}
);
width = 500;
}
);
unicode = 0062;
},
{
glyphname = c;
layers = (
{
anchors = (
{
name = bottom;
position = "{286, 0}";
},
{
name = top;
position = "{286, 457}";
}
);
background = {
hints = (
{
origin = "{0, 15}";
type = Corner;
name = _corner.rightSpur;
}
);
paths = (
{
closed = 1;
nodes = (
"349 -11 OFFCURVE",
"405 13 OFFCURVE",
"450 61 CURVE",
"408 110 LINE",
"375 73 OFFCURVE",
"335 54 OFFCURVE",
"289 54 CURVE SMOOTH",
"197 54 OFFCURVE",
"130 130 OFFCURVE",
"130 233 CURVE SMOOTH",
"130 338 OFFCURVE",
"199 405 OFFCURVE",
"276 405 CURVE SMOOTH",
"335 405 OFFCURVE",
"372 387 OFFCURVE",
"411 336 CURVE",
"457 381 LINE",
"420 434 OFFCURVE",
"358 466 OFFCURVE",
"284 466 CURVE SMOOTH",
"152 466 OFFCURVE",
"56 365 OFFCURVE",
"56 228 CURVE SMOOTH",
"56 90 OFFCURVE",
"152 -11 OFFCURVE",
"285 -11 CURVE SMOOTH"
);
}
);
};
hints = (
{
origin = "{0, 15}";
type = Corner;
name = _corner.rightSpur;
}
);
layerId = "051EFAE4-8BBE-4FBB-A016-4335C3E52F59";
paths = (
{
closed = 1;
nodes = (
"349 -11 OFFCURVE",
"405 13 OFFCURVE",
"450 61 CURVE",
"408 110 LINE",
"375 73 OFFCURVE",
"335 54 OFFCURVE",
"289 54 CURVE SMOOTH",
"197 54 OFFCURVE",
"130 130 OFFCURVE",
"130 233 CURVE SMOOTH",
"130 338 OFFCURVE",
"199 405 OFFCURVE",
"276 405 CURVE SMOOTH",
"335 405 OFFCURVE",
"372 387 OFFCURVE",
"411 336 CURVE",
"457 381 LINE",
"420 434 OFFCURVE",
"358 466 OFFCURVE",
"284 466 CURVE SMOOTH",
"152 466 OFFCURVE",
"56 365 OFFCURVE",
"56 228 CURVE SMOOTH",
"56 90 OFFCURVE",
"152 -11 OFFCURVE",
"285 -11 CURVE SMOOTH"
);
}
);
width = 500;
}
);
unicode = 0063;
},
{
glyphname = d;
layers = (
{
anchors = (
{
name = bottom;
position = "{250, 0}";
},
{
name = center;
position = "{360, 549}";
},
{
name = top;
position = "{250, 457}";
},
{
name = topright;
position = "{470, 457}";
}
);
background = {
guideLines = (
{
position = "{449, 71}";
},
{
position = "{449, 71}";
}
);
paths = (
{
closed = 1;
nodes = (
"288 -11 OFFCURVE",
"341 19 OFFCURVE",
"370 70 CURVE",
"370 47 OFFCURVE",
"370 23 OFFCURVE",
"380 0 CURVE",
"449 0 LINE",
"439 24 OFFCURVE",
"439 47 OFFCURVE",
"439 71 CURVE",
"439 457 LINE",
"369 457 LINE",
"369 205 LINE SMOOTH",
"369 96 OFFCURVE",
"310 52 OFFCURVE",
"246 47 CURVE",
"189 47 OFFCURVE",
"142 86 OFFCURVE",
"142 202 CURVE SMOOTH",
"142 457 LINE",
"72 457 LINE",
"71 202 LINE SMOOTH",
"70 54 OFFCURVE",
"137 -11 OFFCURVE",
"228 -11 CURVE SMOOTH"
);
}
);
};
guideLines = (
{
position = "{449, 71}";
},
{
angle = 90;
position = "{368, 87}";
},
{
angle = 90;
position = "{439, 87}";
}
);
hints = (
{
origin = "{0, 10}";
type = Corner;
name = _corner.rightSpur;
}
);
layerId = "051EFAE4-8BBE-4FBB-A016-4335C3E52F59";
paths = (
{
closed = 1;
nodes = (
"293 -10 OFFCURVE",
"339 22 OFFCURVE",
"368 71 CURVE",
"368 47 OFFCURVE",
"368 24 OFFCURVE",
"378 0 CURVE",
"449 0 LINE",
"439 24 OFFCURVE",
"439 47 OFFCURVE",
"439 71 CURVE",
"438 665 LINE",
"371 665 LINE",
"371 390 LINE",
"348 438 OFFCURVE",
"301 469 OFFCURVE",
"238 469 CURVE SMOOTH",
"145 469 OFFCURVE",
"45 400 OFFCURVE",
"45 233 CURVE SMOOTH",
"45 69 OFFCURVE",
"141 -10 OFFCURVE",
"234 -10 CURVE SMOOTH"
);
},
{
closed = 1;
nodes = (
"160 53 OFFCURVE",
"115 129 OFFCURVE",
"115 244 CURVE SMOOTH",
"115 345 OFFCURVE",
"158 410 OFFCURVE",
"239 410 CURVE SMOOTH",
"327 410 OFFCURVE",
"365 333 OFFCURVE",
"365 231 CURVE SMOOTH",
"365 132 OFFCURVE",
"333 53 OFFCURVE",
"245 53 CURVE SMOOTH"
);
}
);
width = 500;
}
);
unicode = 0064;
},
{
glyphname = eth;
layers = (
{
layerId = "051EFAE4-8BBE-4FBB-A016-4335C3E52F59";
paths = (
{
closed = 1;
nodes = (
"388 -12 OFFCURVE",
"460 93 OFFCURVE",
"460 253 CURVE SMOOTH",
"460 379 OFFCURVE",
"422 485 OFFCURVE",
"347 570 CURVE",
"432 595 LINE",
"415 639 LINE",
"307 610 LINE",
"279 635 OFFCURVE",
"250 655 OFFCURVE",
"220 672 CURVE",
"139 656 LINE",
"177 639 OFFCURVE",
"211 617 OFFCURVE",
"241 592 CURVE",
"137 564 LINE",
"155 516 LINE",
"283 552 LINE",
"320 512 OFFCURVE",
"348 466 OFFCURVE",
"369 415 CURVE",
"336 450 OFFCURVE",
"294 467 OFFCURVE",
"242 467 CURVE SMOOTH",
"140 467 OFFCURVE",
"40 356 OFFCURVE",
"40 223 CURVE SMOOTH",
"40 87 OFFCURVE",
"140 -12 OFFCURVE",
"256 -12 CURVE SMOOTH"
);
},
{
closed = 1;
nodes = (
"179 50 OFFCURVE",
"117 123 OFFCURVE",
"117 232 CURVE SMOOTH",
"117 347 OFFCURVE",
"188 406 OFFCURVE",
"253 406 CURVE SMOOTH",
"316 406 OFFCURVE",
"387 361 OFFCURVE",
"387 232 CURVE SMOOTH",
"387 105 OFFCURVE",
"323 50 OFFCURVE",
"256 50 CURVE SMOOTH"
);
}
);
width = 500;
}
);
unicode = 00F0;
},
{
glyphname = dcaron;
layers = (
{
background = {
guideLines = (
{
position = "{449, 71}";
},
{
position = "{449, 71}";
}
);
paths = (
{
closed = 1;
nodes = (
"288 -11 OFFCURVE",
"341 19 OFFCURVE",
"370 70 CURVE",
"370 47 OFFCURVE",
"370 23 OFFCURVE",
"380 0 CURVE",
"449 0 LINE",
"439 24 OFFCURVE",
"439 47 OFFCURVE",
"439 71 CURVE",
"439 457 LINE",
"369 457 LINE",
"369 205 LINE SMOOTH",
"369 96 OFFCURVE",
"310 52 OFFCURVE",
"246 47 CURVE",
"189 47 OFFCURVE",
"142 86 OFFCURVE",
"142 202 CURVE SMOOTH",
"142 457 LINE",
"72 457 LINE",
"71 202 LINE SMOOTH",
"70 54 OFFCURVE",
"137 -11 OFFCURVE",
"228 -11 CURVE SMOOTH"
);
}
);
};
components = (
{
name = caroncomb.alt;
transform = "{1, 0, 0, 1, 170, 0}";
}
);
guideLines = (
{
position = "{449, 71}";
},
{
angle = 90;
position = "{368, 87}";
},
{
angle = 90;
position = "{439, 87}";
}
);
hints = (
{
origin = "{0, 10}";
type = Corner;
name = _corner.rightSpur;
}
);
layerId = "051EFAE4-8BBE-4FBB-A016-4335C3E52F59";
paths = (
{
closed = 1;
nodes = (
"230 -10 OFFCURVE",
"266 21 OFFCURVE",
"287 66 CURVE",
"287 42 OFFCURVE",
"289 21 OFFCURVE",
"297 0 CURVE",
"360 0 LINE",
"352 24 OFFCURVE",
"352 47 OFFCURVE",
"352 71 CURVE",
"352 665 LINE",
"290 665 LINE",
"290 394 LINE",
"274 442 OFFCURVE",
"237 469 OFFCURVE",
"188 469 CURVE SMOOTH",
"109 469 OFFCURVE",
"35 411 OFFCURVE",
"35 233 CURVE SMOOTH",
"35 53 OFFCURVE",
"108 -10 OFFCURVE",
"183 -10 CURVE SMOOTH"
);
},
{
closed = 1;
nodes = (
"135 52 OFFCURVE",
"97 107 OFFCURVE",
"97 244 CURVE SMOOTH",
"97 358 OFFCURVE",
"130 409 OFFCURVE",
"192 409 CURVE SMOOTH",
"255 409 OFFCURVE",
"286 346 OFFCURVE",
"286 231 CURVE SMOOTH",
"286 116 OFFCURVE",
"258 52 OFFCURVE",
"195 52 CURVE SMOOTH"
);
}
);
width = 500;
}
);
unicode = 010F;
},
{
glyphname = e;
layers = (
{
anchors = (
{
name = bottom;
position = "{280, 0}";
},
{
name = ogonek;
position = "{318, 9}";
},
{
name = top;
position = "{260, 457}";
}
);
layerId = "051EFAE4-8BBE-4FBB-A016-4335C3E52F59";
paths = (
{
closed = 1;
nodes = (
"340 -10 OFFCURVE",
"393 13 OFFCURVE",
"432 60 CURVE",
"392 99 LINE",
"361 65 OFFCURVE",
"321 48 OFFCURVE",
"274 48 CURVE SMOOTH",
"192 48 OFFCURVE",
"123 100 OFFCURVE",
"118 218 CURVE",
"443 218 LINE",
"444 229 OFFCURVE",
"445 240 OFFCURVE",
"445 251 CURVE SMOOTH",
"445 400 OFFCURVE",
"363 468 OFFCURVE",
"259 468 CURVE SMOOTH",
"143 468 OFFCURVE",
"49 382 OFFCURVE",
"49 227 CURVE SMOOTH",
"49 74 OFFCURVE",
"138 -10 OFFCURVE",
"272 -10 CURVE SMOOTH"
);
},
{
closed = 1;
nodes = (
"134 370 OFFCURVE",
"191 413 OFFCURVE",
"254 413 CURVE SMOOTH",
"325 413 OFFCURVE",
"372 359 OFFCURVE",
"372 274 CURVE",
"121 274 LINE"
);
}
);
width = 500;
}
);
unicode = 0065;
},
{
glyphname = eopenclosed;
layers = (
{
background = {
components = (
{
name = o;
transform = "{1, 0, 0, 1, -64, 0}";
}
);
guideLines = (
{
angle = 90;
position = "{186, 22}";
}
);
};
layerId = "051EFAE4-8BBE-4FBB-A016-4335C3E52F59";
paths = (
{
closed = 1;
nodes = (
"366 -9 OFFCURVE",
"453 90 OFFCURVE",
"453 229 CURVE SMOOTH",
"453 368 OFFCURVE",
"370 467 OFFCURVE",
"244 467 CURVE SMOOTH",
"147 467 OFFCURVE",
"73 416 OFFCURVE",
"73 344 CURVE SMOOTH",
"73 306 OFFCURVE",
"94 274 OFFCURVE",
"133 252 CURVE",
"79 240 OFFCURVE",
"45 199 OFFCURVE",
"45 143 CURVE SMOOTH",
"45 60 OFFCURVE",
"123 -7 OFFCURVE",
"236 -8 CURVE SMOOTH"
);
},
{
closed = 1;
nodes = (
"172 52 OFFCURVE",
"123 86 OFFCURVE",
"123 137 CURVE SMOOTH",
"123 189 OFFCURVE",
"168 214 OFFCURVE",
"229 214 CURVE SMOOTH",
"242 214 OFFCURVE",
"252 212 OFFCURVE",
"265 211 CURVE",
"265 278 LINE",
"257 277 OFFCURVE",
"249 277 OFFCURVE",
"241 277 CURVE SMOOTH",
"173 277 OFFCURVE",
"150 302 OFFCURVE",
"150 339 CURVE SMOOTH",
"150 378 OFFCURVE",
"179 407 OFFCURVE",
"241 407 CURVE SMOOTH",
"325 407 OFFCURVE",
"377 334 OFFCURVE",
"377 230 CURVE SMOOTH",
"377 116 OFFCURVE",
"321 52 OFFCURVE",
"236 52 CURVE SMOOTH"
);
}
);
width = 500;
}
);
unicode = 029A;
},
{
glyphname = ezhreversed;
layers = (
{
background = {
hints = (
{
origin = "{0, 3}";
type = Corner;
name = _corner.topSpur;
}
);
paths = (
{
closed = 1;
nodes = (
"329 -177 OFFCURVE",
"384 -153 OFFCURVE",
"427 -106 CURVE",
"385 -52 LINE",
"351 -93 OFFCURVE",
"330 -117 OFFCURVE",
"273 -117 CURVE SMOOTH",
"189 -117 OFFCURVE",
"141 -65 OFFCURVE",
"141 11 CURVE SMOOTH",
"141 118 OFFCURVE",
"218 160 OFFCURVE",
"336 154 CURVE",
"336 206 LINE",
"271 206 LINE",
"151 205 OFFCURVE",
"69 115 OFFCURVE",
"69 6 CURVE SMOOTH",
"69 -91 OFFCURVE",
"135 -177 OFFCURVE",
"266 -177 CURVE SMOOTH"
);
},
{
closed = 1;
nodes = (
"336 206 LINE",
"164 394 LINE",
"391 394 LINE",
"391 457 LINE",
"86 457 LINE",
"86 394 LINE",
"266 202 LINE"
);
}
);
};
components = (
{
alignment = -1;
name = Ezhreversed;
transform = "{1, 0, 0, 1, 20, -166}";
}
);
layerId = "051EFAE4-8BBE-4FBB-A016-4335C3E52F59";
width = 500;
}
);
unicode = 01B9;
},
{
glyphname = f;
layers = (
{
hints = (
{
origin = "{0, 11}";
type = Corner;
name = _corner.rightSpur;
}
);
layerId = "051EFAE4-8BBE-4FBB-A016-4335C3E52F59";
paths = (
{
closed = 1;
nodes = (
"231 0 LINE",
"231 400 LINE",
"381 400 LINE",
"381 457 LINE",
"231 457 LINE",
"231 495 LINE SMOOTH",
"231 582 OFFCURVE",
"274 613 OFFCURVE",
"332 613 CURVE SMOOTH",
"381 613 OFFCURVE",
"399 597 OFFCURVE",
"434 554 CURVE",
"473 608 LINE",
"440 650 OFFCURVE",
"387 671 OFFCURVE",
"330 671 CURVE SMOOTH",
"232 671 OFFCURVE",
"162 617 OFFCURVE",
"162 495 CURVE SMOOTH",
"162 457 LINE",
"63 457 LINE",
"63 400 LINE",
"162 400 LINE",
"162 0 LINE"
);
}
);
width = 500;
}
);
unicode = 0066;
},
{
glyphname = g;
layers = (
{
anchors = (
{
name = bottom;
position = "{240, -162}";
},
{
name = top;
position = "{226, 457}";
}
);
background = {
guideLines = (
{
position = "{226, 315}";
},
{
angle = 90;
position = "{226, 315}";
}
);
paths = (
{
closed = 1;
nodes = (
"326 153 OFFCURVE",
"388 225 OFFCURVE",
"388 315 CURVE SMOOTH",
"388 404 OFFCURVE",
"326 476 OFFCURVE",
"226 476 CURVE SMOOTH",
"126 476 OFFCURVE",
"64 404 OFFCURVE",
"64 315 CURVE SMOOTH",
"64 225 OFFCURVE",
"126 153 OFFCURVE",
"226 153 CURVE SMOOTH"
);
},
{
closed = 1;
nodes = (
"167 214 OFFCURVE",
"125 259 OFFCURVE",
"125 315 CURVE SMOOTH",
"125 371 OFFCURVE",
"167 416 OFFCURVE",
"226 416 CURVE SMOOTH",
"285 416 OFFCURVE",
"327 371 OFFCURVE",
"327 315 CURVE SMOOTH",
"327 259 OFFCURVE",
"285 214 OFFCURVE",
"226 214 CURVE SMOOTH"
);
},
{
closed = 1;
nodes = (
"128 46 LINE",
"68 12 OFFCURVE",
"38 -22 OFFCURVE",
"38 -64 CURVE SMOOTH",
"38 -123 OFFCURVE",
"99 -172 OFFCURVE",
"237 -172 CURVE SMOOTH",
"400 -172 OFFCURVE",
"455 -105 OFFCURVE",
"455 -34 CURVE SMOOTH",
"455 33 OFFCURVE",
"405 82 OFFCURVE",
"277 82 CURVE SMOOTH",
"210 82 OFFCURVE",
"137 69 OFFCURVE",
"137 115 CURVE SMOOTH",
"137 132 OFFCURVE",
"152 152 OFFCURVE",
"181 179 CURVE",
"140 196 LINE",
"97 162 OFFCURVE",
"76 138 OFFCURVE",
"76 100 CURVE SMOOTH",
"76 66 OFFCURVE",
"92 43 OFFCURVE",
"126 31 CURVE",
"152 25 LINE",
"184 21 OFFCURVE",
"226 19 OFFCURVE",
"282 19 CURVE SMOOTH",
"338 19 OFFCURVE",
"389 19 OFFCURVE",
"389 -37 CURVE SMOOTH",
"389 -86 OFFCURVE",
"346 -118 OFFCURVE",
"248 -118 CURVE SMOOTH",
"170 -118 OFFCURVE",
"104 -98 OFFCURVE",
"104 -46 CURVE SMOOTH",
"104 -18 OFFCURVE",
"128 9 OFFCURVE",
"177 32 CURVE"
);
}
);
};
layerId = "051EFAE4-8BBE-4FBB-A016-4335C3E52F59";
paths = (
{
closed = 1;
nodes = (
"393 -172 OFFCURVE",
"445 -105 OFFCURVE",
"445 -34 CURVE SMOOTH",
"445 33 OFFCURVE",
"417 82 OFFCURVE",
"277 82 CURVE SMOOTH",
"170 82 OFFCURVE",
"137 95 OFFCURVE",
"137 127 CURVE SMOOTH",
"137 144 OFFCURVE",
"144 157 OFFCURVE",
"164 179 CURVE",
"130 206 LINE",
"97 176 OFFCURVE",
"76 144 OFFCURVE",
"76 110 CURVE SMOOTH",
"76 44 OFFCURVE",
"145 19 OFFCURVE",
"262 19 CURVE SMOOTH",
"363 19 OFFCURVE",
"379 -1 OFFCURVE",
"379 -45 CURVE SMOOTH",
"379 -88 OFFCURVE",
"339 -118 OFFCURVE",
"248 -118 CURVE SMOOTH",
"158 -118 OFFCURVE",
"104 -92 OFFCURVE",
"104 -46 CURVE SMOOTH",
"104 -5 OFFCURVE",
"118 14 OFFCURVE",
"154 36 CURVE",
"124 54 LINE",
"78 40 OFFCURVE",
"38 2 OFFCURVE",
"38 -54 CURVE SMOOTH",
"38 -133 OFFCURVE",
"119 -172 OFFCURVE",
"247 -172 CURVE SMOOTH"
);
},
{
closed = 1;
nodes = (
"325 155 OFFCURVE",
"386 226 OFFCURVE",
"386 315 CURVE SMOOTH",
"386 403 OFFCURVE",
"325 474 OFFCURVE",
"226 474 CURVE SMOOTH",
"127 474 OFFCURVE",
"66 403 OFFCURVE",
"66 315 CURVE SMOOTH",
"66 226 OFFCURVE",
"127 155 OFFCURVE",
"226 155 CURVE SMOOTH"
);
},
{
closed = 1;
nodes = (
"168 215 OFFCURVE",
"126 260 OFFCURVE",
"126 315 CURVE SMOOTH",
"126 370 OFFCURVE",
"168 415 OFFCURVE",
"226 415 CURVE SMOOTH",
"284 415 OFFCURVE",
"326 370 OFFCURVE",
"326 315 CURVE SMOOTH",
"326 260 OFFCURVE",
"284 215 OFFCURVE",
"226 215 CURVE SMOOTH"
);
},
{
closed = 1;
nodes = (
"392 409 OFFCURVE",
"431 414 OFFCURVE",
"475 410 CURVE",
"466 469 LINE",
"408 473 OFFCURVE",
"370 455 OFFCURVE",
"331 416 CURVE",
"359 383 LINE"
);
}
);
width = 500;
},
{
anchors = (
{
name = bottom;
position = "{240, -162}";
},
{
name = top;
position = "{226, 457}";
}
);
associatedMasterId = "051EFAE4-8BBE-4FBB-A016-4335C3E52F59";
background = {
guideLines = (
{
position = "{226, 315}";
},
{
angle = 90;
position = "{226, 315}";
}
);
paths = (
{
closed = 1;
nodes = (
"316 153 OFFCURVE",
"388 225 OFFCURVE",
"388 315 CURVE SMOOTH",
"388 404 OFFCURVE",
"316 476 OFFCURVE",
"226 476 CURVE SMOOTH",
"136 476 OFFCURVE",
"64 404 OFFCURVE",
"64 315 CURVE SMOOTH",
"64 225 OFFCURVE",
"136 153 OFFCURVE",
"226 153 CURVE SMOOTH"
);
},
{
closed = 1;
nodes = (
"282 214 OFFCURVE",
"327 259 OFFCURVE",
"327 315 CURVE SMOOTH",
"327 371 OFFCURVE",
"282 416 OFFCURVE",
"226 416 CURVE SMOOTH",
"170 416 OFFCURVE",
"125 371 OFFCURVE",
"125 315 CURVE SMOOTH",
"125 259 OFFCURVE",
"170 214 OFFCURVE",
"226 214 CURVE SMOOTH"
);
}
);
};
layerId = "AC3E65CC-A0E3-4691-897B-5D36495917DF";
name = "Regular Aug 17 16, 21:15";
paths = (
{
closed = 1;
nodes = (
"400 -172 OFFCURVE",
"455 -105 OFFCURVE",
"455 -34 CURVE SMOOTH",
"455 33 OFFCURVE",
"405 82 OFFCURVE",
"277 82 CURVE SMOOTH",
"210 82 OFFCURVE",
"137 69 OFFCURVE",
"137 115 CURVE SMOOTH",
"137 129 OFFCURVE",
"148 146 OFFCURVE",
"169 167 CURVE",
"189 160 OFFCURVE",
"208 156 OFFCURVE",
"227 156 CURVE SMOOTH",
"318 156 OFFCURVE",
"392 228 OFFCURVE",
"392 313 CURVE SMOOTH",
"392 341 OFFCURVE",
"384 367 OFFCURVE",
"369 390 CURVE",
"400 410 OFFCURVE",
"435 414 OFFCURVE",
"475 410 CURVE",
"466 469 LINE",
"413 469 OFFCURVE",
"376 459 OFFCURVE",
"339 428 CURVE",
"310 457 OFFCURVE",
"273 472 OFFCURVE",
"228 472 CURVE SMOOTH",
"130 472 OFFCURVE",
"60 401 OFFCURVE",
"60 310 CURVE SMOOTH",
"60 256 OFFCURVE",
"85 214 OFFCURVE",
"128 186 CURVE",
"93 157 OFFCURVE",
"76 134 OFFCURVE",
"76 100 CURVE SMOOTH",
"76 71 OFFCURVE",
"88 50 OFFCURVE",
"113 37 CURVE",
"63 6 OFFCURVE",
"38 -26 OFFCURVE",
"38 -64 CURVE SMOOTH",
"38 -123 OFFCURVE",
"99 -172 OFFCURVE",
"237 -172 CURVE SMOOTH"
);
},
{
closed = 1;
nodes = (
"170 -118 OFFCURVE",
"104 -98 OFFCURVE",
"104 -46 CURVE SMOOTH",
"104 -21 OFFCURVE",
"123 3 OFFCURVE",
"161 24 CURVE",
"192 21 OFFCURVE",
"231 19 OFFCURVE",
"282 19 CURVE SMOOTH",
"338 19 OFFCURVE",
"389 19 OFFCURVE",
"389 -37 CURVE SMOOTH",
"389 -86 OFFCURVE",
"346 -118 OFFCURVE",
"248 -118 CURVE SMOOTH"
);
},
{
closed = 1;
nodes = (
"173 214 OFFCURVE",
"126 257 OFFCURVE",
"126 314 CURVE SMOOTH",
"126 370 OFFCURVE",
"173 415 OFFCURVE",
"226 415 CURVE SMOOTH",
"280 415 OFFCURVE",
"327 368 OFFCURVE",
"327 314 CURVE SMOOTH",
"327 261 OFFCURVE",
"281 214 OFFCURVE",
"226 214 CURVE SMOOTH"
);
}
);
width = 500;
}
);
unicode = 0067;
},
{
glyphname = h;
layers = (
{
anchors = (
{
name = bottom;
position = "{250, 0}";
},
{
name = center;
position = "{130, 549}";
},
{
name = top;
position = "{118, 665}";
}
);
hints = (
{
origin = "{0, 17}";
type = Corner;
name = _corner.rightSpur;
}
);
layerId = "051EFAE4-8BBE-4FBB-A016-4335C3E52F59";
paths = (
{
closed = 1;
nodes = (
"143 0 LINE",
"143 263 LINE SMOOTH",
"143 352 OFFCURVE",
"217 405 OFFCURVE",
"278 405 CURVE SMOOTH",
"325 405 OFFCURVE",
"362 371 OFFCURVE",
"362 275 CURVE SMOOTH",
"362 0 LINE",
"432 0 LINE",
"432 277 LINE SMOOTH",
"432 415 OFFCURVE",
"375 468 OFFCURVE",
"293 468 CURVE SMOOTH",
"237 468 OFFCURVE",
"179 432 OFFCURVE",
"143 376 CURVE",
"143 665 LINE",
"73 665 LINE",
"73 0 LINE"
);
}
);
width = 500;
},
{
anchors = (
{
name = bottom;
position = "{250, 0}";
},
{
name = center;
position = "{130, 549}";
},
{
name = top;
position = "{108, 665}";
}
);
associatedMasterId = "051EFAE4-8BBE-4FBB-A016-4335C3E52F59";
layerId = "AC54ED30-0B52-447A-BFD8-183E47366DA1";
name = legacy;
paths = (
{
closed = 1;
nodes = (
"143 0 LINE",
"143 263 LINE SMOOTH",
"143 352 OFFCURVE",
"217 405 OFFCURVE",
"278 405 CURVE SMOOTH",
"325 405 OFFCURVE",
"362 371 OFFCURVE",
"362 275 CURVE SMOOTH",
"362 0 LINE",
"433 0 LINE",
"433 277 LINE SMOOTH",
"433 415 OFFCURVE",
"375 468 OFFCURVE",
"293 468 CURVE SMOOTH",
"237 468 OFFCURVE",
"179 432 OFFCURVE",
"143 376 CURVE",
"143 631 LINE",
"143 647 OFFCURVE",
"153 655 OFFCURVE",
"153 665 CURVE",
"70 665 LINE",
"70 0 LINE"
);
}
);
width = 500;
}
);
unicode = 0068;
},
{
glyphname = idotless;
layers = (
{
anchors = (
{
name = bottom;
position = "{250, 0}";
},
{
name = ogonek;
position = "{346, 0}";
},
{
name = top;
position = "{250, 457}";
}
);
layerId = "051EFAE4-8BBE-4FBB-A016-4335C3E52F59";
paths = (
{
closed = 1;
nodes = (
"396 0 LINE",
"396 58 LINE",
"289 58 LINE",
"289 457 LINE",
"106 457 LINE",
"106 399 LINE",
"217 399 LINE",
"217 58 LINE",
"100 58 LINE",
"100 0 LINE"
);
}
);
width = 500;
}
);
unicode = 0131;
},
{
glyphname = jdotless;
layers = (
{
anchors = (
{
name = bottom;
position = "{250, -190}";
},
{
name = top;
position = "{328, 457}";
}
);
hints = (
{
origin = "{0, 13}";
type = Corner;
name = _corner.rightSpur;
}
);
layerId = "051EFAE4-8BBE-4FBB-A016-4335C3E52F59";
paths = (
{
closed = 1;
nodes = (
"289 -174 OFFCURVE",
"369 -117 OFFCURVE",
"369 22 CURVE SMOOTH",
"369 457 LINE",
"126 457 LINE",
"126 398 LINE",
"296 398 LINE",
"296 18 LINE SMOOTH",
"296 -74 OFFCURVE",
"253 -112 OFFCURVE",
"193 -112 CURVE SMOOTH",
"143 -112 OFFCURVE",
"113 -86 OFFCURVE",
"89 -55 CURVE",
"48 -110 LINE",
"83 -153 OFFCURVE",
"136 -174 OFFCURVE",
"194 -174 CURVE SMOOTH"
);
}
);
width = 500;
}
);
unicode = 0237;
},
{
glyphname = k;
layers = (
{
anchors = (
{
name = bottom;
position = "{250, 0}";
},
{
name = top;
position = "{104, 665}";
}
);
hints = (
{
origin = "{0, 8}";
type = Corner;
name = _corner.rightSpur;
}
);
layerId = "051EFAE4-8BBE-4FBB-A016-4335C3E52F59";
paths = (
{
closed = 1;
nodes = (
"479 0 LINE",
"255 273 LINE",
"447 454 LINE",
"421 454 LINE SMOOTH",
"401 454 OFFCURVE",
"383 456 OFFCURVE",
"368 459 CURVE",
"139 247 LINE",
"139 665 LINE",
"66 665 LINE",
"66 0 LINE",
"139 0 LINE",
"139 173 LINE",
"199 229 LINE",
"386 -4 LINE"
);
}
);
width = 500;
}
);
unicode = 006B;
},
{
glyphname = kgreenlandic;
layers = (
{
anchors = (
{
name = bottom;
position = "{250, 0}";
},
{
name = top;
position = "{104, 457}";
}
);
background = {
paths = (
{
closed = 1;
nodes = (
"479 0 LINE",
"255 273 LINE",
"448 457 LINE",
"422 457 LINE SMOOTH",
"402 457 OFFCURVE",
"384 459 OFFCURVE",
"369 462 CURVE",
"139 247 LINE",
"139 431 LINE SMOOTH",
"139 439 OFFCURVE",
"148 449 OFFCURVE",
"148 457 CURVE",
"66 457 LINE",
"66 0 LINE",
"139 0 LINE",
"139 173 LINE",
"199 229 LINE",
"386 -4 LINE"
);
}
);
};
hints = (
{
origin = "{0, 8}";
type = Corner;
name = _corner.rightSpur;
}
);
layerId = "051EFAE4-8BBE-4FBB-A016-4335C3E52F59";
paths = (
{
closed = 1;
nodes = (
"479 0 LINE",
"255 273 LINE",
"447 454 LINE",
"421 454 LINE SMOOTH",
"401 454 OFFCURVE",
"383 456 OFFCURVE",
"368 459 CURVE",
"139 247 LINE",
"139 457 LINE",
"66 457 LINE",
"66 0 LINE",
"139 0 LINE",
"139 173 LINE",
"199 229 LINE",
"386 -4 LINE"
);
}
);
width = 500;
}
);
unicode = 0138;
},
{
glyphname = l;
layers = (
{
anchors = (
{
name = bottom;
position = "{250, 0}";
},
{
name = center;
position = "{250, 229}";
},
{
name = top;
position = "{250, 665}";
},
{
name = topright;
position = "{480, 457}";
}
);
layerId = "051EFAE4-8BBE-4FBB-A016-4335C3E52F59";
paths = (
{
closed = 1;
nodes = (
"421 0 LINE",
"421 58 LINE",
"287 58 LINE",
"287 665 LINE",
"85 665 LINE",
"85 607 LINE",
"214 607 LINE",
"214 58 LINE",
"79 58 LINE",
"79 0 LINE"
);
}
);
width = 500;
}
);
unicode = 006C;
},
{
glyphname = ldot;
layers = (
{
components = (
{
name = periodcentered;
transform = "{1, 0, 0, 1, 150, 0}";
}
);
layerId = "051EFAE4-8BBE-4FBB-A016-4335C3E52F59";
paths = (
{
closed = 1;
nodes = (
"411 0 LINE",
"411 58 LINE",
"257 58 LINE",
"257 665 LINE",
"75 665 LINE",
"75 607 LINE",
"184 607 LINE",
"184 58 LINE",
"69 58 LINE",
"69 0 LINE"
);
}
);
width = 500;
}
);
unicode = 0140;
},
{
glyphname = lj;
layers = (
{
background = {
paths = (
{
closed = 1;
nodes = (
"281 0 LINE",
"281 58 LINE",
"157 58 LINE",
"157 665 LINE",
"25 665 LINE",
"25 607 LINE",
"84 607 LINE",
"84 58 LINE",
"19 58 LINE",
"19 0 LINE"
);
}
);
};
components = (
{
name = dotaccent;
transform = "{1, 0, 0, 1, 128, 0}";
}
);
layerId = "051EFAE4-8BBE-4FBB-A016-4335C3E52F59";
paths = (
{
closed = 1;
nodes = (
"349 -169 OFFCURVE",
"429 -117 OFFCURVE",
"429 22 CURVE SMOOTH",
"429 457 LINE",
"216 457 LINE",
"216 398 LINE",
"356 398 LINE",
"356 18 LINE SMOOTH",
"356 -74 OFFCURVE",
"313 -112 OFFCURVE",
"253 -112 CURVE SMOOTH",
"236 -112 OFFCURVE",
"221 -108 OFFCURVE",
"206 -101 CURVE SMOOTH",
"156 -78 OFFCURVE",
"169 -62 OFFCURVE",
"155 -48 CURVE",
"108 -110 LINE",
"143 -153 OFFCURVE",
"189 -174 OFFCURVE",
"248 -174 CURVE SMOOTH"
);
},
{
closed = 1;
nodes = (
"281 0 LINE",
"281 58 LINE",
"157 58 LINE",
"157 665 LINE",
"25 665 LINE",
"25 607 LINE",
"84 607 LINE",
"84 58 LINE",
"19 58 LINE",
"19 0 LINE"
);
}
);
width = 500;
}
);
unicode = 01C9;
},
{
glyphname = lslash;
layers = (
{
layerId = "051EFAE4-8BBE-4FBB-A016-4335C3E52F59";
paths = (
{
closed = 1;
nodes = (
"421 0 LINE",
"421 58 LINE",
"287 58 LINE",
"287 303 LINE",
"378 334 LINE",
"378 403 LINE",
"287 370 LINE",
"287 665 LINE",
"85 665 LINE",
"85 607 LINE",
"214 607 LINE",
"214 345 LINE",
"135 318 LINE",
"135 252 LINE",
"214 279 LINE",
"214 58 LINE",
"79 58 LINE",
"79 0 LINE"
);
}
);
width = 500;
}
);
unicode = 0142;
},
{
glyphname = m;
layers = (
{
anchors = (
{
name = bottom;
position = "{250, 0}";
},
{
name = top;
position = "{250, 457}";
}
);
layerId = "051EFAE4-8BBE-4FBB-A016-4335C3E52F59";
paths = (
{
closed = 1;
nodes = (
"104 0 LINE",
"104 305 LINE SMOOTH",
"104 373 OFFCURVE",
"141 413 OFFCURVE",
"170 413 CURVE SMOOTH",
"208 413 OFFCURVE",
"220 394 OFFCURVE",
"220 318 CURVE SMOOTH",
"220 0 LINE",
"287 0 LINE",
"287 302 LINE SMOOTH",
"287 354 OFFCURVE",
"322 415 OFFCURVE",
"360 415 CURVE SMOOTH",
"384 415 OFFCURVE",
"403 407 OFFCURVE",
"403 324 CURVE SMOOTH",
"403 0 LINE",
"469 0 LINE",
"469 351 LINE",
"472 418 OFFCURVE",
"443 468 OFFCURVE",
"381 468 CURVE SMOOTH",
"336 468 OFFCURVE",
"295 441 OFFCURVE",
"278 401 CURVE",
"270 440 OFFCURVE",
"237 468 OFFCURVE",
"197 468 CURVE SMOOTH",
"161 468 OFFCURVE",
"125 445 OFFCURVE",
"104 412 CURVE",
"104 457 LINE",
"38 457 LINE",
"38 0 LINE"
);
}
);
width = 500;
}
);
unicode = 006D;
},
{
glyphname = n;
layers = (
{
anchors = (
{
name = bottom;
position = "{260, 0}";
},
{
name = top;
position = "{265, 457}";
}
);
layerId = "051EFAE4-8BBE-4FBB-A016-4335C3E52F59";
paths = (
{
closed = 1;
nodes = (
"142 0 LINE",
"142 263 LINE SMOOTH",
"142 350 OFFCURVE",
"216 405 OFFCURVE",
"277 405 CURVE SMOOTH",
"324 405 OFFCURVE",
"361 371 OFFCURVE",
"361 275 CURVE SMOOTH",
"361 0 LINE",
"431 0 LINE",
"431 277 LINE SMOOTH",
"431 415 OFFCURVE",
"372 468 OFFCURVE",
"297 468 CURVE SMOOTH",
"235 468 OFFCURVE",
"177 432 OFFCURVE",
"142 376 CURVE",
"142 457 LINE",
"72 457 LINE",
"72 0 LINE"
);
}
);
width = 500;
}
);
unicode = 006E;
},
{
glyphname = eng;
layers = (
{
layerId = "051EFAE4-8BBE-4FBB-A016-4335C3E52F59";
paths = (
{
closed = 1;
nodes = (
"359 -176 OFFCURVE",
"432 -107 OFFCURVE",
"432 56 CURVE SMOOTH",
"432 277 LINE SMOOTH",
"432 415 OFFCURVE",
"372 468 OFFCURVE",
"291 468 CURVE SMOOTH",
"235 468 OFFCURVE",
"177 432 OFFCURVE",
"142 376 CURVE",
"142 457 LINE",
"68 457 LINE",
"68 0 LINE",
"142 0 LINE",
"142 263 LINE SMOOTH",
"142 350 OFFCURVE",
"214 405 OFFCURVE",
"277 405 CURVE SMOOTH",
"324 405 OFFCURVE",
"361 371 OFFCURVE",
"361 275 CURVE SMOOTH",
"361 45 LINE SMOOTH",
"361 -58 OFFCURVE",
"329 -109 OFFCURVE",
"264 -109 CURVE SMOOTH",
"207 -109 OFFCURVE",
"207 -77 OFFCURVE",
"199 -75 CURVE",
"165 -142 LINE",
"194 -165 OFFCURVE",
"227 -176 OFFCURVE",
"262 -176 CURVE SMOOTH"
);
}
);
width = 500;
}
);
unicode = 014B;
},
{
glyphname = o;
layers = (
{
anchors = (
{
name = bottom;
position = "{250, 0}";
},
{
name = center;
position = "{250, 229}";
},
{
name = ogonek;
position = "{286, 10}";
},
{
name = top;
position = "{250, 457}";
},
{
name = topright;
position = "{359, 436}";
}
);
background = {
paths = (
{
closed = 1;
nodes = (
"142 0 LINE",
"142 263 LINE SMOOTH",
"142 350 OFFCURVE",
"216 405 OFFCURVE",
"277 405 CURVE SMOOTH",
"324 405 OFFCURVE",
"361 371 OFFCURVE",
"361 275 CURVE SMOOTH",
"361 0 LINE",
"431 0 LINE",
"431 277 LINE SMOOTH",
"431 415 OFFCURVE",
"372 468 OFFCURVE",
"297 468 CURVE SMOOTH",
"235 468 OFFCURVE",
"177 432 OFFCURVE",
"142 376 CURVE",
"142 457 LINE",
"72 457 LINE",
"72 0 LINE"
);
},
{
closed = 1;
nodes = (
"131 467 OFFCURVE",
"40 375 OFFCURVE",
"40 227 CURVE SMOOTH",
"40 79 OFFCURVE",
"138 -12 OFFCURVE",
"246 -12 CURVE SMOOTH",
"359 -12 OFFCURVE",
"460 91 OFFCURVE",
"460 229 CURVE SMOOTH",
"460 366 OFFCURVE",
"363 467 OFFCURVE",
"247 467 CURVE SMOOTH"
);
},
{
closed = 1;
nodes = (
"327 405 OFFCURVE",
"384 332 OFFCURVE",
"384 225 CURVE SMOOTH",
"384 116 OFFCURVE",
"321 49 OFFCURVE",
"249 49 CURVE SMOOTH",
"178 49 OFFCURVE",
"112 114 OFFCURVE",
"112 229 CURVE SMOOTH",
"112 342 OFFCURVE",
"172 405 OFFCURVE",
"247 405 CURVE SMOOTH"
);
}
);
};
guideLines = (
{
position = "{251, 229.5}";
}
);
layerId = "051EFAE4-8BBE-4FBB-A016-4335C3E52F59";
paths = (
{
closed = 1;
nodes = (
"374 -8 OFFCURVE",
"461 90 OFFCURVE",
"461 229 CURVE SMOOTH",
"461 368 OFFCURVE",
"374 467 OFFCURVE",
"250 467 CURVE",
"126 467 OFFCURVE",
"39 368 OFFCURVE",
"39 229 CURVE SMOOTH",
"39 90 OFFCURVE",
"126 -8 OFFCURVE",
"250 -8 CURVE"
);
},
{
closed = 1;
nodes = (
"171 52 OFFCURVE",
"115 126 OFFCURVE",
"115 230 CURVE SMOOTH",
"115 334 OFFCURVE",
"171 407 OFFCURVE",
"250 407 CURVE",
"329 407 OFFCURVE",
"385 334 OFFCURVE",
"385 230 CURVE SMOOTH",
"385 126 OFFCURVE",
"329 52 OFFCURVE",
"250 52 CURVE"
);
}
);
width = 500;
},
{
anchors = (
{
name = bottom;
position = "{250, 0}";
},
{
name = center;
position = "{250, 229}";
},
{
name = ogonek;
position = "{313, 21}";
},
{
name = top;
position = "{250, 457}";
},
{
name = topright;
position = "{362, 433}";
}
);
associatedMasterId = "051EFAE4-8BBE-4FBB-A016-4335C3E52F59";
background = {
paths = (
{
closed = 1;
nodes = (
"142 0 LINE",
"142 263 LINE SMOOTH",
"142 350 OFFCURVE",
"216 405 OFFCURVE",
"277 405 CURVE SMOOTH",
"324 405 OFFCURVE",
"361 371 OFFCURVE",
"361 275 CURVE SMOOTH",
"361 0 LINE",
"431 0 LINE",
"431 277 LINE SMOOTH",
"431 415 OFFCURVE",
"372 468 OFFCURVE",
"297 468 CURVE SMOOTH",
"235 468 OFFCURVE",
"177 432 OFFCURVE",
"142 376 CURVE",
"142 457 LINE",
"72 457 LINE",
"72 0 LINE"
);
}
);
};
layerId = "F03BECE8-CBA2-48C7-9E40-72BE14753F6D";
name = "Regular Aug 16 16, 18:17";
paths = (
{
closed = 1;
nodes = (
"369 -12 OFFCURVE",
"460 80 OFFCURVE",
"460 228 CURVE SMOOTH",
"460 376 OFFCURVE",
"362 467 OFFCURVE",
"254 467 CURVE SMOOTH",
"141 467 OFFCURVE",
"40 364 OFFCURVE",
"40 226 CURVE SMOOTH",
"40 89 OFFCURVE",
"137 -12 OFFCURVE",
"253 -12 CURVE SMOOTH"
);
},
{
closed = 1;
nodes = (
"173 50 OFFCURVE",
"116 123 OFFCURVE",
"116 230 CURVE SMOOTH",
"116 339 OFFCURVE",
"179 406 OFFCURVE",
"251 406 CURVE SMOOTH",
"322 406 OFFCURVE",
"388 341 OFFCURVE",
"388 226 CURVE SMOOTH",
"388 113 OFFCURVE",
"328 50 OFFCURVE",
"253 50 CURVE SMOOTH"
);
}
);
width = 500;
}
);
unicode = 006F;
},
{
glyphname = oslash;
layers = (
{
background = {
paths = (
{
closed = 1;
nodes = (
"162 10 LINE",
"191 -5 OFFCURVE",
"222 -12 OFFCURVE",
"255 -12 CURVE SMOOTH",
"367 -12 OFFCURVE",
"460 78 OFFCURVE",
"460 233 CURVE SMOOTH",
"460 310 OFFCURVE",
"435 372 OFFCURVE",
"386 417 CURVE",
"425 490 LINE",
"372 519 LINE",
"335 450 LINE",
"309 461 OFFCURVE",
"283 467 OFFCURVE",
"257 467 CURVE SMOOTH",
"140 467 OFFCURVE",
"40 364 OFFCURVE",
"40 221 CURVE SMOOTH",
"40 150 OFFCURVE",
"65 91 OFFCURVE",
"114 44 CURVE",
"70 -37 LINE",
"122 -64 LINE"
);
},
{
closed = 1;
nodes = (
"127 143 OFFCURVE",
"116 184 OFFCURVE",
"116 235 CURVE SMOOTH",
"116 336 OFFCURVE",
"180 406 OFFCURVE",
"252 406 CURVE SMOOTH",
"270 406 OFFCURVE",
"287 402 OFFCURVE",
"304 393 CURVE",
"150 110 LINE"
);
},
{
closed = 1;
nodes = (
"234 50 OFFCURVE",
"213 56 OFFCURVE",
"194 67 CURVE",
"351 354 LINE",
"376 321 OFFCURVE",
"388 278 OFFCURVE",
"388 223 CURVE SMOOTH",
"388 116 OFFCURVE",
"327 50 OFFCURVE",
"255 50 CURVE SMOOTH"
);
}
);
};
components = (
{
name = o;
}
);
layerId = "051EFAE4-8BBE-4FBB-A016-4335C3E52F59";
paths = (
{
closed = 1;
nodes = (
"426 491 LINE",
"372 519 LINE",
"70 -36 LINE",
"121 -63 LINE"
);
}
);
width = 500;
}
);
unicode = 00F8;
},
{
glyphname = oe;
layers = (
{
layerId = "051EFAE4-8BBE-4FBB-A016-4335C3E52F59";
paths = (
{
closed = 1;
nodes = (
"418 -12 OFFCURVE",
"459 6 OFFCURVE",
"494 42 CURVE",
"459 85 LINE",
"436 60 OFFCURVE",
"404 47 OFFCURVE",
"363 47 CURVE SMOOTH",
"299 47 OFFCURVE",
"265 78 OFFCURVE",
"262 221 CURVE",
"490 221 LINE",
"490 283 LINE SMOOTH",
"490 404 OFFCURVE",
"440 466 OFFCURVE",
"356 466 CURVE SMOOTH",
"315 466 OFFCURVE",
"281 451 OFFCURVE",
"255 420 CURVE",
"232 451 OFFCURVE",
"201 466 OFFCURVE",
"161 466 CURVE SMOOTH",
"81 466 OFFCURVE",
"6 404 OFFCURVE",
"6 228 CURVE SMOOTH",
"6 36 OFFCURVE",
"88 -11 OFFCURVE",
"154 -11 CURVE SMOOTH",
"191 -11 OFFCURVE",
"224 2 OFFCURVE",
"253 29 CURVE",
"286 2 OFFCURVE",
"326 -12 OFFCURVE",
"372 -12 CURVE SMOOTH"
);
},
{
closed = 1;
nodes = (
"103 50 OFFCURVE",
"66 111 OFFCURVE",
"66 239 CURVE SMOOTH",
"66 361 OFFCURVE",
"114 406 OFFCURVE",
"161 406 CURVE SMOOTH",
"188 406 OFFCURVE",
"209 387 OFFCURVE",
"209 362 CURVE SMOOTH",
"209 353 OFFCURVE",
"200 315 OFFCURVE",
"200 238 CURVE SMOOTH",
"200 202 OFFCURVE",
"202 159 OFFCURVE",
"210 112 CURVE SMOOTH",
"212 99 OFFCURVE",
"213 91 OFFCURVE",
"213 89 CURVE SMOOTH",
"213 65 OFFCURVE",
"190 50 OFFCURVE",
"163 50 CURVE SMOOTH"
);
},
{
closed = 1;
nodes = (
"263 364 OFFCURVE",
"298 411 OFFCURVE",
"350 411 CURVE SMOOTH",
"408 411 OFFCURVE",
"431 373 OFFCURVE",
"431 278 CURVE",
"263 278 LINE"
);
}
);
width = 500;
}
);
unicode = 0153;
},
{
glyphname = p;
layers = (
{
anchors = (
{
name = bottom;
position = "{270, 0}";
},
{
name = top;
position = "{270, 457}";
}
);
layerId = "051EFAE4-8BBE-4FBB-A016-4335C3E52F59";
paths = (
{
closed = 1;
nodes = (
"134 -167 LINE",
"134 60 LINE",
"165 15 OFFCURVE",
"215 -12 OFFCURVE",
"270 -12 CURVE SMOOTH",
"367 -12 OFFCURVE",
"463 71 OFFCURVE",
"463 232 CURVE SMOOTH",
"463 391 OFFCURVE",
"373 467 OFFCURVE",
"272 467 CURVE SMOOTH",
"208 467 OFFCURVE",
"154 436 OFFCURVE",
"133 367 CURVE",
"133 457 LINE",
"60 457 LINE",
"60 -167 LINE"
);
},
{
closed = 1;
nodes = (
"184 52 OFFCURVE",
"136 105 OFFCURVE",
"133 213 CURVE",
"133 355 OFFCURVE",
"195 409 OFFCURVE",
"269 405 CURVE SMOOTH",
"345 401 OFFCURVE",
"388 338 OFFCURVE",
"388 229 CURVE SMOOTH",
"388 92 OFFCURVE",
"322 52 OFFCURVE",
"258 52 CURVE SMOOTH"
);
}
);
width = 500;
}
);
unicode = 0070;
},
{
glyphname = thorn;
layers = (
{
hints = (
{
origin = "{0, 14}";
type = Corner;
name = _corner.rightSpur;
}
);
layerId = "051EFAE4-8BBE-4FBB-A016-4335C3E52F59";
paths = (
{
closed = 1;
nodes = (
"134 -167 LINE",
"134 60 LINE",
"165 15 OFFCURVE",
"215 -12 OFFCURVE",
"270 -12 CURVE SMOOTH",
"367 -12 OFFCURVE",
"463 71 OFFCURVE",
"463 232 CURVE SMOOTH",
"463 391 OFFCURVE",
"373 467 OFFCURVE",
"272 467 CURVE SMOOTH",
"208 467 OFFCURVE",
"154 436 OFFCURVE",
"133 367 CURVE",
"133 665 LINE",
"60 665 LINE",
"60 -167 LINE"
);
},
{
closed = 1;
nodes = (
"184 52 OFFCURVE",
"136 105 OFFCURVE",
"133 213 CURVE",
"133 355 OFFCURVE",
"195 409 OFFCURVE",
"269 405 CURVE SMOOTH",
"345 401 OFFCURVE",
"388 338 OFFCURVE",
"388 229 CURVE SMOOTH",
"388 92 OFFCURVE",
"322 52 OFFCURVE",
"258 52 CURVE SMOOTH"
);
}
);
width = 500;
}
);
unicode = 00FE;
},
{
glyphname = q;
layers = (
{
layerId = "051EFAE4-8BBE-4FBB-A016-4335C3E52F59";
paths = (
{
closed = 1;
nodes = (
"442 -167 LINE",
"442 457 LINE",
"374 457 LINE",
"374 390 LINE",
"351 439 OFFCURVE",
"307 469 OFFCURVE",
"243 469 CURVE SMOOTH",
"134 469 OFFCURVE",
"42 381 OFFCURVE",
"42 230 CURVE SMOOTH",
"42 87 OFFCURVE",
"125 -10 OFFCURVE",
"230 -10 CURVE SMOOTH",
"290 -10 OFFCURVE",
"342 22 OFFCURVE",
"370 73 CURVE",
"370 -167 LINE"
);
},
{
closed = 1;
nodes = (
"165 53 OFFCURVE",
"115 122 OFFCURVE",
"115 233 CURVE SMOOTH",
"115 355 OFFCURVE",
"175 410 OFFCURVE",
"251 410 CURVE SMOOTH",
"319 410 OFFCURVE",
"368 366 OFFCURVE",
"368 241 CURVE SMOOTH",
"368 107 OFFCURVE",
"312 53 OFFCURVE",
"243 53 CURVE SMOOTH"
);
}
);
width = 500;
}
);
unicode = 0071;
},
{
glyphname = r;
layers = (
{
anchors = (
{
name = bottom;
position = "{270, 0}";
},
{
name = top;
position = "{290, 457}";
}
);
hints = (
{
origin = "{0, 7}";
type = Corner;
name = _corner.rightSpur;
}
);
layerId = "051EFAE4-8BBE-4FBB-A016-4335C3E52F59";
paths = (
{
closed = 1;
nodes = (
"192 -1 LINE",
"192 242 LINE SMOOTH",
"192 357 OFFCURVE",
"265 406 OFFCURVE",
"332 406 CURVE SMOOTH",
"366 406 OFFCURVE",
"387 397 OFFCURVE",
"426 361 CURVE",
"458 418 LINE",
"426 451 OFFCURVE",
"385 468 OFFCURVE",
"337 468 CURVE SMOOTH",
"266 468 OFFCURVE",
"198 422 OFFCURVE",
"182 339 CURVE",
"191 324 LINE",
"194 457 LINE",
"119 457 LINE",
"119 -1 LINE"
);
}
);
width = 500;
}
);
unicode = 0072;
},
{
glyphname = rhookturned;
layers = (
{
background = {
hints = (
{
origin = "{0, 33}";
type = Corner;
name = _corner.topSpur;
}
);
paths = (
{
closed = 1;
nodes = (
"469 -111 OFFCURVE",
"454 -117 OFFCURVE",
"434 -117 CURVE SMOOTH",
"390 -117 OFFCURVE",
"381 -80 OFFCURVE",
"381 -19 CURVE SMOOTH",
"381 467 LINE",
"268 467 LINE",
"268 223 LINE SMOOTH",
"268 138 OFFCURVE",
"213 85 OFFCURVE",
"142 85 CURVE SMOOTH",
"119 85 OFFCURVE",
"100 91 OFFCURVE",
"82 105 CURVE SMOOTH",
"65 119 OFFCURVE",
"68 134 OFFCURVE",
"64 144 CURVE",
"55 149 LINE",
"1 41 LINE",
"38 6 OFFCURVE",
"87 -10 OFFCURVE",
"131 -10 CURVE SMOOTH",
"192 -10 OFFCURVE",
"244 21 OFFCURVE",
"268 71 CURVE",
"268 -18 LINE SMOOTH",
"268 -147 OFFCURVE",
"325 -204 OFFCURVE",
"415 -204 CURVE SMOOTH",
"450 -204 OFFCURVE",
"478 -193 OFFCURVE",
"501 -176 CURVE",
"480 -101 LINE"
);
}
);
};
guideLines = (
{
angle = 90;
position = "{268, 337}";
}
);
hints = (
{
origin = "{0, 21}";
type = Corner;
name = _corner.rightSpur;
}
);
layerId = "051EFAE4-8BBE-4FBB-A016-4335C3E52F59";
paths = (
{
closed = 1;
nodes = (
"436 -177 OFFCURVE",
"466 -163 OFFCURVE",
"488 -139 CURVE",
"463 -84 LINE",
"456 -89 OFFCURVE",
"458 -98 OFFCURVE",
"448 -104 CURVE SMOOTH",
"433 -113 OFFCURVE",
"420 -115 OFFCURVE",
"407 -115 CURVE SMOOTH",
"371 -115 OFFCURVE",
"341 -89 OFFCURVE",
"341 -41 CURVE SMOOTH",
"341 458 LINE",
"268 458 LINE",
"268 215 LINE SMOOTH",
"268 100 OFFCURVE",
"200 51 OFFCURVE",
"138 51 CURVE SMOOTH",
"103 51 OFFCURVE",
"83 63 OFFCURVE",
"55 96 CURVE",
"25 39 LINE",
"59 6 OFFCURVE",
"90 -11 OFFCURVE",
"133 -11 CURVE SMOOTH",
"190 -11 OFFCURVE",
"245 23 OFFCURVE",
"269 86 CURVE",
"268 -41 LINE SMOOTH",
"267 -147 OFFCURVE",
"338 -177 OFFCURVE",
"396 -177 CURVE SMOOTH"
);
}
);
width = 500;
}
);
unicode = 027B;
},
{
glyphname = rstroke;
layers = (
{
background = {
components = (
{
name = strokeshortcomb;
transform = "{1, 0, 0, 1, -96, -114}";
}
);
};
components = (
{
name = r;
}
);
layerId = "051EFAE4-8BBE-4FBB-A016-4335C3E52F59";
paths = (
{
closed = 1;
nodes = (
"305 172 LINE",
"305 229 LINE",
"35 229 LINE",
"35 172 LINE"
);
}
);
width = 500;
}
);
unicode = 024D;
},
{
glyphname = s;
layers = (
{
hints = (
{
origin = "{0, 14}";
type = Corner;
name = _corner.rightSpur;
},
{
origin = "{0, 33}";
type = Corner;
name = _corner.rightSpur;
}
);
layerId = "051EFAE4-8BBE-4FBB-A016-4335C3E52F59";
paths = (
{
closed = 1;
nodes = (
"379 -10 OFFCURVE",
"440 56 OFFCURVE",
"440 133 CURVE SMOOTH",
"440 198 OFFCURVE",
"397 234 OFFCURVE",
"283 269 CURVE SMOOTH",
"179 299 OFFCURVE",
"154 326 OFFCURVE",
"154 357 CURVE SMOOTH",
"154 395 OFFCURVE",
"198 414 OFFCURVE",
"252 414 CURVE SMOOTH",
"302 414 OFFCURVE",
"361 390 OFFCURVE",
"390 345 CURVE",
"432 396 LINE",
"387 444 OFFCURVE",
"335 468 OFFCURVE",
"250 468 CURVE SMOOTH",
"139 468 OFFCURVE",
"82 422 OFFCURVE",
"82 353 CURVE SMOOTH",
"82 285 OFFCURVE",
"149 241 OFFCURVE",
"254 211 CURVE SMOOTH",
"339 183 OFFCURVE",
"369 162 OFFCURVE",
"369 123 CURVE SMOOTH",
"369 78 OFFCURVE",
"326 50 OFFCURVE",
"253 50 CURVE SMOOTH",
"168 50 OFFCURVE",
"133 87 OFFCURVE",
"98 131 CURVE",
"57 62 LINE",
"109 14 OFFCURVE",
"175 -10 OFFCURVE",
"251 -10 CURVE SMOOTH"
);
}
);
width = 500;
},
{
associatedMasterId = "051EFAE4-8BBE-4FBB-A016-4335C3E52F59";
layerId = "D7121672-A6C5-4E81-B937-575339538646";
name = LEGACY;
paths = (
{
closed = 1;
nodes = (
"432 396 LINE",
"389 444 OFFCURVE",
"332 468 OFFCURVE",
"262 468 CURVE SMOOTH",
"160 468 OFFCURVE",
"86 408 OFFCURVE",
"86 345 CURVE SMOOTH",
"86 316 OFFCURVE",
"98 291 OFFCURVE",
"115 271 CURVE SMOOTH",
"132 252 OFFCURVE",
"148 241 OFFCURVE",
"196 222 CURVE",
"254 204 LINE SMOOTH",
"339 179 OFFCURVE",
"366 158 OFFCURVE",
"366 123 CURVE SMOOTH",
"366 78 OFFCURVE",
"306 50 OFFCURVE",
"252 50 CURVE SMOOTH",
"227 50 OFFCURVE",
"200 54 OFFCURVE",
"180 63 CURVE SMOOTH",
"91 101 OFFCURVE",
"107 125 OFFCURVE",
"98 134 CURVE",
"57 62 LINE",
"109 14 OFFCURVE",
"173 -10 OFFCURVE",
"250 -10 CURVE SMOOTH",
"367 -10 OFFCURVE",
"440 56 OFFCURVE",
"440 137 CURVE SMOOTH",
"440 198 OFFCURVE",
"398 238 OFFCURVE",
"283 269 CURVE",
"184 298 OFFCURVE",
"160 316 OFFCURVE",
"160 347 CURVE SMOOTH",
"160 390 OFFCURVE",
"206 413 OFFCURVE",
"257 413 CURVE SMOOTH",
"313 413 OFFCURVE",
"359 382 OFFCURVE",
"383 351 CURVE SMOOTH",
"386 347 OFFCURVE",
"383 334 OFFCURVE",
"390 333 CURVE",
"432 396 LINE"
);
}
);
width = 500;
},
{
associatedMasterId = "051EFAE4-8BBE-4FBB-A016-4335C3E52F59";
layerId = "C97C638D-4335-417F-8144-A1E19DAD1BB3";
name = twist;
paths = (
{
closed = 1;
nodes = (
"367 -10 OFFCURVE",
"440 56 OFFCURVE",
"440 137 CURVE SMOOTH",
"440 198 OFFCURVE",
"398 238 OFFCURVE",
"283 269 CURVE",
"184 298 OFFCURVE",
"160 316 OFFCURVE",
"160 347 CURVE SMOOTH",
"160 390 OFFCURVE",
"206 413 OFFCURVE",
"257 413 CURVE SMOOTH",
"339 413 OFFCURVE",
"354 351 OFFCURVE",
"390 333 CURVE",
"432 396 LINE",
"389 444 OFFCURVE",
"332 468 OFFCURVE",
"262 468 CURVE SMOOTH",
"140 468 OFFCURVE",
"86 408 OFFCURVE",
"86 345 CURVE SMOOTH",
"86 262 OFFCURVE",
"153 236 OFFCURVE",
"254 204 CURVE SMOOTH",
"339 179 OFFCURVE",
"366 158 OFFCURVE",
"366 123 CURVE SMOOTH",
"366 78 OFFCURVE",
"306 50 OFFCURVE",
"252 50 CURVE SMOOTH",
"159 50 OFFCURVE",
"150 82 OFFCURVE",
"98 134 CURVE",
"57 62 LINE",
"109 14 OFFCURVE",
"173 -10 OFFCURVE",
"250 -10 CURVE SMOOTH"
);
}
);
width = 500;
},
{
associatedMasterId = "051EFAE4-8BBE-4FBB-A016-4335C3E52F59";
layerId = "6903EF16-8A0D-499A-8393-4BC40D2D4D15";
name = flare;
paths = (
{
closed = 1;
nodes = (
"367 -10 OFFCURVE",
"440 56 OFFCURVE",
"440 137 CURVE SMOOTH",
"440 198 OFFCURVE",
"398 238 OFFCURVE",
"283 269 CURVE",
"184 298 OFFCURVE",
"160 316 OFFCURVE",
"160 347 CURVE SMOOTH",
"160 390 OFFCURVE",
"206 413 OFFCURVE",
"257 413 CURVE SMOOTH",
"339 413 OFFCURVE",
"383 365 OFFCURVE",
"388 333 CURVE",
"432 396 LINE",
"389 444 OFFCURVE",
"332 468 OFFCURVE",
"262 468 CURVE SMOOTH",
"140 468 OFFCURVE",
"86 408 OFFCURVE",
"86 345 CURVE SMOOTH",
"86 262 OFFCURVE",
"153 236 OFFCURVE",
"254 204 CURVE SMOOTH",
"339 179 OFFCURVE",
"366 158 OFFCURVE",
"366 123 CURVE SMOOTH",
"366 78 OFFCURVE",
"306 50 OFFCURVE",
"252 50 CURVE SMOOTH",
"159 50 OFFCURVE",
"120 91 OFFCURVE",
"99 136 CURVE",
"57 62 LINE",
"109 14 OFFCURVE",
"173 -10 OFFCURVE",
"250 -10 CURVE SMOOTH"
);
}
);
width = 500;
}
);
unicode = 0073;
},
{
glyphname = germandbls;
layers = (
{
layerId = "051EFAE4-8BBE-4FBB-A016-4335C3E52F59";
paths = (
{
closed = 1;
nodes = (
"393 -10 OFFCURVE",
"464 75 OFFCURVE",
"464 181 CURVE SMOOTH",
"464 265 OFFCURVE",
"417 335 OFFCURVE",
"341 359 CURVE",
"390 384 OFFCURVE",
"420 436 OFFCURVE",
"420 493 CURVE SMOOTH",
"420 586 OFFCURVE",
"338 669 OFFCURVE",
"231 669 CURVE SMOOTH",
"127 669 OFFCURVE",
"55 588 OFFCURVE",
"55 423 CURVE SMOOTH",
"55 0 LINE",
"123 0 LINE",
"123 425 LINE SMOOTH",
"123 536 OFFCURVE",
"165 611 OFFCURVE",
"241 611 CURVE SMOOTH",
"304 611 OFFCURVE",
"352 558 OFFCURVE",
"352 490 CURVE SMOOTH",
"352 417 OFFCURVE",
"299 380 OFFCURVE",
"250 380 CURVE SMOOTH",
"214 380 LINE",
"214 323 LINE",
"244 323 LINE SMOOTH",
"351 323 OFFCURVE",
"398 266 OFFCURVE",
"398 193 CURVE SMOOTH",
"398 113 OFFCURVE",
"342 53 OFFCURVE",
"285 53 CURVE SMOOTH",
"256 53 OFFCURVE",
"232 61 OFFCURVE",
"212 77 CURVE",
"177 21 LINE",
"208 0 OFFCURVE",
"242 -10 OFFCURVE",
"281 -10 CURVE SMOOTH"
);
}
);
width = 500;
}
);
unicode = 00DF;
},
{
glyphname = t;
layers = (
{
anchors = (
{
name = bottom;
position = "{250, 0}";
},
{
name = center;
position = "{213, 312}";
},
{
name = top;
position = "{235, 583}";
},
{
name = topright;
position = "{310, 457}";
}
);
background = {
paths = (
{
closed = 1;
nodes = (
"70 457 LINE",
"70 398 LINE",
"399 398 LINE",
"399 457 LINE"
);
}
);
};
hints = (
{
origin = "{0, 12}";
type = Corner;
name = _corner.rightSpur;
}
);
layerId = "051EFAE4-8BBE-4FBB-A016-4335C3E52F59";
paths = (
{
closed = 1;
nodes = (
"351 -7 OFFCURVE",
"398 8 OFFCURVE",
"444 42 CURVE",
"422 99 LINE",
"385 72 OFFCURVE",
"354 53 OFFCURVE",
"310 53 CURVE SMOOTH",
"249 53 OFFCURVE",
"227 90 OFFCURVE",
"233 243 CURVE SMOOTH",
"240 408 LINE",
"237 426 LINE",
"250 583 LINE",
"174 574 LINE",
"162 248 LINE SMOOTH",
"156 72 OFFCURVE",
"181 -7 OFFCURVE",
"299 -7 CURVE SMOOTH"
);
},
{
closed = 1;
nodes = (
"399 398 LINE",
"399 457 LINE",
"70 457 LINE",
"70 398 LINE"
);
}
);
width = 500;
},
{
anchors = (
{
name = bottom;
position = "{250, 0}";
},
{
name = center;
position = "{250, 229}";
},
{
name = top;
position = "{241, 587}";
},
{
name = topright;
position = "{480, 457}";
}
);
associatedMasterId = "051EFAE4-8BBE-4FBB-A016-4335C3E52F59";
background = {
paths = (
{
closed = 1;
nodes = (
"70 457 LINE",
"70 398 LINE",
"399 398 LINE",
"399 457 LINE"
);
}
);
};
guideLines = (
{
angle = 90;
position = "{188, 544}";
},
{
angle = 90;
position = "{264, 544}";
}
);
hints = (
{
origin = "{0, 10}";
type = Corner;
name = _corner.rightSpur;
}
);
layerId = "D98F9A90-6838-4366-8370-5142877D3FF6";
name = "1";
paths = (
{
closed = 1;
nodes = (
"351 -7 OFFCURVE",
"398 8 OFFCURVE",
"444 42 CURVE",
"422 99 LINE",
"385 72 OFFCURVE",
"351 58 OFFCURVE",
"320 58 CURVE SMOOTH",
"253 58 OFFCURVE",
"264 145 OFFCURVE",
"264 292 CURVE SMOOTH",
"264 592 LINE",
"188 579 LINE",
"188 288 LINE SMOOTH",
"188 73 OFFCURVE",
"207 -7 OFFCURVE",
"302 -7 CURVE SMOOTH"
);
},
{
closed = 1;
nodes = (
"389 398 LINE",
"399 457 LINE",
"70 457 LINE",
"60 398 LINE"
);
}
);
width = 500;
},
{
anchors = (
{
name = bottom;
position = "{250, 0}";
},
{
name = center;
position = "{213, 312}";
},
{
name = top;
position = "{241, 587}";
},
{
name = topright;
position = "{310, 457}";
}
);
associatedMasterId = "051EFAE4-8BBE-4FBB-A016-4335C3E52F59";
background = {
paths = (
{
closed = 1;
nodes = (
"70 457 LINE",
"70 398 LINE",
"399 398 LINE",
"399 457 LINE"
);
},
{
closed = 1;
nodes = (
"195 457 LINE",
"70 457 LINE",
"70 398 LINE",
"192 398 LINE"
);
},
{
closed = 1;
nodes = (
"234 398 LINE",
"399 398 LINE",
"399 457 LINE",
"234 457 LINE"
);
},
{
closed = 1;
nodes = (
"247 442 LINE",
"261 565 LINE SMOOTH",
"262 570 OFFCURVE",
"267 580 OFFCURVE",
"267 592 CURVE",
"188 579 LINE",
"179 442 LINE",
"179 418 LINE",
"169 309 OFFCURVE",
"167 227 OFFCURVE",
"167 176 CURVE",
"163 45 OFFCURVE",
"206 -9 OFFCURVE",
"302 -9 CURVE SMOOTH",
"351 -9 OFFCURVE",
"398 8 OFFCURVE",
"444 42 CURVE",
"422 99 LINE",
"385 72 OFFCURVE",
"351 58 OFFCURVE",
"320 58 CURVE SMOOTH",
"247 58 OFFCURVE",
"240 105 OFFCURVE",
"240 231 CURVE SMOOTH",
"240 288 OFFCURVE",
"244 349 OFFCURVE",
"251 414 CURVE"
);
}
);
};
hints = (
{
origin = "{0, 12}";
type = Corner;
name = _corner.rightSpur;
}
);
layerId = "956E15E9-CB36-4BA1-985E-F06EE8117D89";
name = "2";
paths = (
{
closed = 1;
nodes = (
"351 -7 OFFCURVE",
"398 8 OFFCURVE",
"444 42 CURVE",
"422 99 LINE",
"385 72 OFFCURVE",
"354 53 OFFCURVE",
"310 53 CURVE SMOOTH",
"253 53 OFFCURVE",
"225 84 OFFCURVE",
"234 243 CURVE SMOOTH",
"244 407 LINE",
"241 407 LINE",
"263 592 LINE",
"182 579 LINE",
"162 248 LINE SMOOTH",
"152 72 OFFCURVE",
"181 -7 OFFCURVE",
"299 -7 CURVE SMOOTH"
);
},
{
closed = 1;
nodes = (
"399 398 LINE",
"399 457 LINE",
"70 457 LINE",
"70 398 LINE"
);
}
);
width = 500;
},
{
anchors = (
{
name = bottom;
position = "{250, 0}";
},
{
name = center;
position = "{213, 312}";
},
{
name = top;
position = "{241, 587}";
},
{
name = topright;
position = "{310, 457}";
}
);
associatedMasterId = "051EFAE4-8BBE-4FBB-A016-4335C3E52F59";
background = {
paths = (
{
closed = 1;
nodes = (
"70 457 LINE",
"70 398 LINE",
"399 398 LINE",
"399 457 LINE"
);
}
);
};
hints = (
{
origin = "{0, 12}";
type = Corner;
name = _corner.rightSpur;
}
);
layerId = "0BB12590-F72A-46D0-9002-7CBD5885EE16";
name = angle;
paths = (
{
closed = 1;
nodes = (
"351 -7 OFFCURVE",
"398 8 OFFCURVE",
"444 42 CURVE",
"422 99 LINE",
"385 72 OFFCURVE",
"351 53 OFFCURVE",
"312 53 CURVE SMOOTH",
"250 53 OFFCURVE",
"225 84 OFFCURVE",
"237 232 CURVE SMOOTH",
"250 398 LINE",
"255 439 LINE",
"255 592 LINE",
"182 579 LINE",
"182 438 LINE",
"177 398 LINE",
"163 218 LINE SMOOTH",
"152 72 OFFCURVE",
"181 -7 OFFCURVE",
"299 -7 CURVE SMOOTH"
);
},
{
closed = 1;
nodes = (
"389 398 LINE",
"399 457 LINE",
"70 457 LINE",
"60 398 LINE"
);
}
);
width = 500;
}
);
unicode = 0074;
},
{
glyphname = tbar;
layers = (
{
components = (
{
name = t;
}
);
guideLines = (
{
angle = 90;
position = "{61, 360}";
},
{
angle = 90;
position = "{390, 360}";
}
);
layerId = "051EFAE4-8BBE-4FBB-A016-4335C3E52F59";
paths = (
{
closed = 1;
nodes = (
"390 220 LINE",
"390 277 LINE",
"61 277 LINE",
"61 220 LINE"
);
}
);
width = 500;
}
);
unicode = 0167;
},
{
glyphname = u;
layers = (
{
anchors = (
{
name = bottom;
position = "{231, 0}";
},
{
name = ogonek;
position = "{378, 0}";
},
{
name = top;
position = "{250, 457}";
},
{
name = topright;
position = "{432, 457}";
}
);
layerId = "051EFAE4-8BBE-4FBB-A016-4335C3E52F59";
paths = (
{
closed = 1;
nodes = (
"281 -11 OFFCURVE",
"334 19 OFFCURVE",
"363 70 CURVE",
"363 47 OFFCURVE",
"363 23 OFFCURVE",
"373 0 CURVE",
"442 0 LINE",
"432 24 OFFCURVE",
"432 47 OFFCURVE",
"432 71 CURVE",
"432 457 LINE",
"362 457 LINE",
"362 205 LINE SMOOTH",
"362 96 OFFCURVE",
"303 47 OFFCURVE",
"239 47 CURVE SMOOTH",
"182 47 OFFCURVE",
"135 86 OFFCURVE",
"135 202 CURVE SMOOTH",
"135 457 LINE",
"65 457 LINE",
"64 202 LINE SMOOTH",
"63 54 OFFCURVE",
"130 -11 OFFCURVE",
"221 -11 CURVE SMOOTH"
);
}
);
width = 500;
}
);
unicode = 0075;
},
{
glyphname = v;
layers = (
{
anchors = (
{
name = bottom;
position = "{250, 0}";
},
{
name = top;
position = "{250, 457}";
}
);
layerId = "051EFAE4-8BBE-4FBB-A016-4335C3E52F59";
paths = (
{
closed = 1;
nodes = (
"277 0 LINE",
"388 257 LINE SMOOTH",
"421 334 OFFCURVE",
"444 401 OFFCURVE",
"455 457 CURVE",
"387 457 LINE",
"378 404 OFFCURVE",
"359 341 OFFCURVE",
"327 268 CURVE SMOOTH",
"246 82 LINE",
"260 82 LINE",
"112 457 LINE",
"40 457 LINE",
"221 0 LINE"
);
}
);
width = 500;
}
);
unicode = 0076;
},
{
glyphname = w;
layers = (
{
anchors = (
{
name = bottom;
position = "{250, 0}";
},
{
name = top;
position = "{250, 457}";
}
);
layerId = "051EFAE4-8BBE-4FBB-A016-4335C3E52F59";
paths = (
{
closed = 1;
nodes = (
"173 -1 LINE",
"253 295 LINE",
"337 -1 LINE",
"405 -1 LINE",
"436 151 OFFCURVE",
"461 302 OFFCURVE",
"481 457 CURVE",
"414 457 LINE",
"414 442 LINE SMOOTH",
"414 376 OFFCURVE",
"407 327 OFFCURVE",
"372 91 CURVE",
"275 414 LINE",
"231 414 LINE",
"153 90 LINE",
"79 457 LINE",
"16 457 LINE",
"108 -1 LINE"
);
}
);
width = 500;
}
);
unicode = 0077;
},
{
glyphname = x;
layers = (
{
anchors = (
{
name = bottom;
position = "{250, 0}";
},
{
name = top;
position = "{250, 457}";
}
);
layerId = "051EFAE4-8BBE-4FBB-A016-4335C3E52F59";
paths = (
{
closed = 1;
nodes = (
"129 0 LINE",
"248 178 LINE",
"374 0 LINE",
"456 0 LINE",
"288 235 LINE",
"436 457 LINE",
"362 457 LINE",
"248 288 LINE",
"129 457 LINE",
"50 457 LINE",
"208 232 LINE",
"47 0 LINE"
);
}
);
width = 500;
}
);
unicode = 0078;
},
{
glyphname = y;
layers = (
{
anchors = (
{
name = bottom;
position = "{370, 0}";
},
{
name = top;
position = "{253, 457}";
}
);
background = {
paths = (
{
closed = 0;
nodes = (
"383 257 LINE SMOOTH",
"416 334 OFFCURVE",
"439 401 OFFCURVE",
"450 457 CURVE",
"385 457 LINE",
"376 404 OFFCURVE",
"357 341 OFFCURVE",
"325 268 CURVE SMOOTH"
);
}
);
};
hints = (
{
origin = "{0, 17}";
type = Corner;
name = _corner.rightSpur;
}
);
layerId = "051EFAE4-8BBE-4FBB-A016-4335C3E52F59";
paths = (
{
closed = 1;
nodes = (
"192 -174 OFFCURVE",
"243 -141 OFFCURVE",
"275 -52 CURVE",
"389 270 LINE SMOOTH",
"411 332 OFFCURVE",
"434 395 OFFCURVE",
"443 457 CURVE",
"371 457 LINE",
"364 396 OFFCURVE",
"343 336 OFFCURVE",
"323 275 CURVE SMOOTH",
"236 6 LINE SMOOTH",
"209 -76 OFFCURVE",
"185 -115 OFFCURVE",
"131 -115 CURVE SMOOTH",
"98 -115 OFFCURVE",
"75 -105 OFFCURVE",
"54 -85 CURVE",
"22 -135 LINE",
"49 -161 OFFCURVE",
"84 -174 OFFCURVE",
"127 -174 CURVE SMOOTH"
);
},
{
closed = 1;
nodes = (
"269 76 LINE",
"121 457 LINE",
"46 457 LINE",
"237 -13 LINE"
);
}
);
width = 500;
},
{
anchors = (
{
name = bottom;
position = "{370, 0}";
},
{
name = top;
position = "{250, 457}";
}
);
associatedMasterId = "051EFAE4-8BBE-4FBB-A016-4335C3E52F59";
layerId = "7DA108A7-2D58-432A-9CB1-A1A450EE9F36";
name = "2";
paths = (
{
closed = 1;
nodes = (
"192 -174 OFFCURVE",
"243 -141 OFFCURVE",
"275 -52 CURVE",
"463 457 LINE",
"388 457 LINE",
"267 91 LINE",
"125 457 LINE",
"46 457 LINE",
"231 2 LINE",
"192 -86 OFFCURVE",
"174 -115 OFFCURVE",
"121 -115 CURVE SMOOTH",
"88 -115 OFFCURVE",
"84 -82 OFFCURVE",
"60 -71 CURVE",
"22 -135 LINE",
"49 -161 OFFCURVE",
"84 -174 OFFCURVE",
"127 -174 CURVE SMOOTH"
);
}
);
width = 500;
}
);
unicode = 0079;
},
{
glyphname = z;
layers = (
{
anchors = (
{
name = bottom;
position = "{250, 0}";
},
{
name = top;
position = "{250, 457}";
}
);
hints = (
{
origin = "{0, 1}";
type = Corner;
name = _corner.topSpur;
}
);
layerId = "051EFAE4-8BBE-4FBB-A016-4335C3E52F59";
paths = (
{
closed = 1;
nodes = (
"450 0 LINE",
"450 62 LINE",
"148 62 LINE",
"426 408 LINE",
"426 457 LINE",
"71 457 LINE",
"71 394 LINE",
"333 394 LINE",
"50 49 LINE",
"50 0 LINE"
);
},
{
closed = 1;
nodes = (
"108 200 LINE",
"370 200 LINE",
"370 257 LINE",
"108 257 LINE"
);
}
);
width = 500;
}
);
unicode = 007A;
},
{
glyphname = r.serif;
layers = (
{
layerId = "051EFAE4-8BBE-4FBB-A016-4335C3E52F59";
paths = (
{
closed = 1;
nodes = (
"295 -1 LINE",
"295 54 LINE",
"199 54 LINE",
"199 230 LINE SMOOTH",
"199 323 OFFCURVE",
"269 405 OFFCURVE",
"336 405 CURVE SMOOTH",
"418 405 OFFCURVE",
"415 354 OFFCURVE",
"435 349 CURVE",
"469 418 LINE",
"436 451 OFFCURVE",
"397 467 OFFCURVE",
"351 467 CURVE SMOOTH",
"286 467 OFFCURVE",
"228 429 OFFCURVE",
"199 369 CURVE",
"202 457 LINE",
"65 457 LINE",
"65 399 LINE",
"128 399 LINE",
"128 54 LINE",
"63 54 LINE",
"63 -1 LINE"
);
}
);
width = 500;
}
);
},
{
glyphname = ordfeminine;
layers = (
{
layerId = "051EFAE4-8BBE-4FBB-A016-4335C3E52F59";
paths = (
{
closed = 1;
nodes = (
"258 258 OFFCURVE",
"303 269 OFFCURVE",
"329 317 CURVE",
"329 267 LINE",
"394 267 LINE",
"394 459 LINE SMOOTH",
"394 590 OFFCURVE",
"334 628 OFFCURVE",
"245 628 CURVE SMOOTH",
"198 628 OFFCURVE",
"155 613 OFFCURVE",
"122 579 CURVE",
"153 540 LINE",
"179 566 OFFCURVE",
"209 577 OFFCURVE",
"241 577 CURVE SMOOTH",
"307 577 OFFCURVE",
"338 548 OFFCURVE",
"338 448 CURVE SMOOTH",
"338 355 OFFCURVE",
"298 307 OFFCURVE",
"227 307 CURVE SMOOTH",
"190 307 OFFCURVE",
"162 321 OFFCURVE",
"162 362 CURVE SMOOTH",
"162 412 OFFCURVE",
"205 435 OFFCURVE",
"277 435 CURVE SMOOTH",
"299 435 OFFCURVE",
"327 433 OFFCURVE",
"350 430 CURVE",
"349 477 LINE",
"321 481 OFFCURVE",
"295 482 OFFCURVE",
"274 482 CURVE SMOOTH",
"174 482 OFFCURVE",
"100 434 OFFCURVE",
"100 357 CURVE SMOOTH",
"100 299 OFFCURVE",
"143 258 OFFCURVE",
"219 258 CURVE SMOOTH"
);
},
{
closed = 1;
nodes = (
"76 157 LINE",
"425 157 LINE",
"425 211 LINE",
"76 211 LINE"
);
}
);
width = 500;
}
);
unicode = 00AA;
},
{
glyphname = ordmasculine;
layers = (
{
background = {
paths = (
{
closed = 1;
nodes = (
"142 0 LINE",
"142 263 LINE SMOOTH",
"142 350 OFFCURVE",
"216 405 OFFCURVE",
"277 405 CURVE SMOOTH",
"324 405 OFFCURVE",
"361 371 OFFCURVE",
"361 275 CURVE SMOOTH",
"361 0 LINE",
"431 0 LINE",
"431 277 LINE SMOOTH",
"431 415 OFFCURVE",
"372 468 OFFCURVE",
"297 468 CURVE SMOOTH",
"235 468 OFFCURVE",
"177 432 OFFCURVE",
"142 376 CURVE",
"142 457 LINE",
"72 457 LINE",
"72 0 LINE"
);
},
{
closed = 1;
nodes = (
"131 467 OFFCURVE",
"40 375 OFFCURVE",
"40 227 CURVE SMOOTH",
"40 79 OFFCURVE",
"138 -12 OFFCURVE",
"246 -12 CURVE SMOOTH",
"359 -12 OFFCURVE",
"460 91 OFFCURVE",
"460 229 CURVE SMOOTH",
"460 366 OFFCURVE",
"363 467 OFFCURVE",
"247 467 CURVE SMOOTH"
);
},
{
closed = 1;
nodes = (
"327 405 OFFCURVE",
"384 332 OFFCURVE",
"384 225 CURVE SMOOTH",
"384 116 OFFCURVE",
"321 49 OFFCURVE",
"249 49 CURVE SMOOTH",
"178 49 OFFCURVE",
"112 114 OFFCURVE",
"112 229 CURVE SMOOTH",
"112 342 OFFCURVE",
"172 405 OFFCURVE",
"247 405 CURVE SMOOTH"
);
}
);
};
guideLines = (
{
position = "{251, 229.5}";
}
);
layerId = "051EFAE4-8BBE-4FBB-A016-4335C3E52F59";
paths = (
{
closed = 1;
nodes = (
"341 260 OFFCURVE",
"407 333 OFFCURVE",
"407 444 CURVE SMOOTH",
"407 554 OFFCURVE",
"341 628 OFFCURVE",
"250 628 CURVE",
"159 628 OFFCURVE",
"93 554 OFFCURVE",
"93 444 CURVE SMOOTH",
"93 333 OFFCURVE",
"159 260 OFFCURVE",
"250 260 CURVE"
);
},
{
closed = 1;
nodes = (
"195 312 OFFCURVE",
"157 365 OFFCURVE",
"157 445 CURVE SMOOTH",
"157 525 OFFCURVE",
"196 577 OFFCURVE",
"250 577 CURVE",
"304 577 OFFCURVE",
"343 525 OFFCURVE",
"343 445 CURVE SMOOTH",
"343 365 OFFCURVE",
"305 312 OFFCURVE",
"250 312 CURVE"
);
},
{
closed = 1;
nodes = (
"76 157 LINE",
"425 157 LINE",
"425 211 LINE",
"76 211 LINE"
);
}
);
width = 500;
},
{
anchors = (
{
name = bottom;
position = "{250, 0}";
},
{
name = center;
position = "{250, 229}";
},
{
name = ogonek;
position = "{313, 21}";
},
{
name = top;
position = "{250, 457}";
},
{
name = topright;
position = "{362, 433}";
}
);
associatedMasterId = "051EFAE4-8BBE-4FBB-A016-4335C3E52F59";
background = {
paths = (
{
closed = 1;
nodes = (
"142 0 LINE",
"142 263 LINE SMOOTH",
"142 350 OFFCURVE",
"216 405 OFFCURVE",
"277 405 CURVE SMOOTH",
"324 405 OFFCURVE",
"361 371 OFFCURVE",
"361 275 CURVE SMOOTH",
"361 0 LINE",
"431 0 LINE",
"431 277 LINE SMOOTH",
"431 415 OFFCURVE",
"372 468 OFFCURVE",
"297 468 CURVE SMOOTH",
"235 468 OFFCURVE",
"177 432 OFFCURVE",
"142 376 CURVE",
"142 457 LINE",
"72 457 LINE",
"72 0 LINE"
);
}
);
};
layerId = "F03BECE8-CBA2-48C7-9E40-72BE14753F6D";
name = "Regular Aug 16 16, 18:17";
paths = (
{
closed = 1;
nodes = (
"369 -12 OFFCURVE",
"460 80 OFFCURVE",
"460 228 CURVE SMOOTH",
"460 376 OFFCURVE",
"362 467 OFFCURVE",
"254 467 CURVE SMOOTH",
"141 467 OFFCURVE",
"40 364 OFFCURVE",
"40 226 CURVE SMOOTH",
"40 89 OFFCURVE",
"137 -12 OFFCURVE",
"253 -12 CURVE SMOOTH"
);
},
{
closed = 1;
nodes = (
"173 50 OFFCURVE",
"116 123 OFFCURVE",
"116 230 CURVE SMOOTH",
"116 339 OFFCURVE",
"179 406 OFFCURVE",
"251 406 CURVE SMOOTH",
"322 406 OFFCURVE",
"388 341 OFFCURVE",
"388 226 CURVE SMOOTH",
"388 113 OFFCURVE",
"328 50 OFFCURVE",
"253 50 CURVE SMOOTH"
);
}
);
width = 500;
}
);
unicode = 00BA;
},
{
glyphname = ZdoubleStruck;
layers = (
{
hints = (
{
origin = "{0, 4}";
type = Corner;
name = _corner.topSpur;
}
);
layerId = "051EFAE4-8BBE-4FBB-A016-4335C3E52F59";
paths = (
{
closed = 1;
nodes = (
"328 618 LINE",
"50 49 LINE",
"50 0 LINE",
"463 0 LINE",
"463 42 LINE",
"63 42 LINE",
"88 21 LINE",
"376 618 LINE"
);
},
{
closed = 1;
nodes = (
"196 15 LINE",
"464 574 LINE",
"464 623 LINE",
"52 623 LINE",
"52 580 LINE",
"453 580 LINE",
"427 601 LINE",
"146 15 LINE"
);
}
);
width = 500;
}
);
unicode = 2124;
},
{
glyphname = zero;
layers = (
{
background = {
paths = (
{
closed = 1;
nodes = (
"374 -11 OFFCURVE",
"443 104 OFFCURVE",
"443 308 CURVE SMOOTH",
"443 505 OFFCURVE",
"374 627 OFFCURVE",
"250 627 CURVE",
"126 627 OFFCURVE",
"57 505 OFFCURVE",
"57 308 CURVE SMOOTH",
"57 104 OFFCURVE",
"126 -11 OFFCURVE",
"250 -11 CURVE"
);
},
{
closed = 1;
nodes = (
"174 50 OFFCURVE",
"129 142 OFFCURVE",
"129 308 CURVE SMOOTH",
"129 465 OFFCURVE",
"174 566 OFFCURVE",
"250 566 CURVE",
"326 566 OFFCURVE",
"371 465 OFFCURVE",
"371 308 CURVE SMOOTH",
"371 142 OFFCURVE",
"326 50 OFFCURVE",
"250 50 CURVE"
);
}
);
};
guideLines = (
{
angle = 90;
position = "{250, 125}";
},
{
position = "{250, 308}";
}
);
layerId = "051EFAE4-8BBE-4FBB-A016-4335C3E52F59";
paths = (
{
closed = 1;
nodes = (
"130 111 LINE",
"397 450 LINE",
"374 497 LINE",
"107 154 LINE"
);
},
{
closed = 1;
nodes = (
"374 -11 OFFCURVE",
"443 104 OFFCURVE",
"443 308 CURVE SMOOTH",
"443 505 OFFCURVE",
"374 627 OFFCURVE",
"250 627 CURVE",
"126 627 OFFCURVE",
"57 505 OFFCURVE",
"57 308 CURVE SMOOTH",
"57 104 OFFCURVE",
"126 -11 OFFCURVE",
"250 -11 CURVE"
);
},
{
closed = 1;
nodes = (
"174 50 OFFCURVE",
"129 142 OFFCURVE",
"129 308 CURVE SMOOTH",
"129 465 OFFCURVE",
"174 566 OFFCURVE",
"250 566 CURVE",
"326 566 OFFCURVE",
"371 465 OFFCURVE",
"371 308 CURVE SMOOTH",
"371 142 OFFCURVE",
"326 50 OFFCURVE",
"250 50 CURVE"
);
}
);
width = 500;
}
);
unicode = 0030;
},
{
glyphname = one;
layers = (
{
layerId = "051EFAE4-8BBE-4FBB-A016-4335C3E52F59";
paths = (
{
closed = 1;
nodes = (
"300 0 LINE",
"300 624 LINE",
"251 624 LINE",
"88 539 LINE",
"104 500 LINE",
"230 537 LINE",
"230 0 LINE"
);
}
);
width = 500;
}
);
unicode = 0031;
},
{
glyphname = two;
layers = (
{
background = {
paths = (
{
closed = 1;
nodes = (
"439 0 LINE",
"439 70 LINE",
"436 70 LINE SMOOTH",
"429 70 OFFCURVE",
"422 61 OFFCURVE",
"415 61 CURVE SMOOTH",
"154 61 LINE",
"184 117 OFFCURVE",
"236 175 OFFCURVE",
"271 207 CURVE SMOOTH",
"393 318 OFFCURVE",
"433 368 OFFCURVE",
"433 452 CURVE SMOOTH",
"433 549 OFFCURVE",
"352 627 OFFCURVE",
"252 627 CURVE SMOOTH",
"180 627 OFFCURVE",
"114 590 OFFCURVE",
"78 526 CURVE",
"129 486 LINE",
"130 488 OFFCURVE",
"132 492 OFFCURVE",
"133 498 CURVE SMOOTH",
"136 521 OFFCURVE",
"183 566 OFFCURVE",
"250 566 CURVE SMOOTH",
"309 566 OFFCURVE",
"364 509 OFFCURVE",
"364 451 CURVE SMOOTH",
"364 382 OFFCURVE",
"338 353 OFFCURVE",
"236 259 CURVE SMOOTH",
"183 211 OFFCURVE",
"122 141 OFFCURVE",
"73 44 CURVE",
"73 0 LINE"
);
}
);
};
hints = (
{
origin = "{0, 1}";
type = Corner;
name = _corner.topSpur;
},
{
origin = "{0, 12}";
type = Corner;
name = _corner.topSpur;
}
);
layerId = "051EFAE4-8BBE-4FBB-A016-4335C3E52F59";
paths = (
{
closed = 1;
nodes = (
"439 0 LINE",
"439 61 LINE",
"163 61 LINE",
"302 205 OFFCURVE",
"436 311 OFFCURVE",
"436 449 CURVE SMOOTH",
"436 559 OFFCURVE",
"362 627 OFFCURVE",
"257 627 CURVE SMOOTH",
"171 627 OFFCURVE",
"98 583 OFFCURVE",
"58 506 CURVE",
"109 466 LINE",
"145 534 OFFCURVE",
"198 566 OFFCURVE",
"258 566 CURVE SMOOTH",
"317 566 OFFCURVE",
"364 537 OFFCURVE",
"364 451 CURVE SMOOTH",
"364 329 OFFCURVE",
"252 240 OFFCURVE",
"73 56 CURVE",
"73 0 LINE"
);
}
);
width = 500;
}
);
unicode = 0032;
},
{
glyphname = three;
layers = (
{
background = {
components = (
{
name = zero;
transform = "{1, 0, 0, 1, -5, 0}";
}
);
};
hints = (
{
origin = "{0, 34}";
type = Corner;
name = _corner.rightSpur;
}
);
layerId = "051EFAE4-8BBE-4FBB-A016-4335C3E52F59";
paths = (
{
closed = 1;
nodes = (
"361 -11 OFFCURVE",
"427 72 OFFCURVE",
"427 171 CURVE SMOOTH",
"427 256 OFFCURVE",
"378 307 OFFCURVE",
"308 330 CURVE",
"374 351 OFFCURVE",
"406 407 OFFCURVE",
"406 472 CURVE SMOOTH",
"406 564 OFFCURVE",
"345 627 OFFCURVE",
"244 627 CURVE SMOOTH",
"190 627 OFFCURVE",
"134 610 OFFCURVE",
"89 563 CURVE",
"131 521 LINE",
"167 555 OFFCURVE",
"205 567 OFFCURVE",
"245 567 CURVE SMOOTH",
"298 567 OFFCURVE",
"334 532 OFFCURVE",
"334 475 CURVE SMOOTH",
"334 410 OFFCURVE",
"309 352 OFFCURVE",
"180 352 CURVE",
"180 296 LINE",
"286 306 OFFCURVE",
"355 269 OFFCURVE",
"355 174 CURVE SMOOTH",
"355 101 OFFCURVE",
"317 49 OFFCURVE",
"237 49 CURVE SMOOTH",
"176 49 OFFCURVE",
"145 79 OFFCURVE",
"116 116 CURVE",
"69 60 LINE",
"112 13 OFFCURVE",
"175 -11 OFFCURVE",
"240 -11 CURVE SMOOTH"
);
}
);
width = 500;
}
);
unicode = 0033;
},
{
glyphname = four;
layers = (
{
layerId = "051EFAE4-8BBE-4FBB-A016-4335C3E52F59";
paths = (
{
closed = 1;
nodes = (
"392 0 LINE",
"392 152 LINE",
"472 152 LINE",
"472 211 LINE",
"392 211 LINE",
"392 624 LINE",
"333 624 LINE",
"48 204 LINE",
"48 153 LINE",
"318 153 LINE",
"318 0 LINE"
);
},
{
closed = 1;
nodes = (
"318 498 LINE",
"318 212 LINE",
"129 212 LINE"
);
}
);
width = 500;
}
);
unicode = 0034;
},
{
glyphname = five;
layers = (
{
background = {
paths = (
{
closed = 1;
nodes = (
"360 -11 OFFCURVE",
"445 67 OFFCURVE",
"445 196 CURVE SMOOTH",
"445 324 OFFCURVE",
"365 405 OFFCURVE",
"257 405 CURVE SMOOTH",
"222 405 OFFCURVE",
"188 397 OFFCURVE",
"155 381 CURVE",
"165 560 LINE",
"422 560 LINE",
"422 623 LINE",
"106 623 LINE",
"85 306 LINE",
"129 288 LINE",
"160 325 OFFCURVE",
"203 347 OFFCURVE",
"246 347 CURVE SMOOTH",
"317 347 OFFCURVE",
"374 292 OFFCURVE",
"374 199 CURVE SMOOTH",
"374 107 OFFCURVE",
"317 50 OFFCURVE",
"253 50 CURVE SMOOTH",
"188 50 OFFCURVE",
"144 89 OFFCURVE",
"133 108 CURVE SMOOTH",
"132 111 OFFCURVE",
"133 127 OFFCURVE",
"126 131 CURVE",
"64 85 LINE",
"105 24 OFFCURVE",
"173 -11 OFFCURVE",
"249 -11 CURVE SMOOTH"
);
}
);
};
hints = (
{
origin = "{0, 26}";
type = Corner;
name = _corner.rightSpur;
}
);
layerId = "051EFAE4-8BBE-4FBB-A016-4335C3E52F59";
paths = (
{
closed = 1;
nodes = (
"360 -11 OFFCURVE",
"445 67 OFFCURVE",
"445 196 CURVE SMOOTH",
"445 324 OFFCURVE",
"365 405 OFFCURVE",
"257 405 CURVE SMOOTH",
"222 405 OFFCURVE",
"188 397 OFFCURVE",
"155 381 CURVE",
"165 560 LINE",
"422 560 LINE",
"422 623 LINE",
"106 623 LINE",
"85 306 LINE",
"129 288 LINE",
"160 325 OFFCURVE",
"203 347 OFFCURVE",
"246 347 CURVE SMOOTH",
"317 347 OFFCURVE",
"374 292 OFFCURVE",
"374 199 CURVE SMOOTH",
"374 107 OFFCURVE",
"317 50 OFFCURVE",
"253 50 CURVE SMOOTH",
"188 50 OFFCURVE",
"155 76 OFFCURVE",
"121 128 CURVE",
"64 85 LINE",
"105 24 OFFCURVE",
"173 -11 OFFCURVE",
"249 -11 CURVE SMOOTH"
);
}
);
width = 500;
}
);
unicode = 0035;
},
{
glyphname = six;
layers = (
{
hints = (
{
origin = "{0, 14}";
type = Corner;
name = _corner.rightSpur;
}
);
layerId = "051EFAE4-8BBE-4FBB-A016-4335C3E52F59";
paths = (
{
closed = 1;
nodes = (
"360 -10 OFFCURVE",
"439 74 OFFCURVE",
"439 198 CURVE SMOOTH",
"439 321 OFFCURVE",
"361 402 OFFCURVE",
"268 402 CURVE SMOOTH",
"215 402 OFFCURVE",
"164 374 OFFCURVE",
"136 327 CURVE",
"139 528 OFFCURVE",
"235 568 OFFCURVE",
"289 568 CURVE SMOOTH",
"328 568 OFFCURVE",
"351 557 OFFCURVE",
"379 522 CURVE",
"424 573 LINE",
"385 611 OFFCURVE",
"339 630 OFFCURVE",
"287 630 CURVE SMOOTH",
"154 630 OFFCURVE",
"67 508 OFFCURVE",
"67 284 CURVE SMOOTH",
"67 103 OFFCURVE",
"137 -10 OFFCURVE",
"261 -10 CURVE SMOOTH"
);
},
{
closed = 1;
nodes = (
"178 52 OFFCURVE",
"129 166 OFFCURVE",
"140 257 CURVE",
"167 304 OFFCURVE",
"214 341 OFFCURVE",
"262 341 CURVE SMOOTH",
"313 341 OFFCURVE",
"371 297 OFFCURVE",
"371 197 CURVE SMOOTH",
"371 102 OFFCURVE",
"321 52 OFFCURVE",
"264 52 CURVE SMOOTH"
);
}
);
width = 500;
}
);
unicode = 0036;
},
{
glyphname = seven;
layers = (
{
layerId = "051EFAE4-8BBE-4FBB-A016-4335C3E52F59";
paths = (
{
closed = 1;
nodes = (
"234 0 LINE",
"289 200 OFFCURVE",
"356 392 OFFCURVE",
"432 584 CURVE",
"432 623 LINE",
"79 623 LINE",
"79 557 LINE",
"345 557 LINE",
"275 373 OFFCURVE",
"213 191 OFFCURVE",
"155 0 CURVE"
);
},
{
closed = 1;
nodes = (
"159 282 LINE",
"425 282 LINE",
"425 341 LINE",
"159 341 LINE"
);
}
);
width = 500;
}
);
unicode = 0037;
},
{
glyphname = eight;
layers = (
{
layerId = "051EFAE4-8BBE-4FBB-A016-4335C3E52F59";
paths = (
{
closed = 1;
nodes = (
"367 -10 OFFCURVE",
"441 64 OFFCURVE",
"441 161 CURVE SMOOTH",
"441 233 OFFCURVE",
"393 300 OFFCURVE",
"321 333 CURVE",
"381 365 OFFCURVE",
"420 423 OFFCURVE",
"420 483 CURVE SMOOTH",
"420 564 OFFCURVE",
"370 631 OFFCURVE",
"255 631 CURVE SMOOTH",
"145 631 OFFCURVE",
"90 562 OFFCURVE",
"90 477 CURVE SMOOTH",
"90 417 OFFCURVE",
"128 360 OFFCURVE",
"185 331 CURVE",
"109 296 OFFCURVE",
"60 229 OFFCURVE",
"60 157 CURVE SMOOTH",
"60 64 OFFCURVE",
"132 -10 OFFCURVE",
"250 -10 CURVE SMOOTH"
);
},
{
closed = 1;
nodes = (
"176 53 OFFCURVE",
"132 104 OFFCURVE",
"132 164 CURVE SMOOTH",
"132 224 OFFCURVE",
"177 278 OFFCURVE",
"237 303 CURVE",
"318 278 OFFCURVE",
"370 222 OFFCURVE",
"370 161 CURVE SMOOTH",
"370 101 OFFCURVE",
"329 53 OFFCURVE",
"252 53 CURVE SMOOTH"
);
},
{
closed = 1;
nodes = (
"205 391 OFFCURVE",
"157 422 OFFCURVE",
"157 484 CURVE SMOOTH",
"157 529 OFFCURVE",
"187 572 OFFCURVE",
"253 572 CURVE SMOOTH",
"319 572 OFFCURVE",
"352 528 OFFCURVE",
"352 481 CURVE SMOOTH",
"352 434 OFFCURVE",
"316 385 OFFCURVE",
"267 358 CURVE"
);
}
);
width = 500;
}
);
unicode = 0038;
},
{
glyphname = nine;
layers = (
{
background = {
components = (
{
name = zero;
transform = "{1, 0, 0, 1, -3, 0}";
}
);
};
hints = (
{
origin = "{0, 33}";
type = Corner;
name = _corner.rightSpur;
}
);
layerId = "051EFAE4-8BBE-4FBB-A016-4335C3E52F59";
paths = (
{
closed = 1;
nodes = (
"360 -7 OFFCURVE",
"439 112 OFFCURVE",
"439 363 CURVE SMOOTH",
"439 517 OFFCURVE",
"364 627 OFFCURVE",
"247 627 CURVE SMOOTH",
"148 627 OFFCURVE",
"68 541 OFFCURVE",
"68 424 CURVE SMOOTH",
"68 313 OFFCURVE",
"146 236 OFFCURVE",
"249 236 CURVE SMOOTH",
"317 236 OFFCURVE",
"359 264 OFFCURVE",
"397 307 CURVE",
"392 378 LINE",
"355 319 OFFCURVE",
"319 297 OFFCURVE",
"250 297 CURVE SMOOTH",
"188 297 OFFCURVE",
"136 346 OFFCURVE",
"136 425 CURVE SMOOTH",
"136 513 OFFCURVE",
"182 566 OFFCURVE",
"250 566 CURVE SMOOTH",
"334 566 OFFCURVE",
"372 485 OFFCURVE",
"372 320 CURVE SMOOTH",
"372 187 OFFCURVE",
"329 50 OFFCURVE",
"222 50 CURVE SMOOTH",
"178 50 OFFCURVE",
"152 63 OFFCURVE",
"123 97 CURVE",
"79 47 LINE",
"118 9 OFFCURVE",
"167 -10 OFFCURVE",
"228 -10 CURVE"
);
}
);
width = 500;
}
);
unicode = 0039;
},
{
glyphname = zero.zero;
layers = (
{
background = {
components = (
{
name = periodcentered;
transform = "{1, 0, 0, 1, 20, -30}";
}
);
};
guideLines = (
{
angle = 89.6649;
position = "{250, 310}";
}
);
layerId = "051EFAE4-8BBE-4FBB-A016-4335C3E52F59";
paths = (
{
closed = 1;
nodes = (
"283 256 OFFCURVE",
"310 282 OFFCURVE",
"310 313 CURVE SMOOTH",
"310 345 OFFCURVE",
"280 370 OFFCURVE",
"250 370 CURVE SMOOTH",
"219 370 OFFCURVE",
"191 345 OFFCURVE",
"191 313 CURVE SMOOTH",
"191 281 OFFCURVE",
"217 256 OFFCURVE",
"250 256 CURVE SMOOTH"
);
},
{
closed = 1;
nodes = (
"374 -11 OFFCURVE",
"443 104 OFFCURVE",
"443 308 CURVE SMOOTH",
"443 505 OFFCURVE",
"374 627 OFFCURVE",
"250 627 CURVE",
"126 627 OFFCURVE",
"57 505 OFFCURVE",
"57 308 CURVE SMOOTH",
"57 104 OFFCURVE",
"126 -11 OFFCURVE",
"250 -11 CURVE"
);
},
{
closed = 1;
nodes = (
"174 50 OFFCURVE",
"129 142 OFFCURVE",
"129 308 CURVE SMOOTH",
"129 465 OFFCURVE",
"174 566 OFFCURVE",
"250 566 CURVE",
"326 566 OFFCURVE",
"371 465 OFFCURVE",
"371 308 CURVE SMOOTH",
"371 142 OFFCURVE",
"326 50 OFFCURVE",
"250 50 CURVE"
);
}
);
width = 500;
}
);
},
{
glyphname = zero.ss02;
layers = (
{
background = {
paths = (
{
closed = 1;
nodes = (
"374 -11 OFFCURVE",
"443 104 OFFCURVE",
"443 308 CURVE SMOOTH",
"443 505 OFFCURVE",
"374 627 OFFCURVE",
"250 627 CURVE",
"126 627 OFFCURVE",
"57 505 OFFCURVE",
"57 308 CURVE SMOOTH",
"57 104 OFFCURVE",
"126 -11 OFFCURVE",
"250 -11 CURVE"
);
},
{
closed = 1;
nodes = (
"174 50 OFFCURVE",
"129 142 OFFCURVE",
"129 308 CURVE SMOOTH",
"129 465 OFFCURVE",
"174 566 OFFCURVE",
"250 566 CURVE",
"326 566 OFFCURVE",
"371 465 OFFCURVE",
"371 308 CURVE SMOOTH",
"371 142 OFFCURVE",
"326 50 OFFCURVE",
"250 50 CURVE"
);
}
);
};
layerId = "051EFAE4-8BBE-4FBB-A016-4335C3E52F59";
paths = (
{
closed = 1;
nodes = (
"374 -11 OFFCURVE",
"443 104 OFFCURVE",
"443 308 CURVE SMOOTH",
"443 505 OFFCURVE",
"374 627 OFFCURVE",
"250 627 CURVE",
"126 627 OFFCURVE",
"57 505 OFFCURVE",
"57 308 CURVE SMOOTH",
"57 104 OFFCURVE",
"126 -11 OFFCURVE",
"250 -11 CURVE"
);
},
{
closed = 1;
nodes = (
"174 50 OFFCURVE",
"129 142 OFFCURVE",
"129 308 CURVE SMOOTH",
"129 465 OFFCURVE",
"174 566 OFFCURVE",
"250 566 CURVE",
"326 566 OFFCURVE",
"371 465 OFFCURVE",
"371 308 CURVE SMOOTH",
"371 142 OFFCURVE",
"326 50 OFFCURVE",
"250 50 CURVE"
);
}
);
width = 500;
}
);
},
{
glyphname = fraction;
layers = (
{
layerId = "051EFAE4-8BBE-4FBB-A016-4335C3E52F59";
paths = (
{
closed = 1;
nodes = (
"437 638 LINE",
"389 665 LINE",
"76 -16 LINE",
"123 -42 LINE"
);
}
);
width = 500;
}
);
unicode = 2044;
},
{
glyphname = onehalf;
layers = (
{
components = (
{
name = fraction;
}
);
layerId = "051EFAE4-8BBE-4FBB-A016-4335C3E52F59";
paths = (
{
closed = 1;
nodes = (
"143 380 LINE",
"143 686 LINE",
"106 686 LINE",
"18 643 LINE",
"29 612 LINE",
"93 632 LINE",
"93 380 LINE"
);
},
{
closed = 1;
nodes = (
"485 -70 LINE",
"485 -29 LINE",
"350 -29 LINE",
"425 41 OFFCURVE",
"484 85 OFFCURVE",
"484 151 CURVE SMOOTH",
"484 205 OFFCURVE",
"440 239 OFFCURVE",
"382 239 CURVE SMOOTH",
"335 239 OFFCURVE",
"295 217 OFFCURVE",
"272 180 CURVE",
"306 153 LINE",
"323 184 OFFCURVE",
"350 197 OFFCURVE",
"382 197 CURVE SMOOTH",
"414 197 OFFCURVE",
"436 184 OFFCURVE",
"436 151 CURVE SMOOTH",
"436 95 OFFCURVE",
"380 58 OFFCURVE",
"280 -34 CURVE",
"280 -70 LINE"
);
}
);
width = 500;
}
);
unicode = 00BD;
},
{
glyphname = onequarter;
layers = (
{
components = (
{
name = fraction;
}
);
layerId = "051EFAE4-8BBE-4FBB-A016-4335C3E52F59";
paths = (
{
closed = 1;
nodes = (
"143 380 LINE",
"143 686 LINE",
"106 686 LINE",
"18 643 LINE",
"29 612 LINE",
"93 632 LINE",
"93 380 LINE"
);
},
{
closed = 1;
nodes = (
"445 -70 LINE",
"445 2 LINE",
"490 2 LINE",
"490 42 LINE",
"445 42 LINE",
"445 236 LINE",
"407 236 LINE",
"257 35 LINE",
"257 3 LINE",
"396 3 LINE",
"396 -70 LINE"
);
},
{
closed = 1;
nodes = (
"397 158 LINE",
"397 42 LINE",
"312 42 LINE"
);
}
);
width = 500;
}
);
unicode = 00BC;
},
{
glyphname = threequarters;
layers = (
{
background = {
components = (
{
name = zero;
transform = "{1, 0, 0, 1, -5, 0}";
}
);
};
components = (
{
name = fraction;
}
);
hints = (
{
origin = "{0, 34}";
type = Corner;
name = _corner.rightSpur;
}
);
layerId = "051EFAE4-8BBE-4FBB-A016-4335C3E52F59";
paths = (
{
closed = 1;
nodes = (
"171 374 OFFCURVE",
"210 414 OFFCURVE",
"210 464 CURVE SMOOTH",
"210 508 OFFCURVE",
"182 532 OFFCURVE",
"149 542 CURVE",
"179 552 OFFCURVE",
"200 578 OFFCURVE",
"200 611 CURVE SMOOTH",
"200 657 OFFCURVE",
"162 689 OFFCURVE",
"104 689 CURVE SMOOTH",
"73 689 OFFCURVE",
"39 679 OFFCURVE",
"14 654 CURVE",
"43 625 LINE",
"61 642 OFFCURVE",
"82 648 OFFCURVE",
"104 648 CURVE SMOOTH",
"131 648 OFFCURVE",
"151 633 OFFCURVE",
"151 607 CURVE SMOOTH",
"151 580 OFFCURVE",
"134 556 OFFCURVE",
"68 557 CURVE",
"68 519 LINE",
"126 525 OFFCURVE",
"160 509 OFFCURVE",
"160 466 CURVE SMOOTH",
"160 435 OFFCURVE",
"139 414 OFFCURVE",
"101 414 CURVE SMOOTH",
"69 414 OFFCURVE",
"49 428 OFFCURVE",
"34 447 CURVE",
"5 410 LINE",
"28 386 OFFCURVE",
"65 374 OFFCURVE",
"103 374 CURVE SMOOTH"
);
},
{
closed = 1;
nodes = (
"445 -70 LINE",
"445 2 LINE",
"490 2 LINE",
"490 42 LINE",
"445 42 LINE",
"445 236 LINE",
"407 236 LINE",
"257 35 LINE",
"257 3 LINE",
"396 3 LINE",
"396 -70 LINE"
);
},
{
closed = 1;
nodes = (
"397 158 LINE",
"397 42 LINE",
"312 42 LINE"
);
}
);
width = 500;
}
);
unicode = 00BE;
},
{
color = 9;
glyphname = zerosuperior;
layers = (
{
background = {
paths = (
{
closed = 1;
nodes = (
"374 -11 OFFCURVE",
"443 104 OFFCURVE",
"443 308 CURVE SMOOTH",
"443 505 OFFCURVE",
"374 627 OFFCURVE",
"250 627 CURVE",
"126 627 OFFCURVE",
"57 505 OFFCURVE",
"57 308 CURVE SMOOTH",
"57 104 OFFCURVE",
"126 -11 OFFCURVE",
"250 -11 CURVE"
);
},
{
closed = 1;
nodes = (
"174 50 OFFCURVE",
"129 142 OFFCURVE",
"129 308 CURVE SMOOTH",
"129 465 OFFCURVE",
"174 566 OFFCURVE",
"250 566 CURVE",
"326 566 OFFCURVE",
"371 465 OFFCURVE",
"371 308 CURVE SMOOTH",
"371 142 OFFCURVE",
"326 50 OFFCURVE",
"250 50 CURVE"
);
}
);
};
guideLines = (
{
angle = 90;
position = "{250, 125}";
},
{
position = "{250, 308}";
}
);
layerId = "051EFAE4-8BBE-4FBB-A016-4335C3E52F59";
paths = (
{
closed = 1;
nodes = (
"167 315 LINE",
"349 519 LINE",
"334 555 LINE",
"152 349 LINE"
);
},
{
closed = 1;
nodes = (
"336 239 OFFCURVE",
"386 311 OFFCURVE",
"386 437 CURVE SMOOTH",
"386 560 OFFCURVE",
"336 636 OFFCURVE",
"250 636 CURVE",
"164 636 OFFCURVE",
"114 560 OFFCURVE",
"114 437 CURVE SMOOTH",
"114 311 OFFCURVE",
"164 239 OFFCURVE",
"250 239 CURVE"
);
},
{
closed = 1;
nodes = (
"198 284 OFFCURVE",
"168 339 OFFCURVE",
"168 437 CURVE SMOOTH",
"168 531 OFFCURVE",
"198 590 OFFCURVE",
"250 590 CURVE",
"302 590 OFFCURVE",
"332 531 OFFCURVE",
"332 437 CURVE SMOOTH",
"332 339 OFFCURVE",
"302 284 OFFCURVE",
"250 284 CURVE"
);
}
);
width = 500;
}
);
unicode = 2070;
},
{
color = 9;
glyphname = onesuperior;
layers = (
{
layerId = "051EFAE4-8BBE-4FBB-A016-4335C3E52F59";
paths = (
{
closed = 1;
nodes = (
"288 246 LINE",
"288 633 LINE",
"247 633 LINE",
"136 579 LINE",
"149 546 LINE",
"232 570 LINE",
"232 246 LINE"
);
}
);
width = 500;
}
);
unicode = 00B9;
},
{
color = 9;
glyphname = twosuperior;
layers = (
{
background = {
paths = (
{
closed = 1;
nodes = (
"439 0 LINE",
"439 70 LINE",
"436 70 LINE SMOOTH",
"429 70 OFFCURVE",
"422 61 OFFCURVE",
"415 61 CURVE SMOOTH",
"154 61 LINE",
"184 117 OFFCURVE",
"236 175 OFFCURVE",
"271 207 CURVE SMOOTH",
"393 318 OFFCURVE",
"433 368 OFFCURVE",
"433 452 CURVE SMOOTH",
"433 549 OFFCURVE",
"352 627 OFFCURVE",
"252 627 CURVE SMOOTH",
"180 627 OFFCURVE",
"114 590 OFFCURVE",
"78 526 CURVE",
"129 486 LINE",
"130 488 OFFCURVE",
"132 492 OFFCURVE",
"133 498 CURVE SMOOTH",
"136 521 OFFCURVE",
"183 566 OFFCURVE",
"250 566 CURVE SMOOTH",
"309 566 OFFCURVE",
"364 509 OFFCURVE",
"364 451 CURVE SMOOTH",
"364 382 OFFCURVE",
"338 353 OFFCURVE",
"236 259 CURVE SMOOTH",
"183 211 OFFCURVE",
"122 141 OFFCURVE",
"73 44 CURVE",
"73 0 LINE"
);
}
);
};
hints = (
{
origin = "{0, 1}";
type = Corner;
name = _corner.topSpur;
},
{
origin = "{0, 12}";
type = Corner;
name = _corner.topSpur;
}
);
layerId = "051EFAE4-8BBE-4FBB-A016-4335C3E52F59";
paths = (
{
closed = 1;
nodes = (
"381 246 LINE",
"381 292 LINE",
"204 292 LINE",
"299 381 OFFCURVE",
"379 441 OFFCURVE",
"379 525 CURVE SMOOTH",
"379 594 OFFCURVE",
"326 636 OFFCURVE",
"254 636 CURVE SMOOTH",
"194 636 OFFCURVE",
"144 609 OFFCURVE",
"115 562 CURVE",
"154 531 LINE",
"177 571 OFFCURVE",
"213 589 OFFCURVE",
"254 589 CURVE SMOOTH",
"294 589 OFFCURVE",
"324 572 OFFCURVE",
"324 525 CURVE SMOOTH",
"324 452 OFFCURVE",
"250 402 OFFCURVE",
"126 287 CURVE",
"126 246 LINE"
);
}
);
width = 500;
}
);
unicode = 00B2;
},
{
color = 9;
glyphname = threesuperior;
layers = (
{
background = {
components = (
{
name = zero;
transform = "{1, 0, 0, 1, -5, 0}";
}
);
};
hints = (
{
origin = "{0, 34}";
type = Corner;
name = _corner.rightSpur;
}
);
layerId = "051EFAE4-8BBE-4FBB-A016-4335C3E52F59";
paths = (
{
closed = 1;
nodes = (
"327 239 OFFCURVE",
"374 289 OFFCURVE",
"374 353 CURVE SMOOTH",
"374 407 OFFCURVE",
"340 437 OFFCURVE",
"296 451 CURVE",
"337 464 OFFCURVE",
"361 497 OFFCURVE",
"361 539 CURVE SMOOTH",
"361 596 OFFCURVE",
"315 636 OFFCURVE",
"244 636 CURVE SMOOTH",
"205 636 OFFCURVE",
"164 624 OFFCURVE",
"133 594 CURVE",
"167 561 LINE",
"190 582 OFFCURVE",
"216 590 OFFCURVE",
"244 590 CURVE SMOOTH",
"279 590 OFFCURVE",
"305 570 OFFCURVE",
"305 537 CURVE SMOOTH",
"305 499 OFFCURVE",
"284 467 OFFCURVE",
"199 468 CURVE",
"199 425 LINE",
"272 431 OFFCURVE",
"318 410 OFFCURVE",
"318 355 CURVE SMOOTH",
"318 313 OFFCURVE",
"290 284 OFFCURVE",
"240 284 CURVE SMOOTH",
"199 284 OFFCURVE",
"175 302 OFFCURVE",
"155 325 CURVE",
"121 284 LINE",
"150 254 OFFCURVE",
"195 239 OFFCURVE",
"242 239 CURVE SMOOTH"
);
}
);
width = 500;
}
);
unicode = 00B3;
},
{
color = 9;
glyphname = foursuperior;
layers = (
{
layerId = "051EFAE4-8BBE-4FBB-A016-4335C3E52F59";
paths = (
{
closed = 1;
nodes = (
"346 246 LINE",
"346 338 LINE",
"402 338 LINE",
"402 384 LINE",
"346 384 LINE",
"346 633 LINE",
"302 633 LINE",
"110 376 LINE",
"110 339 LINE",
"290 339 LINE",
"290 246 LINE"
);
},
{
closed = 1;
nodes = (
"291 543 LINE",
"291 384 LINE",
"173 384 LINE"
);
}
);
width = 500;
}
);
unicode = 2074;
},
{
color = 9;
glyphname = fivesuperior;
layers = (
{
background = {
paths = (
{
closed = 1;
nodes = (
"360 -11 OFFCURVE",
"445 67 OFFCURVE",
"445 196 CURVE SMOOTH",
"445 324 OFFCURVE",
"365 405 OFFCURVE",
"257 405 CURVE SMOOTH",
"222 405 OFFCURVE",
"188 397 OFFCURVE",
"155 381 CURVE",
"165 560 LINE",
"422 560 LINE",
"422 623 LINE",
"106 623 LINE",
"85 306 LINE",
"129 288 LINE",
"160 325 OFFCURVE",
"203 347 OFFCURVE",
"246 347 CURVE SMOOTH",
"317 347 OFFCURVE",
"374 292 OFFCURVE",
"374 199 CURVE SMOOTH",
"374 107 OFFCURVE",
"317 50 OFFCURVE",
"253 50 CURVE SMOOTH",
"188 50 OFFCURVE",
"144 89 OFFCURVE",
"133 108 CURVE SMOOTH",
"132 111 OFFCURVE",
"133 127 OFFCURVE",
"126 131 CURVE",
"64 85 LINE",
"105 24 OFFCURVE",
"173 -11 OFFCURVE",
"249 -11 CURVE SMOOTH"
);
}
);
};
hints = (
{
origin = "{0, 26}";
type = Corner;
name = _corner.rightSpur;
}
);
layerId = "051EFAE4-8BBE-4FBB-A016-4335C3E52F59";
paths = (
{
closed = 1;
nodes = (
"328 239 OFFCURVE",
"387 288 OFFCURVE",
"387 370 CURVE SMOOTH",
"387 451 OFFCURVE",
"333 499 OFFCURVE",
"259 499 CURVE SMOOTH",
"236 499 OFFCURVE",
"211 494 OFFCURVE",
"191 484 CURVE",
"197 586 LINE",
"370 586 LINE",
"370 632 LINE",
"150 632 LINE",
"136 432 LINE",
"171 420 LINE",
"191 442 OFFCURVE",
"219 454 OFFCURVE",
"248 454 CURVE SMOOTH",
"295 454 OFFCURVE",
"332 423 OFFCURVE",
"332 369 CURVE SMOOTH",
"332 317 OFFCURVE",
"294 285 OFFCURVE",
"252 285 CURVE SMOOTH",
"210 285 OFFCURVE",
"184 301 OFFCURVE",
"163 332 CURVE",
"121 299 LINE",
"148 260 OFFCURVE",
"196 239 OFFCURVE",
"250 239 CURVE SMOOTH"
);
}
);
width = 500;
}
);
unicode = 2075;
},
{
color = 9;
glyphname = sixsuperior;
layers = (
{
hints = (
{
origin = "{0, 14}";
type = Corner;
name = _corner.rightSpur;
}
);
layerId = "051EFAE4-8BBE-4FBB-A016-4335C3E52F59";
paths = (
{
closed = 1;
nodes = (
"328 240 OFFCURVE",
"382 294 OFFCURVE",
"382 371 CURVE SMOOTH",
"382 450 OFFCURVE",
"329 498 OFFCURVE",
"264 498 CURVE SMOOTH",
"230 498 OFFCURVE",
"195 482 OFFCURVE",
"176 456 CURVE",
"180 569 OFFCURVE",
"241 590 OFFCURVE",
"278 590 CURVE SMOOTH",
"303 590 OFFCURVE",
"323 583 OFFCURVE",
"340 564 CURVE",
"373 601 LINE",
"345 626 OFFCURVE",
"311 637 OFFCURVE",
"275 637 CURVE SMOOTH",
"183 637 OFFCURVE",
"122 560 OFFCURVE",
"122 422 CURVE SMOOTH",
"122 311 OFFCURVE",
"170 240 OFFCURVE",
"257 240 CURVE SMOOTH"
);
},
{
closed = 1;
nodes = (
"206 286 OFFCURVE",
"173 346 OFFCURVE",
"178 404 CURVE",
"196 431 OFFCURVE",
"227 452 OFFCURVE",
"258 452 CURVE SMOOTH",
"291 452 OFFCURVE",
"329 427 OFFCURVE",
"329 370 CURVE SMOOTH",
"329 316 OFFCURVE",
"296 286 OFFCURVE",
"259 286 CURVE SMOOTH"
);
}
);
width = 500;
}
);
unicode = 2076;
},
{
color = 9;
glyphname = sevensuperior;
layers = (
{
layerId = "051EFAE4-8BBE-4FBB-A016-4335C3E52F59";
paths = (
{
closed = 1;
nodes = (
"240 246 LINE",
"278 369 OFFCURVE",
"325 485 OFFCURVE",
"377 602 CURVE",
"377 632 LINE",
"130 632 LINE",
"130 583 LINE",
"310 583 LINE",
"263 472 OFFCURVE",
"220 362 OFFCURVE",
"180 246 CURVE"
);
},
{
closed = 1;
nodes = (
"188 417 LINE",
"368 417 LINE",
"368 461 LINE",
"188 461 LINE"
);
}
);
width = 500;
}
);
unicode = 2077;
},
{
color = 9;
glyphname = eightsuperior;
layers = (
{
layerId = "051EFAE4-8BBE-4FBB-A016-4335C3E52F59";
paths = (
{
closed = 1;
nodes = (
"332 240 OFFCURVE",
"384 285 OFFCURVE",
"384 347 CURVE SMOOTH",
"384 392 OFFCURVE",
"354 431 OFFCURVE",
"307 451 CURVE",
"346 471 OFFCURVE",
"370 505 OFFCURVE",
"370 544 CURVE SMOOTH",
"370 596 OFFCURVE",
"332 638 OFFCURVE",
"254 638 CURVE SMOOTH",
"178 638 OFFCURVE",
"137 595 OFFCURVE",
"137 540 CURVE SMOOTH",
"137 504 OFFCURVE",
"161 470 OFFCURVE",
"199 452 CURVE",
"149 430 OFFCURVE",
"117 391 OFFCURVE",
"117 344 CURVE SMOOTH",
"117 285 OFFCURVE",
"168 240 OFFCURVE",
"250 240 CURVE SMOOTH"
);
},
{
closed = 1;
nodes = (
"203 287 OFFCURVE",
"172 314 OFFCURVE",
"172 350 CURVE SMOOTH",
"172 386 OFFCURVE",
"202 414 OFFCURVE",
"240 430 CURVE",
"293 415 OFFCURVE",
"329 384 OFFCURVE",
"329 348 CURVE SMOOTH",
"329 313 OFFCURVE",
"301 287 OFFCURVE",
"251 287 CURVE SMOOTH"
);
},
{
closed = 1;
nodes = (
"222 488 OFFCURVE",
"189 507 OFFCURVE",
"189 543 CURVE SMOOTH",
"189 569 OFFCURVE",
"211 592 OFFCURVE",
"252 592 CURVE SMOOTH",
"293 592 OFFCURVE",
"317 569 OFFCURVE",
"317 541 CURVE SMOOTH",
"317 513 OFFCURVE",
"293 486 OFFCURVE",
"262 469 CURVE"
);
}
);
width = 500;
}
);
unicode = 2078;
},
{
color = 9;
glyphname = ninesuperior;
layers = (
{
background = {
components = (
{
name = zero;
transform = "{1, 0, 0, 1, -3, 0}";
}
);
};
hints = (
{
origin = "{0, 33}";
type = Corner;
name = _corner.rightSpur;
}
);
layerId = "051EFAE4-8BBE-4FBB-A016-4335C3E52F59";
paths = (
{
closed = 1;
nodes = (
"327 241 OFFCURVE",
"381 315 OFFCURVE",
"381 467 CURVE SMOOTH",
"381 570 OFFCURVE",
"333 636 OFFCURVE",
"249 636 CURVE SMOOTH",
"178 636 OFFCURVE",
"121 582 OFFCURVE",
"121 508 CURVE SMOOTH",
"121 436 OFFCURVE",
"175 388 OFFCURVE",
"247 388 CURVE SMOOTH",
"291 388 OFFCURVE",
"322 405 OFFCURVE",
"346 430 CURVE",
"341 481 LINE",
"318 446 OFFCURVE",
"292 434 OFFCURVE",
"249 434 CURVE SMOOTH",
"209 434 OFFCURVE",
"174 461 OFFCURVE",
"174 507 CURVE SMOOTH",
"174 560 OFFCURVE",
"205 590 OFFCURVE",
"249 590 CURVE SMOOTH",
"303 590 OFFCURVE",
"329 545 OFFCURVE",
"329 442 CURVE SMOOTH",
"329 359 OFFCURVE",
"297 285 OFFCURVE",
"230 285 CURVE SMOOTH",
"201 285 OFFCURVE",
"181 293 OFFCURVE",
"160 315 CURVE",
"127 275 LINE",
"156 250 OFFCURVE",
"192 240 OFFCURVE",
"234 240 CURVE"
);
}
);
width = 500;
}
);
unicode = 2079;
},
{
color = 9;
glyphname = zerosuperior.ss02;
layers = (
{
background = {
paths = (
{
closed = 1;
nodes = (
"374 -11 OFFCURVE",
"443 104 OFFCURVE",
"443 308 CURVE SMOOTH",
"443 505 OFFCURVE",
"374 627 OFFCURVE",
"250 627 CURVE",
"126 627 OFFCURVE",
"57 505 OFFCURVE",
"57 308 CURVE SMOOTH",
"57 104 OFFCURVE",
"126 -11 OFFCURVE",
"250 -11 CURVE"
);
},
{
closed = 1;
nodes = (
"174 50 OFFCURVE",
"129 142 OFFCURVE",
"129 308 CURVE SMOOTH",
"129 465 OFFCURVE",
"174 566 OFFCURVE",
"250 566 CURVE",
"326 566 OFFCURVE",
"371 465 OFFCURVE",
"371 308 CURVE SMOOTH",
"371 142 OFFCURVE",
"326 50 OFFCURVE",
"250 50 CURVE"
);
}
);
};
layerId = "051EFAE4-8BBE-4FBB-A016-4335C3E52F59";
paths = (
{
closed = 1;
nodes = (
"336 239 OFFCURVE",
"386 311 OFFCURVE",
"386 437 CURVE SMOOTH",
"386 560 OFFCURVE",
"336 636 OFFCURVE",
"250 636 CURVE",
"164 636 OFFCURVE",
"114 560 OFFCURVE",
"114 437 CURVE SMOOTH",
"114 311 OFFCURVE",
"164 239 OFFCURVE",
"250 239 CURVE"
);
},
{
closed = 1;
nodes = (
"198 284 OFFCURVE",
"168 339 OFFCURVE",
"168 437 CURVE SMOOTH",
"168 531 OFFCURVE",
"198 590 OFFCURVE",
"250 590 CURVE",
"302 590 OFFCURVE",
"332 531 OFFCURVE",
"332 437 CURVE SMOOTH",
"332 339 OFFCURVE",
"302 284 OFFCURVE",
"250 284 CURVE"
);
}
);
width = 500;
}
);
},
{
color = 9;
glyphname = zerosuperior.zero;
layers = (
{
background = {
paths = (
{
closed = 1;
nodes = (
"335 251 OFFCURVE",
"406 303 OFFCURVE",
"406 366 CURVE SMOOTH",
"406 409 OFFCURVE",
"375 445 OFFCURVE",
"332 452 CURVE",
"365 463 OFFCURVE",
"389 494 OFFCURVE",
"389 530 CURVE SMOOTH",
"389 589 OFFCURVE",
"331 638 OFFCURVE",
"258 638 CURVE SMOOTH",
"205 638 OFFCURVE",
"160 617 OFFCURVE",
"125 576 CURVE",
"161 539 LINE",
"186 570 OFFCURVE",
"217 585 OFFCURVE",
"255 585 CURVE SMOOTH",
"298 585 OFFCURVE",
"329 556 OFFCURVE",
"329 527 CURVE SMOOTH",
"329 498 OFFCURVE",
"306 475 OFFCURVE",
"246 475 CURVE SMOOTH",
"239 475 OFFCURVE",
"233 475 OFFCURVE",
"226 476 CURVE",
"226 425 LINE",
"237 426 OFFCURVE",
"245 427 OFFCURVE",
"256 427 CURVE SMOOTH",
"311 427 OFFCURVE",
"344 407 OFFCURVE",
"344 372 CURVE SMOOTH",
"344 336 OFFCURVE",
"306 307 OFFCURVE",
"249 307 CURVE SMOOTH",
"220 307 OFFCURVE",
"195 318 OFFCURVE",
"173 340 CURVE",
"166 345 OFFCURVE",
"164 361 OFFCURVE",
"159 368 CURVE",
"112 316 LINE",
"150 273 OFFCURVE",
"198 251 OFFCURVE",
"255 251 CURVE SMOOTH"
);
}
);
};
components = (
{
name = periodcentered;
transform = "{0.6, 0, 0, 0.6, 110, 251}";
},
{
name = zerosuperior.ss02;
}
);
layerId = "051EFAE4-8BBE-4FBB-A016-4335C3E52F59";
width = 500;
}
);
},
{
glyphname = hyphen_greater.liga;
layers = (
{
layerId = "051EFAE4-8BBE-4FBB-A016-4335C3E52F59";
paths = (
{
closed = 1;
nodes = (
"429 22 LINE",
"936 292 LINE",
"936 348 LINE",
"429 618 LINE",
"429 547 LINE",
"793 351 LINE",
"44 351 LINE",
"44 290 LINE",
"795 290 LINE",
"429 93 LINE"
);
}
);
width = 500;
}
);
},
{
glyphname = exclam_equal.liga;
layers = (
{
background = {
paths = (
{
closed = 1;
nodes = (
"285 104 LINE",
"285 291 LINE",
"456 291 LINE",
"456 352 LINE",
"285 352 LINE",
"285 523 LINE",
"222 523 LINE",
"222 352 LINE",
"45 352 LINE",
"45 291 LINE",
"222 291 LINE",
"222 104 LINE"
);
}
);
};
layerId = "051EFAE4-8BBE-4FBB-A016-4335C3E52F59";
paths = (
{
closed = 1;
nodes = (
"956 389 LINE",
"956 450 LINE",
"45 450 LINE",
"45 389 LINE"
);
},
{
closed = 1;
nodes = (
"956 182 LINE",
"956 243 LINE",
"45 243 LINE",
"45 182 LINE"
);
},
{
closed = 1;
nodes = (
"325 60 LINE",
"368 36 LINE",
"677 572 LINE",
"634 597 LINE"
);
}
);
width = 500;
}
);
},
{
glyphname = exclam_equal_equal.liga;
layers = (
{
components = (
{
name = equal_equal_equal.liga;
}
);
layerId = "051EFAE4-8BBE-4FBB-A016-4335C3E52F59";
paths = (
{
closed = 1;
nodes = (
"934 644 LINE",
"880 672 LINE",
"564 -13 LINE",
"617 -39 LINE"
);
}
);
width = 500;
}
);
},
{
glyphname = period;
layers = (
{
background = {
paths = (
{
closed = 1;
nodes = (
"269 -11 OFFCURVE",
"295 15 OFFCURVE",
"295 46 CURVE SMOOTH",
"295 77 OFFCURVE",
"269 103 OFFCURVE",
"238 103 CURVE SMOOTH",
"206 103 OFFCURVE",
"180 77 OFFCURVE",
"180 46 CURVE SMOOTH",
"180 15 OFFCURVE",
"206 -11 OFFCURVE",
"238 -11 CURVE SMOOTH"
);
}
);
};
layerId = "051EFAE4-8BBE-4FBB-A016-4335C3E52F59";
paths = (
{
closed = 1;
nodes = (
"269 -11 OFFCURVE",
"295 15 OFFCURVE",
"295 46 CURVE SMOOTH",
"295 77 OFFCURVE",
"269 103 OFFCURVE",
"238 103 CURVE SMOOTH",
"206 103 OFFCURVE",
"180 77 OFFCURVE",
"180 46 CURVE SMOOTH",
"180 15 OFFCURVE",
"206 -11 OFFCURVE",
"238 -11 CURVE SMOOTH"
);
}
);
width = 500;
}
);
unicode = 002E;
},
{
glyphname = comma;
layers = (
{
layerId = "051EFAE4-8BBE-4FBB-A016-4335C3E52F59";
paths = (
{
closed = 1;
nodes = (
"270 -95 OFFCURVE",
"306 -33 OFFCURVE",
"306 20 CURVE SMOOTH",
"306 69 OFFCURVE",
"273 103 OFFCURVE",
"238 103 CURVE SMOOTH",
"203 103 OFFCURVE",
"179 77 OFFCURVE",
"179 44 CURVE SMOOTH",
"179 8 OFFCURVE",
"230 -6 OFFCURVE",
"230 -33 CURVE SMOOTH",
"230 -58 OFFCURVE",
"202 -103 OFFCURVE",
"165 -138 CURVE",
"199 -168 LINE"
);
}
);
width = 500;
}
);
unicode = 002C;
},
{
glyphname = colon;
layers = (
{
layerId = "051EFAE4-8BBE-4FBB-A016-4335C3E52F59";
paths = (
{
closed = 1;
nodes = (
"270 308 OFFCURVE",
"298 334 OFFCURVE",
"298 365 CURVE SMOOTH",
"298 397 OFFCURVE",
"269 423 OFFCURVE",
"238 423 CURVE SMOOTH",
"207 423 OFFCURVE",
"179 397 OFFCURVE",
"179 365 CURVE SMOOTH",
"179 334 OFFCURVE",
"207 308 OFFCURVE",
"238 308 CURVE SMOOTH"
);
},
{
closed = 1;
nodes = (
"271 -11 OFFCURVE",
"298 15 OFFCURVE",
"298 46 CURVE SMOOTH",
"298 78 OFFCURVE",
"269 104 OFFCURVE",
"238 104 CURVE SMOOTH",
"207 104 OFFCURVE",
"179 78 OFFCURVE",
"179 46 CURVE SMOOTH",
"179 14 OFFCURVE",
"205 -11 OFFCURVE",
"238 -11 CURVE SMOOTH"
);
}
);
width = 500;
}
);
unicode = 003A;
},
{
glyphname = semicolon;
layers = (
{
layerId = "051EFAE4-8BBE-4FBB-A016-4335C3E52F59";
paths = (
{
closed = 1;
nodes = (
"270 -95 OFFCURVE",
"306 -33 OFFCURVE",
"306 20 CURVE SMOOTH",
"306 69 OFFCURVE",
"273 103 OFFCURVE",
"238 103 CURVE SMOOTH",
"203 103 OFFCURVE",
"179 77 OFFCURVE",
"179 44 CURVE SMOOTH",
"179 8 OFFCURVE",
"230 -6 OFFCURVE",
"230 -33 CURVE SMOOTH",
"230 -58 OFFCURVE",
"202 -103 OFFCURVE",
"165 -138 CURVE",
"199 -168 LINE"
);
},
{
closed = 1;
nodes = (
"270 308 OFFCURVE",
"298 334 OFFCURVE",
"298 365 CURVE SMOOTH",
"298 397 OFFCURVE",
"269 423 OFFCURVE",
"238 423 CURVE SMOOTH",
"207 423 OFFCURVE",
"179 397 OFFCURVE",
"179 365 CURVE SMOOTH",
"179 334 OFFCURVE",
"207 308 OFFCURVE",
"238 308 CURVE SMOOTH"
);
}
);
width = 500;
}
);
unicode = 003B;
},
{
glyphname = ellipsis;
layers = (
{
background = {
paths = (
{
closed = 1;
nodes = (
"271 -11 OFFCURVE",
"298 15 OFFCURVE",
"298 46 CURVE SMOOTH",
"298 78 OFFCURVE",
"269 104 OFFCURVE",
"238 104 CURVE SMOOTH",
"207 104 OFFCURVE",
"179 78 OFFCURVE",
"179 46 CURVE SMOOTH",
"179 14 OFFCURVE",
"205 -11 OFFCURVE",
"238 -11 CURVE SMOOTH"
);
},
{
closed = 1;
nodes = (
"99 -11 OFFCURVE",
"125 15 OFFCURVE",
"125 46 CURVE SMOOTH",
"125 78 OFFCURVE",
"98 104 OFFCURVE",
"66 104 CURVE SMOOTH",
"34 104 OFFCURVE",
"7 77 OFFCURVE",
"7 46 CURVE SMOOTH",
"7 15 OFFCURVE",
"31 -11 OFFCURVE",
"66 -11 CURVE SMOOTH"
);
},
{
closed = 1;
nodes = (
"444 -11 OFFCURVE",
"470 15 OFFCURVE",
"470 46 CURVE SMOOTH",
"470 78 OFFCURVE",
"443 104 OFFCURVE",
"411 104 CURVE SMOOTH",
"380 104 OFFCURVE",
"352 78 OFFCURVE",
"352 46 CURVE SMOOTH",
"352 14 OFFCURVE",
"378 -11 OFFCURVE",
"411 -11 CURVE SMOOTH"
);
}
);
};
layerId = "051EFAE4-8BBE-4FBB-A016-4335C3E52F59";
paths = (
{
closed = 1;
nodes = (
"97 -11 OFFCURVE",
"123 15 OFFCURVE",
"123 46 CURVE SMOOTH",
"123 77 OFFCURVE",
"97 103 OFFCURVE",
"66 103 CURVE SMOOTH",
"34 103 OFFCURVE",
"8 77 OFFCURVE",
"8 46 CURVE SMOOTH",
"8 15 OFFCURVE",
"34 -11 OFFCURVE",
"66 -11 CURVE SMOOTH"
);
},
{
closed = 1;
nodes = (
"269 -11 OFFCURVE",
"295 15 OFFCURVE",
"295 46 CURVE SMOOTH",
"295 77 OFFCURVE",
"269 103 OFFCURVE",
"238 103 CURVE SMOOTH",
"206 103 OFFCURVE",
"180 77 OFFCURVE",
"180 46 CURVE SMOOTH",
"180 15 OFFCURVE",
"206 -11 OFFCURVE",
"238 -11 CURVE SMOOTH"
);
},
{
closed = 1;
nodes = (
"443 -11 OFFCURVE",
"469 15 OFFCURVE",
"469 46 CURVE SMOOTH",
"469 77 OFFCURVE",
"443 103 OFFCURVE",
"412 103 CURVE SMOOTH",
"380 103 OFFCURVE",
"354 77 OFFCURVE",
"354 46 CURVE SMOOTH",
"354 15 OFFCURVE",
"380 -11 OFFCURVE",
"412 -11 CURVE SMOOTH"
);
}
);
width = 500;
}
);
unicode = 2026;
},
{
glyphname = exclam;
layers = (
{
layerId = "051EFAE4-8BBE-4FBB-A016-4335C3E52F59";
paths = (
{
closed = 1;
nodes = (
"265 194 LINE",
"292 584 LINE",
"292 644 OFFCURVE",
"272 668 OFFCURVE",
"241 668 CURVE SMOOTH",
"209 668 OFFCURVE",
"190 641 OFFCURVE",
"190 594 CURVE",
"215 194 LINE"
);
},
{
closed = 1;
nodes = (
"271 -11 OFFCURVE",
"299 16 OFFCURVE",
"299 47 CURVE SMOOTH",
"299 79 OFFCURVE",
"271 107 OFFCURVE",
"239 107 CURVE SMOOTH",
"207 107 OFFCURVE",
"180 79 OFFCURVE",
"180 47 CURVE SMOOTH",
"180 15 OFFCURVE",
"207 -11 OFFCURVE",
"239 -11 CURVE SMOOTH"
);
}
);
width = 500;
}
);
unicode = 0021;
},
{
glyphname = question;
layers = (
{
background = {
components = (
{
name = period;
transform = "{1, 0, 0, 1, 23, 0}";
}
);
};
components = (
{
name = period;
transform = "{1, 0, 0, 1, 23, 0}";
}
);
hints = (
{
origin = "{0, 11}";
type = Corner;
name = _corner.topSpur;
}
);
layerId = "051EFAE4-8BBE-4FBB-A016-4335C3E52F59";
paths = (
{
closed = 1;
nodes = (
"292 185 LINE",
"292 226 LINE SMOOTH",
"292 352 OFFCURVE",
"434 347 OFFCURVE",
"434 509 CURVE SMOOTH",
"434 605 OFFCURVE",
"363 665 OFFCURVE",
"257 665 CURVE SMOOTH",
"158 665 OFFCURVE",
"107 626 OFFCURVE",
"64 561 CURVE",
"110 523 LINE",
"145 580 OFFCURVE",
"187 604 OFFCURVE",
"254 604 CURVE SMOOTH",
"319 604 OFFCURVE",
"365 564 OFFCURVE",
"365 504 CURVE SMOOTH",
"365 366 OFFCURVE",
"226 372 OFFCURVE",
"226 226 CURVE SMOOTH",
"226 185 LINE"
);
}
);
width = 500;
}
);
unicode = 003F;
},
{
glyphname = periodcentered;
layers = (
{
layerId = "051EFAE4-8BBE-4FBB-A016-4335C3E52F59";
paths = (
{
closed = 1;
nodes = (
"271 274 OFFCURVE",
"298 300 OFFCURVE",
"298 331 CURVE SMOOTH",
"298 363 OFFCURVE",
"268 388 OFFCURVE",
"238 388 CURVE SMOOTH",
"207 388 OFFCURVE",
"179 363 OFFCURVE",
"179 331 CURVE SMOOTH",
"179 299 OFFCURVE",
"205 274 OFFCURVE",
"238 274 CURVE SMOOTH"
);
}
);
width = 500;
}
);
unicode = 00B7;
},
{
glyphname = bullet;
layers = (
{
background = {
paths = (
{
closed = 1;
nodes = (
"297 213 OFFCURVE",
"335 251 OFFCURVE",
"335 296 CURVE SMOOTH",
"335 342 OFFCURVE",
"296 380 OFFCURVE",
"250 380 CURVE SMOOTH",
"205 380 OFFCURVE",
"165 343 OFFCURVE",
"165 296 CURVE SMOOTH",
"165 251 OFFCURVE",
"203 213 OFFCURVE",
"250 213 CURVE SMOOTH"
);
}
);
};
layerId = "051EFAE4-8BBE-4FBB-A016-4335C3E52F59";
paths = (
{
closed = 1;
nodes = (
"297 213 OFFCURVE",
"335 251 OFFCURVE",
"335 296 CURVE SMOOTH",
"335 342 OFFCURVE",
"296 380 OFFCURVE",
"250 380 CURVE SMOOTH",
"205 380 OFFCURVE",
"165 343 OFFCURVE",
"165 296 CURVE SMOOTH",
"165 251 OFFCURVE",
"203 213 OFFCURVE",
"250 213 CURVE SMOOTH"
);
}
);
width = 500;
}
);
unicode = 2022;
},
{
glyphname = hypodiastole;
layers = (
{
guideLines = (
{
angle = 90;
position = "{183, 113}";
}
);
layerId = "051EFAE4-8BBE-4FBB-A016-4335C3E52F59";
paths = (
{
closed = 1;
nodes = (
"278 -130 OFFCURVE",
"334 -68 OFFCURVE",
"334 4 CURVE SMOOTH",
"334 78 OFFCURVE",
"277 139 OFFCURVE",
"200 139 CURVE",
"200 86 LINE",
"245 86 OFFCURVE",
"274 47 OFFCURVE",
"274 5 CURVE SMOOTH",
"274 -38 OFFCURVE",
"244 -75 OFFCURVE",
"200 -75 CURVE",
"200 -130 LINE"
);
}
);
width = 500;
}
);
unicode = 2E12;
},
{
glyphname = numbersign;
layers = (
{
layerId = "051EFAE4-8BBE-4FBB-A016-4335C3E52F59";
paths = (
{
closed = 1;
nodes = (
"331 14 LINE",
"353 196 LINE",
"452 196 LINE",
"457 241 LINE",
"358 241 LINE",
"379 410 LINE",
"470 410 LINE",
"476 457 LINE",
"385 457 LINE",
"405 623 LINE",
"343 622 LINE",
"323 455 LINE",
"213 455 LINE",
"234 626 LINE",
"173 624 LINE",
"153 453 LINE",
"42 453 LINE",
"39 407 LINE",
"148 407 LINE",
"128 236 LINE",
"29 236 LINE",
"25 191 LINE",
"122 191 LINE",
"101 13 LINE",
"160 14 LINE",
"181 193 LINE",
"292 193 LINE",
"270 10 LINE"
);
},
{
closed = 1;
nodes = (
"207 408 LINE",
"318 408 LINE",
"297 238 LINE",
"187 238 LINE"
);
}
);
width = 500;
}
);
unicode = 0023;
},
{
glyphname = slash;
layers = (
{
layerId = "051EFAE4-8BBE-4FBB-A016-4335C3E52F59";
paths = (
{
closed = 1;
nodes = (
"437 634 LINE",
"377 665 LINE",
"64 -13 LINE",
"123 -42 LINE"
);
}
);
width = 500;
}
);
unicode = 002F;
},
{
glyphname = backslash;
layers = (
{
layerId = "051EFAE4-8BBE-4FBB-A016-4335C3E52F59";
paths = (
{
closed = 1;
nodes = (
"437 -13 LINE",
"123 665 LINE",
"64 634 LINE",
"378 -42 LINE"
);
}
);
width = 500;
}
);
unicode = 005C;
},
{
glyphname = hyphen;
layers = (
{
background = {
paths = (
{
closed = 1;
nodes = (
"431 281 LINE",
"431 348 LINE",
"71 348 LINE",
"71 281 LINE"
);
}
);
};
layerId = "051EFAE4-8BBE-4FBB-A016-4335C3E52F59";
paths = (
{
closed = 1;
nodes = (
"391 281 LINE",
"391 348 LINE",
"111 348 LINE",
"111 281 LINE"
);
}
);
width = 500;
}
);
unicode = 002D;
},
{
glyphname = endash;
layers = (
{
background = {
paths = (
{
closed = 1;
nodes = (
"391 281 LINE",
"391 348 LINE",
"111 348 LINE",
"111 281 LINE"
);
}
);
};
layerId = "051EFAE4-8BBE-4FBB-A016-4335C3E52F59";
paths = (
{
closed = 1;
nodes = (
"431 281 LINE",
"431 348 LINE",
"71 348 LINE",
"71 281 LINE"
);
}
);
width = 500;
}
);
unicode = 2013;
},
{
glyphname = emdash;
layers = (
{
layerId = "051EFAE4-8BBE-4FBB-A016-4335C3E52F59";
paths = (
{
closed = 1;
nodes = (
"490 281 LINE",
"490 348 LINE",
"10 348 LINE",
"10 281 LINE"
);
}
);
width = 500;
}
);
unicode = 2014;
},
{
glyphname = underscore;
layers = (
{
layerId = "051EFAE4-8BBE-4FBB-A016-4335C3E52F59";
paths = (
{
closed = 1;
nodes = (
"466 -80 LINE",
"466 -19 LINE",
"35 -19 LINE",
"35 -80 LINE"
);
}
);
width = 500;
}
);
unicode = 005F;
},
{
glyphname = parenleft;
layers = (
{
background = {
paths = (
{
closed = 1;
nodes = (
"414 -114 LINE",
"279 -43 OFFCURVE",
"193 98 OFFCURVE",
"193 247 CURVE SMOOTH",
"193 397 OFFCURVE",
"279 533 OFFCURVE",
"408 603 CURVE",
"408 603 LINE",
"389 665 LINE",
"227 589 OFFCURVE",
"122 427 OFFCURVE",
"122 250 CURVE SMOOTH",
"122 72 OFFCURVE",
"229 -97 OFFCURVE",
"395 -174 CURVE"
);
}
);
};
layerId = "051EFAE4-8BBE-4FBB-A016-4335C3E52F59";
paths = (
{
closed = 1;
nodes = (
"414 -44 LINE",
"279 27 OFFCURVE",
"193 168 OFFCURVE",
"193 317 CURVE SMOOTH",
"193 467 OFFCURVE",
"279 603 OFFCURVE",
"408 673 CURVE",
"389 735 LINE",
"227 659 OFFCURVE",
"122 497 OFFCURVE",
"122 320 CURVE SMOOTH",
"122 142 OFFCURVE",
"229 -27 OFFCURVE",
"395 -104 CURVE"
);
}
);
width = 500;
}
);
unicode = 0028;
},
{
glyphname = braceleft;
layers = (
{
layerId = "051EFAE4-8BBE-4FBB-A016-4335C3E52F59";
paths = (
{
closed = 1;
nodes = (
"407 -95 LINE",
"407 -39 LINE",
"356 -39 LINE SMOOTH",
"267 -39 OFFCURVE",
"230 -10 OFFCURVE",
"230 81 CURVE",
"233 165 LINE",
"233 250 OFFCURVE",
"205 301 OFFCURVE",
"148 320 CURVE",
"206 345 OFFCURVE",
"235 394 OFFCURVE",
"235 468 CURVE",
"233 538 LINE",
"233 609 OFFCURVE",
"264 644 OFFCURVE",
"326 644 CURVE SMOOTH",
"408 644 LINE",
"408 701 LINE",
"345 701 LINE SMOOTH",
"224 701 OFFCURVE",
"163 643 OFFCURVE",
"163 527 CURVE",
"165 455 LINE",
"165 379 OFFCURVE",
"133 348 OFFCURVE",
"72 348 CURVE SMOOTH",
"53 348 LINE",
"53 292 LINE",
"73 292 LINE SMOOTH",
"130 292 OFFCURVE",
"163 268 OFFCURVE",
"163 180 CURVE",
"159 80 LINE SMOOTH",
"153 -60 OFFCURVE",
"227 -95 OFFCURVE",
"371 -95 CURVE SMOOTH"
);
}
);
width = 500;
}
);
unicode = 007B;
},
{
glyphname = bracketleft;
layers = (
{
layerId = "051EFAE4-8BBE-4FBB-A016-4335C3E52F59";
paths = (
{
closed = 1;
nodes = (
"418 -89 LINE",
"418 -32 LINE",
"195 -32 LINE",
"195 610 LINE",
"417 610 LINE",
"417 670 LINE",
"131 670 LINE",
"131 -89 LINE"
);
}
);
width = 500;
}
);
unicode = 005B;
},
{
glyphname = quotesinglbase;
layers = (
{
background = {
paths = (
{
closed = 1;
nodes = (
"270 -95 OFFCURVE",
"306 -33 OFFCURVE",
"306 20 CURVE SMOOTH",
"306 69 OFFCURVE",
"283 103 OFFCURVE",
"238 103 CURVE SMOOTH",
"203 103 OFFCURVE",
"179 77 OFFCURVE",
"179 44 CURVE SMOOTH",
"179 0 OFFCURVE",
"230 -6 OFFCURVE",
"230 -33 CURVE SMOOTH",
"230 -58 OFFCURVE",
"202 -103 OFFCURVE",
"165 -138 CURVE",
"199 -168 LINE"
);
}
);
};
components = (
{
name = quoteright;
transform = "{1, 0, 0, 1, 0, -532}";
}
);
layerId = "051EFAE4-8BBE-4FBB-A016-4335C3E52F59";
width = 500;
}
);
unicode = 201A;
},
{
glyphname = quotedblbase;
layers = (
{
background = {
paths = (
{
closed = 1;
nodes = (
"374 -97 OFFCURVE",
"409 -34 OFFCURVE",
"409 20 CURVE SMOOTH",
"409 69 OFFCURVE",
"377 103 OFFCURVE",
"341 103 CURVE SMOOTH",
"306 103 OFFCURVE",
"282 77 OFFCURVE",
"282 44 CURVE SMOOTH",
"282 8 OFFCURVE",
"333 -6 OFFCURVE",
"333 -33 CURVE SMOOTH",
"333 -58 OFFCURVE",
"307 -103 OFFCURVE",
"268 -138 CURVE",
"303 -168 LINE"
);
},
{
closed = 1;
nodes = (
"167 -97 OFFCURVE",
"202 -34 OFFCURVE",
"202 20 CURVE SMOOTH",
"202 69 OFFCURVE",
"170 103 OFFCURVE",
"134 103 CURVE SMOOTH",
"99 103 OFFCURVE",
"75 77 OFFCURVE",
"75 44 CURVE SMOOTH",
"75 10 OFFCURVE",
"126 -6 OFFCURVE",
"126 -33 CURVE SMOOTH",
"126 -58 OFFCURVE",
"100 -103 OFFCURVE",
"61 -138 CURVE",
"96 -168 LINE"
);
}
);
};
layerId = "051EFAE4-8BBE-4FBB-A016-4335C3E52F59";
paths = (
{
closed = 1;
nodes = (
"165 -92 OFFCURVE",
"201 -30 OFFCURVE",
"201 23 CURVE SMOOTH",
"201 72 OFFCURVE",
"168 106 OFFCURVE",
"133 106 CURVE SMOOTH",
"98 106 OFFCURVE",
"74 80 OFFCURVE",
"74 47 CURVE SMOOTH",
"74 12 OFFCURVE",
"125 -2 OFFCURVE",
"125 -30 CURVE SMOOTH",
"125 -55 OFFCURVE",
"97 -100 OFFCURVE",
"60 -135 CURVE",
"94 -165 LINE"
);
},
{
closed = 1;
nodes = (
"375 -92 OFFCURVE",
"411 -30 OFFCURVE",
"411 23 CURVE SMOOTH",
"411 72 OFFCURVE",
"378 106 OFFCURVE",
"343 106 CURVE SMOOTH",
"308 106 OFFCURVE",
"284 80 OFFCURVE",
"284 47 CURVE SMOOTH",
"284 12 OFFCURVE",
"335 -2 OFFCURVE",
"335 -30 CURVE SMOOTH",
"335 -55 OFFCURVE",
"307 -100 OFFCURVE",
"270 -135 CURVE",
"304 -165 LINE"
);
}
);
width = 500;
}
);
unicode = 201E;
},
{
glyphname = quotedblleft;
layers = (
{
background = {
paths = (
{
closed = 1;
nodes = (
"388 367 OFFCURVE",
"413 393 OFFCURVE",
"413 425 CURVE SMOOTH",
"413 461 OFFCURVE",
"361 476 OFFCURVE",
"361 502 CURVE SMOOTH",
"361 527 OFFCURVE",
"389 574 OFFCURVE",
"426 607 CURVE",
"392 638 LINE",
"321 567 OFFCURVE",
"286 504 OFFCURVE",
"286 450 CURVE SMOOTH",
"286 401 OFFCURVE",
"318 367 OFFCURVE",
"353 367 CURVE SMOOTH"
);
},
{
closed = 1;
nodes = (
"181 367 OFFCURVE",
"206 393 OFFCURVE",
"206 425 CURVE SMOOTH",
"206 461 OFFCURVE",
"154 476 OFFCURVE",
"154 502 CURVE SMOOTH",
"154 527 OFFCURVE",
"182 574 OFFCURVE",
"219 607 CURVE",
"185 638 LINE",
"114 567 OFFCURVE",
"79 504 OFFCURVE",
"79 450 CURVE SMOOTH",
"79 401 OFFCURVE",
"111 367 OFFCURVE",
"146 367 CURVE SMOOTH"
);
}
);
};
layerId = "051EFAE4-8BBE-4FBB-A016-4335C3E52F59";
paths = (
{
closed = 1;
nodes = (
"116 565 OFFCURVE",
"80 503 OFFCURVE",
"80 450 CURVE SMOOTH",
"80 401 OFFCURVE",
"113 367 OFFCURVE",
"148 367 CURVE SMOOTH",
"183 367 OFFCURVE",
"207 393 OFFCURVE",
"207 426 CURVE SMOOTH",
"207 461 OFFCURVE",
"156 475 OFFCURVE",
"156 503 CURVE SMOOTH",
"156 528 OFFCURVE",
"184 573 OFFCURVE",
"221 608 CURVE",
"187 638 LINE"
);
},
{
closed = 1;
nodes = (
"321 565 OFFCURVE",
"285 503 OFFCURVE",
"285 450 CURVE SMOOTH",
"285 401 OFFCURVE",
"318 367 OFFCURVE",
"353 367 CURVE SMOOTH",
"388 367 OFFCURVE",
"412 393 OFFCURVE",
"412 426 CURVE SMOOTH",
"412 461 OFFCURVE",
"361 475 OFFCURVE",
"361 503 CURVE SMOOTH",
"361 528 OFFCURVE",
"389 573 OFFCURVE",
"426 608 CURVE",
"392 638 LINE"
);
}
);
width = 500;
}
);
unicode = 201C;
},
{
glyphname = quoteleft;
layers = (
{
background = {
paths = (
{
closed = 1;
nodes = (
"285 367 OFFCURVE",
"309 393 OFFCURVE",
"309 425 CURVE SMOOTH",
"309 461 OFFCURVE",
"258 475 OFFCURVE",
"258 502 CURVE SMOOTH",
"258 527 OFFCURVE",
"286 574 OFFCURVE",
"323 607 CURVE",
"288 638 LINE",
"217 567 OFFCURVE",
"182 504 OFFCURVE",
"182 450 CURVE SMOOTH",
"182 401 OFFCURVE",
"215 367 OFFCURVE",
"250 367 CURVE SMOOTH"
);
}
);
};
layerId = "051EFAE4-8BBE-4FBB-A016-4335C3E52F59";
paths = (
{
closed = 1;
nodes = (
"216 565 OFFCURVE",
"180 503 OFFCURVE",
"180 450 CURVE SMOOTH",
"180 401 OFFCURVE",
"213 367 OFFCURVE",
"248 367 CURVE SMOOTH",
"283 367 OFFCURVE",
"307 393 OFFCURVE",
"307 426 CURVE SMOOTH",
"307 461 OFFCURVE",
"256 475 OFFCURVE",
"256 503 CURVE SMOOTH",
"256 528 OFFCURVE",
"284 573 OFFCURVE",
"321 608 CURVE",
"287 638 LINE"
);
}
);
width = 500;
}
);
unicode = 2018;
},
{
glyphname = quoteright;
layers = (
{
layerId = "051EFAE4-8BBE-4FBB-A016-4335C3E52F59";
paths = (
{
closed = 1;
nodes = (
"270 440 OFFCURVE",
"306 502 OFFCURVE",
"306 555 CURVE SMOOTH",
"306 604 OFFCURVE",
"273 638 OFFCURVE",
"238 638 CURVE SMOOTH",
"203 638 OFFCURVE",
"179 612 OFFCURVE",
"179 579 CURVE SMOOTH",
"179 544 OFFCURVE",
"230 530 OFFCURVE",
"230 502 CURVE SMOOTH",
"230 477 OFFCURVE",
"202 432 OFFCURVE",
"165 397 CURVE",
"199 367 LINE"
);
}
);
width = 500;
}
);
unicode = 2019;
},
{
glyphname = guillemetleft;
layers = (
{
layerId = "051EFAE4-8BBE-4FBB-A016-4335C3E52F59";
paths = (
{
closed = 1;
nodes = (
"265 101 LINE",
"137 241 LINE",
"258 359 LINE",
"219 400 LINE",
"67 253 LINE",
"67 230 LINE",
"225 61 LINE"
);
},
{
closed = 1;
nodes = (
"446 101 LINE",
"318 241 LINE",
"439 359 LINE",
"400 400 LINE",
"249 253 LINE",
"249 230 LINE",
"406 61 LINE"
);
}
);
width = 500;
}
);
unicode = 00AB;
},
{
glyphname = guilsinglleft;
layers = (
{
layerId = "051EFAE4-8BBE-4FBB-A016-4335C3E52F59";
paths = (
{
closed = 1;
nodes = (
"343 101 LINE",
"215 241 LINE",
"336 359 LINE",
"297 400 LINE",
"145 253 LINE",
"145 230 LINE",
"303 61 LINE"
);
}
);
width = 500;
}
);
unicode = 2039;
},
{
glyphname = guilsinglright;
layers = (
{
layerId = "051EFAE4-8BBE-4FBB-A016-4335C3E52F59";
paths = (
{
closed = 1;
nodes = (
"343 230 LINE",
"343 253 LINE",
"191 400 LINE",
"152 359 LINE",
"273 241 LINE",
"145 101 LINE",
"185 61 LINE"
);
}
);
width = 500;
}
);
unicode = 203A;
},
{
glyphname = quotesingle;
layers = (
{
background = {
guideLines = (
{
position = "{243, 505}";
}
);
paths = (
{
closed = 1;
nodes = (
"210 505 OFFCURVE",
"217 493 OFFCURVE",
"226 407 CURVE",
"274 407 LINE",
"283 493 OFFCURVE",
"290 506 OFFCURVE",
"290 665 CURVE",
"210 665 LINE"
);
}
);
};
layerId = "051EFAE4-8BBE-4FBB-A016-4335C3E52F59";
paths = (
{
closed = 1;
nodes = (
"210 505 OFFCURVE",
"217 493 OFFCURVE",
"226 407 CURVE",
"274 407 LINE",
"283 493 OFFCURVE",
"290 506 OFFCURVE",
"290 665 CURVE",
"210 665 LINE"
);
}
);
width = 500;
}
);
unicode = 0027;
},
{
color = 4;
glyphname = quotesingle.ss03;
layers = (
{
layerId = "051EFAE4-8BBE-4FBB-A016-4335C3E52F59";
paths = (
{
closed = 1;
nodes = (
"302 519 OFFCURVE",
"319 564 OFFCURVE",
"319 613 CURVE SMOOTH",
"319 647 OFFCURVE",
"303 665 OFFCURVE",
"275 665 CURVE SMOOTH",
"246 665 OFFCURVE",
"231 647 OFFCURVE",
"231 611 CURVE SMOOTH",
"231 564 OFFCURVE",
"236 516 OFFCURVE",
"206 425 CURVE",
"261 409 LINE"
);
}
);
width = 500;
}
);
},
{
glyphname = florin;
layers = (
{
layerId = "051EFAE4-8BBE-4FBB-A016-4335C3E52F59";
paths = (
{
closed = 1;
nodes = (
"175 -175 OFFCURVE",
"233 -123 OFFCURVE",
"246 24 CURVE",
"270 326 LINE",
"398 326 LINE",
"398 383 LINE",
"275 383 LINE",
"281 465 LINE SMOOTH",
"289 588 OFFCURVE",
"320 616 OFFCURVE",
"369 616 CURVE SMOOTH",
"400 616 OFFCURVE",
"433 595 OFFCURVE",
"438 564 CURVE SMOOTH",
"439 557 OFFCURVE",
"442 554 OFFCURVE",
"447 554 CURVE",
"480 620 LINE",
"451 655 OFFCURVE",
"413 673 OFFCURVE",
"368 673 CURVE SMOOTH",
"280 673 OFFCURVE",
"223 612 OFFCURVE",
"212 475 CURVE SMOOTH",
"205 383 LINE",
"80 383 LINE",
"80 326 LINE",
"201 326 LINE",
"179 27 LINE SMOOTH",
"172 -62 OFFCURVE",
"146 -108 OFFCURVE",
"109 -108 CURVE SMOOTH",
"65 -108 OFFCURVE",
"68 -79 OFFCURVE",
"59 -76 CURVE",
"18 -140 LINE",
"40 -163 OFFCURVE",
"67 -175 OFFCURVE",
"100 -175 CURVE SMOOTH"
);
}
);
width = 500;
}
);
unicode = 0192;
},
{
glyphname = "lowernumeral-greek";
layers = (
{
layerId = "051EFAE4-8BBE-4FBB-A016-4335C3E52F59";
paths = (
{
closed = 1;
nodes = (
"306 104 LINE",
"235 104 LINE",
"173 -76 LINE",
"217 -76 LINE"
);
}
);
width = 500;
}
);
unicode = 0375;
},
{
glyphname = equal_equal.liga;
layers = (
{
background = {
paths = (
{
closed = 1;
nodes = (
"285 104 LINE",
"285 291 LINE",
"456 291 LINE",
"456 352 LINE",
"285 352 LINE",
"285 523 LINE",
"222 523 LINE",
"222 352 LINE",
"45 352 LINE",
"45 291 LINE",
"222 291 LINE",
"222 104 LINE"
);
}
);
};
layerId = "051EFAE4-8BBE-4FBB-A016-4335C3E52F59";
paths = (
{
closed = 1;
nodes = (
"956 389 LINE",
"956 450 LINE",
"45 450 LINE",
"45 389 LINE"
);
},
{
closed = 1;
nodes = (
"956 182 LINE",
"956 243 LINE",
"45 243 LINE",
"45 182 LINE"
);
}
);
width = 500;
}
);
},
{
glyphname = equal_equal_equal.liga;
layers = (
{
layerId = "051EFAE4-8BBE-4FBB-A016-4335C3E52F59";
paths = (
{
closed = 1;
nodes = (
"45 475 LINE",
"1455 475 LINE",
"1455 536 LINE",
"45 536 LINE"
);
},
{
closed = 1;
nodes = (
"45 284 LINE",
"1455 284 LINE",
"1455 345 LINE",
"45 345 LINE"
);
},
{
closed = 1;
nodes = (
"45 94 LINE",
"1455 94 LINE",
"1455 155 LINE",
"45 155 LINE"
);
}
);
width = 500;
}
);
},
{
glyphname = equal_greater.liga;
layers = (
{
layerId = "051EFAE4-8BBE-4FBB-A016-4335C3E52F59";
paths = (
{
closed = 1;
nodes = (
"429 618 LINE",
"429 465 LINE",
"44 465 LINE",
"44 404 LINE",
"490 404 LINE",
"490 514 LINE",
"851 320 LINE",
"490 126 LINE",
"490 236 LINE",
"44 236 LINE",
"44 175 LINE",
"429 175 LINE",
"429 22 LINE",
"936 292 LINE",
"936 348 LINE"
);
}
);
width = 500;
}
);
},
{
glyphname = greater_equal.liga;
layers = (
{
layerId = "051EFAE4-8BBE-4FBB-A016-4335C3E52F59";
paths = (
{
closed = 1;
nodes = (
"45 -67 LINE",
"749 281 LINE",
"749 357 LINE",
"45 705 LINE",
"45 629 LINE",
"672 319 LINE",
"45 9 LINE"
);
},
{
closed = 1;
nodes = (
"440 356 LINE",
"45 161 LINE",
"45 85 LINE",
"516 318 LINE"
);
}
);
width = 500;
}
);
},
{
glyphname = less_equal.liga;
layers = (
{
layerId = "051EFAE4-8BBE-4FBB-A016-4335C3E52F59";
paths = (
{
closed = 1;
nodes = (
"122 319 LINE",
"749 629 LINE",
"749 705 LINE",
"45 357 LINE",
"45 281 LINE",
"749 -67 LINE",
"749 9 LINE"
);
},
{
closed = 1;
nodes = (
"749 85 LINE",
"749 161 LINE",
"354 356 LINE",
"278 318 LINE"
);
}
);
width = 500;
}
);
},
{
color = 4;
glyphname = whiteFrowningFace;
layers = (
{
background = {
components = (
{
name = breve;
transform = "{0.7224, 0, 0, 0.7224, 69, -190}";
}
);
};
layerId = "051EFAE4-8BBE-4FBB-A016-4335C3E52F59";
paths = (
{
closed = 1;
nodes = (
"364 99 OFFCURVE",
"458 193 OFFCURVE",
"458 308 CURVE SMOOTH",
"458 423 OFFCURVE",
"364 517 OFFCURVE",
"249 517 CURVE SMOOTH",
"134 517 OFFCURVE",
"41 423 OFFCURVE",
"41 308 CURVE SMOOTH",
"41 193 OFFCURVE",
"134 99 OFFCURVE",
"249 99 CURVE SMOOTH"
);
},
{
closed = 1;
nodes = (
"157 139 OFFCURVE",
"81 216 OFFCURVE",
"81 308 CURVE SMOOTH",
"81 400 OFFCURVE",
"157 476 OFFCURVE",
"249 476 CURVE SMOOTH",
"342 476 OFFCURVE",
"418 400 OFFCURVE",
"418 308 CURVE SMOOTH",
"418 216 OFFCURVE",
"342 139 OFFCURVE",
"249 139 CURVE SMOOTH"
);
},
{
closed = 1;
nodes = (
"209 287 OFFCURVE",
"173 269 OFFCURVE",
"142 232 CURVE",
"168 199 LINE",
"186 228 OFFCURVE",
"216 250 OFFCURVE",
"250 250 CURVE SMOOTH",
"281 250 OFFCURVE",
"309 233 OFFCURVE",
"336 199 CURVE",
"356 230 LINE",
"330 264 OFFCURVE",
"291 287 OFFCURVE",
"250 287 CURVE SMOOTH"
);
},
{
closed = 1;
nodes = (
"197 318 OFFCURVE",
"212 333 OFFCURVE",
"212 349 CURVE SMOOTH",
"212 365 OFFCURVE",
"197 380 OFFCURVE",
"181 380 CURVE SMOOTH",
"165 380 OFFCURVE",
"150 365 OFFCURVE",
"150 349 CURVE SMOOTH",
"150 333 OFFCURVE",
"165 318 OFFCURVE",
"181 318 CURVE SMOOTH"
);
},
{
closed = 1;
nodes = (
"335 318 OFFCURVE",
"350 333 OFFCURVE",
"350 349 CURVE SMOOTH",
"350 365 OFFCURVE",
"335 380 OFFCURVE",
"319 380 CURVE SMOOTH",
"303 380 OFFCURVE",
"288 365 OFFCURVE",
"288 349 CURVE SMOOTH",
"288 333 OFFCURVE",
"303 318 OFFCURVE",
"319 318 CURVE SMOOTH"
);
}
);
width = 500;
}
);
unicode = 2639;
},
{
color = 4;
glyphname = whiteSmilingFace;
layers = (
{
layerId = "051EFAE4-8BBE-4FBB-A016-4335C3E52F59";
paths = (
{
closed = 1;
nodes = (
"364 99 OFFCURVE",
"458 193 OFFCURVE",
"458 308 CURVE SMOOTH",
"458 423 OFFCURVE",
"364 517 OFFCURVE",
"249 517 CURVE SMOOTH",
"134 517 OFFCURVE",
"41 423 OFFCURVE",
"41 308 CURVE SMOOTH",
"41 193 OFFCURVE",
"134 99 OFFCURVE",
"249 99 CURVE SMOOTH"
);
},
{
closed = 1;
nodes = (
"157 139 OFFCURVE",
"81 216 OFFCURVE",
"81 308 CURVE SMOOTH",
"81 400 OFFCURVE",
"157 476 OFFCURVE",
"249 476 CURVE SMOOTH",
"342 476 OFFCURVE",
"418 400 OFFCURVE",
"418 308 CURVE SMOOTH",
"418 216 OFFCURVE",
"342 139 OFFCURVE",
"249 139 CURVE SMOOTH"
);
},
{
closed = 1;
nodes = (
"291 189 OFFCURVE",
"330 212 OFFCURVE",
"356 246 CURVE",
"336 277 LINE",
"309 243 OFFCURVE",
"281 226 OFFCURVE",
"250 226 CURVE SMOOTH",
"216 226 OFFCURVE",
"186 248 OFFCURVE",
"168 277 CURVE",
"142 244 LINE",
"173 207 OFFCURVE",
"209 189 OFFCURVE",
"250 189 CURVE SMOOTH"
);
},
{
closed = 1;
nodes = (
"197 318 OFFCURVE",
"212 333 OFFCURVE",
"212 349 CURVE SMOOTH",
"212 365 OFFCURVE",
"197 380 OFFCURVE",
"181 380 CURVE SMOOTH",
"165 380 OFFCURVE",
"150 365 OFFCURVE",
"150 349 CURVE SMOOTH",
"150 333 OFFCURVE",
"165 318 OFFCURVE",
"181 318 CURVE SMOOTH"
);
},
{
closed = 1;
nodes = (
"335 318 OFFCURVE",
"350 333 OFFCURVE",
"350 349 CURVE SMOOTH",
"350 365 OFFCURVE",
"335 380 OFFCURVE",
"319 380 CURVE SMOOTH",
"303 380 OFFCURVE",
"288 365 OFFCURVE",
"288 349 CURVE SMOOTH",
"288 333 OFFCURVE",
"303 318 OFFCURVE",
"319 318 CURVE SMOOTH"
);
}
);
width = 500;
}
);
unicode = 263A;
},
{
color = 4;
glyphname = blackSmilingFace;
layers = (
{
layerId = "051EFAE4-8BBE-4FBB-A016-4335C3E52F59";
paths = (
{
closed = 1;
nodes = (
"363 99 OFFCURVE",
"457 193 OFFCURVE",
"457 308 CURVE SMOOTH",
"457 423 OFFCURVE",
"363 517 OFFCURVE",
"248 517 CURVE SMOOTH",
"133 517 OFFCURVE",
"40 423 OFFCURVE",
"40 308 CURVE SMOOTH",
"40 193 OFFCURVE",
"133 99 OFFCURVE",
"248 99 CURVE SMOOTH"
);
},
{
closed = 1;
nodes = (
"208 189 OFFCURVE",
"172 207 OFFCURVE",
"141 244 CURVE",
"167 277 LINE",
"185 248 OFFCURVE",
"215 226 OFFCURVE",
"249 226 CURVE SMOOTH",
"280 226 OFFCURVE",
"308 243 OFFCURVE",
"335 277 CURVE",
"355 246 LINE",
"329 212 OFFCURVE",
"290 189 OFFCURVE",
"249 189 CURVE SMOOTH"
);
},
{
closed = 1;
nodes = (
"164 318 OFFCURVE",
"149 333 OFFCURVE",
"149 349 CURVE SMOOTH",
"149 365 OFFCURVE",
"164 380 OFFCURVE",
"180 380 CURVE SMOOTH",
"196 380 OFFCURVE",
"211 365 OFFCURVE",
"211 349 CURVE SMOOTH",
"211 333 OFFCURVE",
"196 318 OFFCURVE",
"180 318 CURVE SMOOTH"
);
},
{
closed = 1;
nodes = (
"302 318 OFFCURVE",
"287 333 OFFCURVE",
"287 349 CURVE SMOOTH",
"287 365 OFFCURVE",
"302 380 OFFCURVE",
"318 380 CURVE SMOOTH",
"334 380 OFFCURVE",
"349 365 OFFCURVE",
"349 349 CURVE SMOOTH",
"349 333 OFFCURVE",
"334 318 OFFCURVE",
"318 318 CURVE SMOOTH"
);
}
);
width = 500;
}
);
unicode = 263B;
},
{
color = 4;
glyphname = spadeBlackSuit;
layers = (
{
background = {
paths = (
{
closed = 1;
nodes = (
"234 190 OFFCURVE",
"215 174 OFFCURVE",
"196 165 CURVE",
"178 155 OFFCURVE",
"157 150 OFFCURVE",
"134 150 CURVE",
"101 150 OFFCURVE",
"72 162 OFFCURVE",
"50 184 CURVE",
"27 207 OFFCURVE",
"15 237 OFFCURVE",
"15 275 CURVE",
"15 295 OFFCURVE",
"19 313 OFFCURVE",
"25 332 CURVE",
"31 348 OFFCURVE",
"45 370 OFFCURVE",
"68 398 CURVE",
"91 425 OFFCURVE",
"126 460 OFFCURVE",
"175 501 CURVE",
"226 546 OFFCURVE",
"259 588 OFFCURVE",
"276 627 CURVE",
"280 634 OFFCURVE",
"285 638 OFFCURVE",
"291 638 CURVE",
"304 638 LINE",
"310 638 OFFCURVE",
"315 634 OFFCURVE",
"319 627 CURVE",
"336 588 OFFCURVE",
"369 546 OFFCURVE",
"420 501 CURVE",
"469 460 OFFCURVE",
"504 425 OFFCURVE",
"527 398 CURVE",
"550 370 OFFCURVE",
"564 348 OFFCURVE",
"570 332 CURVE",
"576 313 OFFCURVE",
"580 295 OFFCURVE",
"580 275 CURVE",
"580 237 OFFCURVE",
"568 207 OFFCURVE",
"545 184 CURVE",
"522 162 OFFCURVE",
"494 150 OFFCURVE",
"461 150 CURVE",
"438 150 OFFCURVE",
"418 155 OFFCURVE",
"400 165 CURVE",
"380 174 OFFCURVE",
"361 190 OFFCURVE",
"339 212 CURVE",
"347 126 OFFCURVE",
"368 56 OFFCURVE",
"403 0 CURVE",
"192 0 LINE",
"227 56 OFFCURVE",
"248 126 OFFCURVE",
"256 212 CURVE"
);
}
);
};
guideLines = (
{
angle = 90;
position = "{301, 614}";
},
{
angle = 180;
position = "{301, 601}";
}
);
layerId = "051EFAE4-8BBE-4FBB-A016-4335C3E52F59";
paths = (
{
closed = 1;
nodes = (
"237 250 LINE",
"237 91 OFFCURVE",
"200 23 OFFCURVE",
"90 18 CURVE",
"87 0 LINE",
"413 0 LINE",
"410 18 LINE",
"306 26 OFFCURVE",
"267 94 OFFCURVE",
"265 250 CURVE"
);
},
{
closed = 1;
nodes = (
"230 601 LINE",
"230 434 OFFCURVE",
"13 435 OFFCURVE",
"13 251 CURVE SMOOTH",
"13 181 OFFCURVE",
"61 134 OFFCURVE",
"120 134 CURVE SMOOTH",
"176 134 OFFCURVE",
"219 152 OFFCURVE",
"248 189 CURVE",
"252 189 LINE",
"281 152 OFFCURVE",
"324 134 OFFCURVE",
"380 134 CURVE SMOOTH",
"439 134 OFFCURVE",
"487 181 OFFCURVE",
"487 251 CURVE SMOOTH",
"487 435 OFFCURVE",
"280 434 OFFCURVE",
"270 601 CURVE"
);
}
);
width = 500;
}
);
unicode = 2660;
},
{
color = 4;
glyphname = clubBlackSuit;
layers = (
{
background = {
paths = (
{
closed = 1;
nodes = (
"378 392 OFFCURVE",
"394 394 OFFCURVE",
"410 394 CURVE",
"447 394 OFFCURVE",
"478 382 OFFCURVE",
"503 357 CURVE",
"529 333 OFFCURVE",
"542 303 OFFCURVE",
"542 266 CURVE",
"542 229 OFFCURVE",
"529 198 OFFCURVE",
"504 173 CURVE",
"480 149 OFFCURVE",
"450 137 OFFCURVE",
"414 137 CURVE",
"370 137 OFFCURVE",
"329 155 OFFCURVE",
"290 192 CURVE",
"296 114 OFFCURVE",
"316 50 OFFCURVE",
"348 0 CURVE",
"156 0 LINE",
"187 50 OFFCURVE",
"206 114 OFFCURVE",
"214 192 CURVE",
"174 155 OFFCURVE",
"133 137 OFFCURVE",
"89 137 CURVE",
"54 137 OFFCURVE",
"24 149 OFFCURVE",
"-2 173 CURVE",
"-27 198 OFFCURVE",
"-40 229 OFFCURVE",
"-40 266 CURVE",
"-40 303 OFFCURVE",
"-27 333 OFFCURVE",
"-1 357 CURVE",
"26 382 OFFCURVE",
"57 394 OFFCURVE",
"93 394 CURVE",
"109 394 OFFCURVE",
"125 392 OFFCURVE",
"141 388 CURVE",
"127 413 OFFCURVE",
"119 437 OFFCURVE",
"119 460 CURVE",
"119 493 OFFCURVE",
"132 522 OFFCURVE",
"158 545 CURVE",
"183 568 OFFCURVE",
"215 579 OFFCURVE",
"251 579 CURVE",
"289 579 OFFCURVE",
"320 568 OFFCURVE",
"346 545 CURVE",
"371 522 OFFCURVE",
"384 493 OFFCURVE",
"384 460 CURVE",
"384 437 OFFCURVE",
"377 413 OFFCURVE",
"363 388 CURVE"
);
}
);
};
guideLines = (
{
angle = 180;
position = "{297, 601}";
},
{
angle = 90;
position = "{250, 458}";
}
);
layerId = "051EFAE4-8BBE-4FBB-A016-4335C3E52F59";
paths = (
{
closed = 1;
nodes = (
"216 250 LINE",
"216 91 OFFCURVE",
"202 23 OFFCURVE",
"159 18 CURVE",
"156 0 LINE",
"250 0 LINE",
"250 250 LINE"
);
},
{
closed = 1;
nodes = (
"361 395 LINE",
"371 413 OFFCURVE",
"377 435 OFFCURVE",
"377 458 CURVE SMOOTH",
"377 528 OFFCURVE",
"320 585 OFFCURVE",
"250 585 CURVE SMOOTH",
"179 585 OFFCURVE",
"122 528 OFFCURVE",
"122 458 CURVE SMOOTH",
"122 435 OFFCURVE",
"128 413 OFFCURVE",
"138 395 CURVE",
"133 395 LINE SMOOTH",
"62 395 OFFCURVE",
"5 338 OFFCURVE",
"5 268 CURVE SMOOTH",
"5 197 OFFCURVE",
"62 140 OFFCURVE",
"133 140 CURVE SMOOTH",
"186 140 OFFCURVE",
"231 172 OFFCURVE",
"250 218 CURVE",
"269 172 OFFCURVE",
"315 140 OFFCURVE",
"368 140 CURVE SMOOTH",
"438 140 OFFCURVE",
"495 197 OFFCURVE",
"495 268 CURVE SMOOTH",
"495 338 OFFCURVE",
"438 395 OFFCURVE",
"368 395 CURVE SMOOTH"
);
},
{
closed = 1;
nodes = (
"250 0 LINE",
"344 0 LINE",
"341 18 LINE",
"298 23 OFFCURVE",
"284 91 OFFCURVE",
"284 250 CURVE",
"250 250 LINE"
);
}
);
width = 500;
}
);
unicode = 2663;
},
{
color = 4;
glyphname = heartBlackSuit;
layers = (
{
guideLines = (
{
angle = 180;
position = "{301, 601}";
}
);
layerId = "051EFAE4-8BBE-4FBB-A016-4335C3E52F59";
paths = (
{
closed = 1;
nodes = (
"315 591 OFFCURVE",
"255 550 OFFCURVE",
"255 477 CURVE",
"245 477 LINE",
"245 551 OFFCURVE",
"194 591 OFFCURVE",
"126 591 CURVE SMOOTH",
"63 591 OFFCURVE",
"12 539 OFFCURVE",
"12 467 CURVE SMOOTH",
"12 244 OFFCURVE",
"230 210 OFFCURVE",
"230 0 CURVE",
"270 0 LINE",
"270 210 OFFCURVE",
"488 244 OFFCURVE",
"488 467 CURVE SMOOTH",
"488 539 OFFCURVE",
"437 591 OFFCURVE",
"374 591 CURVE SMOOTH"
);
}
);
width = 500;
}
);
unicode = 2665;
},
{
color = 4;
glyphname = diamondBlackSuit;
layers = (
{
guideLines = (
{
angle = 180;
position = "{301, 601}";
}
);
layerId = "051EFAE4-8BBE-4FBB-A016-4335C3E52F59";
paths = (
{
closed = 1;
nodes = (
"15 321 LINE",
"15 291 LINE",
"240 2 LINE",
"270 2 LINE",
"485 291 LINE",
"485 321 LINE",
"270 601 LINE",
"240 601 LINE"
);
}
);
width = 500;
}
);
unicode = 2666;
},
{
glyphname = checkmark;
layers = (
{
layerId = "051EFAE4-8BBE-4FBB-A016-4335C3E52F59";
paths = (
{
closed = 1;
nodes = (
"327 383 OFFCURVE",
"250 223 OFFCURVE",
"161 98 CURVE",
"70 205 LINE",
"9 153 LINE",
"161 -16 LINE",
"280 119 OFFCURVE",
"411 334 OFFCURVE",
"470 601 CURVE",
"374 631 LINE"
);
}
);
width = 500;
}
);
unicode = 2713;
},
{
glyphname = heavyCheckMark;
layers = (
{
layerId = "051EFAE4-8BBE-4FBB-A016-4335C3E52F59";
paths = (
{
closed = 1;
nodes = (
"317 370 OFFCURVE",
"173 175 OFFCURVE",
"86 85 CURVE",
"154 56 LINE",
"104 314 LINE",
"0 291 LINE",
"49 48 LINE",
"139 0 LINE",
"280 132 OFFCURVE",
"420 327 OFFCURVE",
"498 594 CURVE",
"391 633 LINE"
);
}
);
width = 500;
}
);
unicode = 2714;
},
{
glyphname = ballotX;
layers = (
{
background = {
paths = (
{
closed = 1;
nodes = (
"165 530 LINE",
"153 578 OFFCURVE",
"148 603 OFFCURVE",
"148 606 CURVE",
"148 620 OFFCURVE",
"151 631 OFFCURVE",
"158 640 CURVE",
"166 650 OFFCURVE",
"173 655 OFFCURVE",
"181 655 CURVE",
"197 655 OFFCURVE",
"216 641 OFFCURVE",
"239 615 CURVE",
"263 587 OFFCURVE",
"290 535 OFFCURVE",
"322 457 CURVE",
"334 466 OFFCURVE",
"348 478 OFFCURVE",
"360 491 CURVE",
"413 546 LINE",
"450 586 OFFCURVE",
"473 610 OFFCURVE",
"482 619 CURVE",
"491 628 OFFCURVE",
"501 632 OFFCURVE",
"513 632 CURVE",
"525 632 OFFCURVE",
"536 625 OFFCURVE",
"545 613 CURVE",
"555 600 OFFCURVE",
"559 588 OFFCURVE",
"559 579 CURVE",
"559 575 LINE",
"556 574 OFFCURVE",
"552 573 OFFCURVE",
"548 573 CURVE",
"535 571 OFFCURVE",
"526 564 OFFCURVE",
"523 551 CURVE",
"521 546 OFFCURVE",
"518 542 OFFCURVE",
"516 540 CURVE",
"508 533 OFFCURVE",
"497 519 OFFCURVE",
"483 499 CURVE",
"443 434 LINE",
"423 400 OFFCURVE",
"406 375 OFFCURVE",
"393 357 CURVE",
"383 345 OFFCURVE",
"377 334 OFFCURVE",
"373 325 CURVE",
"368 317 OFFCURVE",
"366 308 OFFCURVE",
"366 297 CURVE",
"366 274 OFFCURVE",
"373 243 OFFCURVE",
"387 205 CURVE",
"400 167 OFFCURVE",
"418 132 OFFCURVE",
"439 100 CURVE",
"453 80 OFFCURVE",
"460 69 OFFCURVE",
"460 66 CURVE",
"457 60 LINE",
"454 56 OFFCURVE",
"453 52 OFFCURVE",
"453 49 CURVE",
"453 48 OFFCURVE",
"454 44 OFFCURVE",
"455 40 CURVE",
"438 30 OFFCURVE",
"428 24 OFFCURVE",
"426 23 CURVE",
"425 22 OFFCURVE",
"424 18 OFFCURVE",
"424 11 CURVE",
"425 6 LINE",
"425 4 OFFCURVE",
"423 3 OFFCURVE",
"421 3 CURVE",
"419 3 OFFCURVE",
"415 4 OFFCURVE",
"408 8 CURVE",
"401 11 OFFCURVE",
"393 19 OFFCURVE",
"383 29 CURVE",
"375 40 OFFCURVE",
"367 46 OFFCURVE",
"358 48 CURVE",
"354 50 OFFCURVE",
"351 52 OFFCURVE",
"350 54 CURVE",
"339 66 OFFCURVE",
"330 74 OFFCURVE",
"321 78 CURVE",
"316 80 OFFCURVE",
"313 84 OFFCURVE",
"310 90 CURVE",
"258 180 LINE",
"228 155 OFFCURVE",
"194 120 OFFCURVE",
"155 77 CURVE",
"114 30 OFFCURVE",
"80 -6 OFFCURVE",
"53 -31 CURVE",
"53 -16 LINE",
"50 -11 OFFCURVE",
"47 -6 OFFCURVE",
"43 1 CURVE",
"40 5 OFFCURVE",
"38 9 OFFCURVE",
"37 14 CURVE",
"35 20 OFFCURVE",
"32 24 OFFCURVE",
"27 25 CURVE",
"24 25 OFFCURVE",
"22 27 OFFCURVE",
"20 32 CURVE",
"18 38 OFFCURVE",
"15 42 OFFCURVE",
"11 44 CURVE",
"6 45 OFFCURVE",
"3 48 OFFCURVE",
"3 50 CURVE",
"3 51 OFFCURVE",
"3 54 OFFCURVE",
"5 59 CURVE",
"3 64 OFFCURVE",
"2 66 OFFCURVE",
"2 69 CURVE",
"2 77 OFFCURVE",
"43 127 OFFCURVE",
"125 220 CURVE",
"161 261 OFFCURVE",
"191 297 OFFCURVE",
"215 329 CURVE"
);
}
);
};
layerId = "051EFAE4-8BBE-4FBB-A016-4335C3E52F59";
paths = (
{
closed = 1;
nodes = (
"193 201 OFFCURVE",
"323 369 OFFCURVE",
"500 531 CURVE",
"453 588 LINE",
"272 412 OFFCURVE",
"128 260 OFFCURVE",
"0 69 CURVE",
"69 12 LINE"
);
},
{
closed = 1;
nodes = (
"441 82 LINE",
"337 225 OFFCURVE",
"273 406 OFFCURVE",
"229 629 CURVE",
"145 604 LINE",
"191 367 OFFCURVE",
"266 171 OFFCURVE",
"372 14 CURVE"
);
}
);
width = 500;
}
);
unicode = 2717;
},
{
glyphname = heavyBallotX;
layers = (
{
background = {
paths = (
{
closed = 1;
nodes = (
"317 290 OFFCURVE",
"173 95 OFFCURVE",
"86 5 CURVE",
"154 -24 LINE",
"104 234 LINE",
"0 211 LINE",
"49 -32 LINE",
"139 -80 LINE",
"280 52 OFFCURVE",
"420 247 OFFCURVE",
"498 514 CURVE",
"391 553 LINE"
);
}
);
};
layerId = "051EFAE4-8BBE-4FBB-A016-4335C3E52F59";
paths = (
{
closed = 1;
nodes = (
"234 216 OFFCURVE",
"339 360 OFFCURVE",
"528 530 CURVE",
"455 609 LINE",
"277 451 OFFCURVE",
"157 303 OFFCURVE",
"4 89 CURVE",
"98 6 LINE"
);
},
{
closed = 1;
nodes = (
"459 73 LINE",
"344 243 OFFCURVE",
"276 436 OFFCURVE",
"234 657 CURVE",
"122 617 LINE",
"170 359 OFFCURVE",
"252 148 OFFCURVE",
"374 -3 CURVE"
);
}
);
width = 500;
}
);
unicode = 2718;
},
{
glyphname = at;
layers = (
{
layerId = "051EFAE4-8BBE-4FBB-A016-4335C3E52F59";
paths = (
{
closed = 1;
nodes = (
"345 -11 OFFCURVE",
"392 3 OFFCURVE",
"435 30 CURVE",
"408 79 LINE",
"375 57 OFFCURVE",
"339 46 OFFCURVE",
"301 46 CURVE SMOOTH",
"195 46 OFFCURVE",
"89 133 OFFCURVE",
"89 324 CURVE SMOOTH",
"89 500 OFFCURVE",
"173 579 OFFCURVE",
"268 579 CURVE SMOOTH",
"351 579 OFFCURVE",
"402 519 OFFCURVE",
"402 444 CURVE",
"251 454 OFFCURVE",
"175 389 OFFCURVE",
"175 299 CURVE SMOOTH",
"175 223 OFFCURVE",
"232 167 OFFCURVE",
"308 167 CURVE SMOOTH",
"347 167 OFFCURVE",
"379 182 OFFCURVE",
"405 213 CURVE",
"405 175 LINE",
"465 175 LINE",
"465 408 LINE SMOOTH",
"465 558 OFFCURVE",
"370 633 OFFCURVE",
"271 633 CURVE SMOOTH",
"157 633 OFFCURVE",
"31 534 OFFCURVE",
"31 313 CURVE SMOOTH",
"31 90 OFFCURVE",
"163 -11 OFFCURVE",
"295 -11 CURVE SMOOTH"
);
},
{
closed = 1;
nodes = (
"264 222 OFFCURVE",
"237 254 OFFCURVE",
"237 303 CURVE SMOOTH",
"237 367 OFFCURVE",
"295 404 OFFCURVE",
"405 394 CURVE",
"405 266 OFFCURVE",
"378 222 OFFCURVE",
"317 222 CURVE SMOOTH"
);
}
);
width = 500;
}
);
unicode = 0040;
},
{
glyphname = ampersand;
layers = (
{
layerId = "051EFAE4-8BBE-4FBB-A016-4335C3E52F59";
paths = (
{
closed = 1;
nodes = (
"475 32 LINE",
"405 123 LINE",
"433 160 OFFCURVE",
"458 199 OFFCURVE",
"481 239 CURVE",
"416 284 LINE",
"413 281 OFFCURVE",
"412 278 OFFCURVE",
"412 274 CURVE SMOOTH",
"409 238 OFFCURVE",
"401 214 OFFCURVE",
"367 173 CURVE",
"255 330 LINE",
"318 359 OFFCURVE",
"363 433 OFFCURVE",
"363 498 CURVE SMOOTH",
"363 565 OFFCURVE",
"309 629 OFFCURVE",
"228 629 CURVE SMOOTH",
"153 629 OFFCURVE",
"91 573 OFFCURVE",
"91 498 CURVE SMOOTH",
"91 452 OFFCURVE",
"115 400 OFFCURVE",
"162 343 CURVE",
"86 300 OFFCURVE",
"36 225 OFFCURVE",
"36 141 CURVE SMOOTH",
"36 58 OFFCURVE",
"101 -10 OFFCURVE",
"192 -10 CURVE SMOOTH",
"257 -10 OFFCURVE",
"320 24 OFFCURVE",
"361 76 CURVE",
"416 -12 LINE"
);
},
{
closed = 1;
nodes = (
"152 54 OFFCURVE",
"112 97 OFFCURVE",
"112 152 CURVE SMOOTH",
"112 204 OFFCURVE",
"144 263 OFFCURVE",
"197 296 CURVE",
"324 123 LINE",
"287 81 OFFCURVE",
"247 54 OFFCURVE",
"199 54 CURVE SMOOTH"
);
},
{
closed = 1;
nodes = (
"180 424 OFFCURVE",
"160 465 OFFCURVE",
"160 497 CURVE SMOOTH",
"160 541 OFFCURVE",
"192 570 OFFCURVE",
"229 570 CURVE SMOOTH",
"265 570 OFFCURVE",
"297 536 OFFCURVE",
"297 492 CURVE SMOOTH",
"297 448 OFFCURVE",
"269 396 OFFCURVE",
"221 373 CURVE"
);
}
);
width = 500;
}
);
unicode = 0026;
},
{
glyphname = paragraph;
layers = (
{
layerId = "051EFAE4-8BBE-4FBB-A016-4335C3E52F59";
paths = (
{
closed = 1;
nodes = (
"302 -68 LINE",
"302 608 LINE",
"378 608 LINE",
"378 -68 LINE",
"436 -68 LINE",
"436 665 LINE",
"311 665 LINE SMOOTH",
"127 665 OFFCURVE",
"64 588 OFFCURVE",
"64 502 CURVE SMOOTH",
"64 406 OFFCURVE",
"143 327 OFFCURVE",
"243 322 CURVE",
"243 -68 LINE"
);
}
);
width = 500;
}
);
unicode = 00B6;
},
{
glyphname = section;
layers = (
{
layerId = "051EFAE4-8BBE-4FBB-A016-4335C3E52F59";
paths = (
{
closed = 1;
nodes = (
"335 -54 OFFCURVE",
"408 10 OFFCURVE",
"408 98 CURVE SMOOTH",
"408 143 OFFCURVE",
"387 180 OFFCURVE",
"344 209 CURVE",
"388 226 OFFCURVE",
"418 265 OFFCURVE",
"418 305 CURVE SMOOTH",
"418 352 OFFCURVE",
"387 390 OFFCURVE",
"326 419 CURVE",
"214 462 OFFCURVE",
"167 475 OFFCURVE",
"167 536 CURVE SMOOTH",
"167 579 OFFCURVE",
"207 613 OFFCURVE",
"256 613 CURVE SMOOTH",
"306 613 OFFCURVE",
"345 579 OFFCURVE",
"350 544 CURVE SMOOTH",
"351 540 OFFCURVE",
"353 536 OFFCURVE",
"356 533 CURVE",
"413 583 LINE",
"381 639 OFFCURVE",
"322 672 OFFCURVE",
"257 672 CURVE SMOOTH",
"165 672 OFFCURVE",
"94 606 OFFCURVE",
"94 530 CURVE SMOOTH",
"94 481 OFFCURVE",
"116 444 OFFCURVE",
"161 417 CURVE",
"112 400 OFFCURVE",
"79 360 OFFCURVE",
"79 316 CURVE SMOOTH",
"79 256 OFFCURVE",
"117 221 OFFCURVE",
"220 188 CURVE",
"312 161 OFFCURVE",
"337 137 OFFCURVE",
"337 91 CURVE SMOOTH",
"337 47 OFFCURVE",
"299 12 OFFCURVE",
"234 12 CURVE SMOOTH",
"201 12 OFFCURVE",
"175 22 OFFCURVE",
"154 41 CURVE SMOOTH",
"114 79 OFFCURVE",
"133 87 OFFCURVE",
"117 92 CURVE",
"65 31 LINE",
"106 -25 OFFCURVE",
"170 -54 OFFCURVE",
"238 -54 CURVE SMOOTH"
);
},
{
closed = 1;
nodes = (
"296 233 OFFCURVE",
"279 237 OFFCURVE",
"256 244 CURVE SMOOTH",
"183 265 OFFCURVE",
"152 292 OFFCURVE",
"152 336 CURVE SMOOTH",
"152 365 OFFCURVE",
"170 390 OFFCURVE",
"197 399 CURVE",
"240 384 LINE",
"312 359 OFFCURVE",
"343 336 OFFCURVE",
"343 292 CURVE SMOOTH",
"343 262 OFFCURVE",
"331 241 OFFCURVE",
"307 228 CURVE"
);
}
);
width = 500;
}
);
unicode = 00A7;
},
{
glyphname = copyright;
layers = (
{
background = {
paths = (
{
closed = 1;
nodes = (
"322 19 OFFCURVE",
"379 44 OFFCURVE",
"426 93 CURVE SMOOTH",
"474 143 OFFCURVE",
"498 203 OFFCURVE",
"498 274 CURVE SMOOTH",
"498 415 OFFCURVE",
"387 530 OFFCURVE",
"256 530 CURVE SMOOTH",
"123 530 OFFCURVE",
"14 415 OFFCURVE",
"14 274 CURVE SMOOTH",
"14 134 OFFCURVE",
"122 19 OFFCURVE",
"255 19 CURVE SMOOTH"
);
},
{
closed = 1;
nodes = (
"309 122 OFFCURVE",
"356 147 OFFCURVE",
"384 190 CURVE",
"340 219 LINE",
"325 191 OFFCURVE",
"297 174 OFFCURVE",
"265 174 CURVE SMOOTH",
"213 174 OFFCURVE",
"171 222 OFFCURVE",
"171 281 CURVE SMOOTH",
"171 348 OFFCURVE",
"225 374 OFFCURVE",
"262 374 CURVE SMOOTH",
"277 374 OFFCURVE",
"291 371 OFFCURVE",
"302 364 CURVE SMOOTH",
"344 335 OFFCURVE",
"324 331 OFFCURVE",
"335 312 CURVE",
"387 331 LINE",
"374 387 OFFCURVE",
"326 424 OFFCURVE",
"254 424 CURVE SMOOTH",
"186 424 OFFCURVE",
"115 360 OFFCURVE",
"115 276 CURVE SMOOTH",
"115 193 OFFCURVE",
"179 122 OFFCURVE",
"261 122 CURVE SMOOTH"
);
},
{
closed = 1;
nodes = (
"148 62 OFFCURVE",
"59 156 OFFCURVE",
"59 274 CURVE SMOOTH",
"59 394 OFFCURVE",
"148 488 OFFCURVE",
"257 488 CURVE SMOOTH",
"366 488 OFFCURVE",
"455 391 OFFCURVE",
"455 275 CURVE SMOOTH",
"455 159 OFFCURVE",
"364 62 OFFCURVE",
"257 62 CURVE SMOOTH"
);
}
);
};
layerId = "051EFAE4-8BBE-4FBB-A016-4335C3E52F59";
paths = (
{
closed = 1;
nodes = (
"309 122 OFFCURVE",
"356 147 OFFCURVE",
"384 190 CURVE",
"340 219 LINE",
"325 191 OFFCURVE",
"297 174 OFFCURVE",
"265 174 CURVE SMOOTH",
"213 174 OFFCURVE",
"171 222 OFFCURVE",
"171 281 CURVE SMOOTH",
"171 348 OFFCURVE",
"225 374 OFFCURVE",
"262 374 CURVE SMOOTH",
"277 374 OFFCURVE",
"291 371 OFFCURVE",
"302 364 CURVE SMOOTH",
"344 335 OFFCURVE",
"324 331 OFFCURVE",
"335 312 CURVE",
"387 331 LINE",
"374 387 OFFCURVE",
"326 424 OFFCURVE",
"254 424 CURVE SMOOTH",
"186 424 OFFCURVE",
"115 360 OFFCURVE",
"115 276 CURVE SMOOTH",
"115 193 OFFCURVE",
"179 122 OFFCURVE",
"261 122 CURVE SMOOTH"
);
},
{
closed = 1;
nodes = (
"389 19 OFFCURVE",
"498 132 OFFCURVE",
"498 274 CURVE SMOOTH",
"498 415 OFFCURVE",
"387 530 OFFCURVE",
"256 530 CURVE SMOOTH",
"123 530 OFFCURVE",
"14 415 OFFCURVE",
"14 274 CURVE SMOOTH",
"14 134 OFFCURVE",
"122 19 OFFCURVE",
"255 19 CURVE SMOOTH"
);
},
{
closed = 1;
nodes = (
"148 62 OFFCURVE",
"59 156 OFFCURVE",
"59 274 CURVE SMOOTH",
"59 394 OFFCURVE",
"148 488 OFFCURVE",
"257 488 CURVE SMOOTH",
"366 488 OFFCURVE",
"455 391 OFFCURVE",
"455 275 CURVE SMOOTH",
"455 159 OFFCURVE",
"364 62 OFFCURVE",
"257 62 CURVE SMOOTH"
);
}
);
width = 500;
}
);
unicode = 00A9;
},
{
glyphname = registered;
layers = (
{
layerId = "051EFAE4-8BBE-4FBB-A016-4335C3E52F59";
paths = (
{
closed = 1;
nodes = (
"376 138 LINE",
"312 263 LINE",
"349 274 OFFCURVE",
"369 307 OFFCURVE",
"369 340 CURVE SMOOTH",
"369 389 OFFCURVE",
"336 425 OFFCURVE",
"249 425 CURVE SMOOTH",
"155 425 LINE",
"155 133 LINE",
"201 133 LINE",
"201 256 LINE",
"267 256 LINE",
"329 131 LINE"
);
},
{
closed = 1;
nodes = (
"201 384 LINE",
"250 384 LINE SMOOTH",
"299 384 OFFCURVE",
"324 369 OFFCURVE",
"324 340 CURVE SMOOTH",
"324 311 OFFCURVE",
"300 296 OFFCURVE",
"253 296 CURVE SMOOTH",
"201 296 LINE"
);
},
{
closed = 1;
nodes = (
"389 19 OFFCURVE",
"498 132 OFFCURVE",
"498 274 CURVE SMOOTH",
"498 415 OFFCURVE",
"387 530 OFFCURVE",
"256 530 CURVE SMOOTH",
"123 530 OFFCURVE",
"14 415 OFFCURVE",
"14 274 CURVE SMOOTH",
"14 134 OFFCURVE",
"122 19 OFFCURVE",
"255 19 CURVE SMOOTH"
);
},
{
closed = 1;
nodes = (
"148 62 OFFCURVE",
"59 156 OFFCURVE",
"59 274 CURVE SMOOTH",
"59 394 OFFCURVE",
"148 488 OFFCURVE",
"257 488 CURVE SMOOTH",
"366 488 OFFCURVE",
"455 391 OFFCURVE",
"455 275 CURVE SMOOTH",
"455 159 OFFCURVE",
"364 62 OFFCURVE",
"257 62 CURVE SMOOTH"
);
}
);
width = 500;
}
);
unicode = 00AE;
},
{
glyphname = trademark;
layers = (
{
layerId = "051EFAE4-8BBE-4FBB-A016-4335C3E52F59";
paths = (
{
closed = 1;
nodes = (
"149 320 LINE",
"149 595 LINE",
"239 595 LINE",
"239 635 LINE",
"18 635 LINE",
"18 595 LINE",
"104 595 LINE",
"104 320 LINE"
);
},
{
closed = 1;
nodes = (
"310 320 LINE",
"310 535 LINE",
"365 428 LINE",
"381 428 LINE",
"441 535 LINE",
"441 320 LINE",
"483 320 LINE",
"483 635 LINE",
"450 635 LINE",
"375 490 LINE",
"303 635 LINE",
"268 635 LINE",
"268 320 LINE"
);
}
);
width = 500;
}
);
unicode = 2122;
},
{
glyphname = degree;
layers = (
{
layerId = "051EFAE4-8BBE-4FBB-A016-4335C3E52F59";
paths = (
{
closed = 1;
nodes = (
"331 370 OFFCURVE",
"391 432 OFFCURVE",
"391 504 CURVE SMOOTH",
"391 578 OFFCURVE",
"330 639 OFFCURVE",
"256 639 CURVE SMOOTH",
"184 639 OFFCURVE",
"121 580 OFFCURVE",
"121 504 CURVE SMOOTH",
"121 429 OFFCURVE",
"181 370 OFFCURVE",
"256 370 CURVE SMOOTH"
);
},
{
closed = 1;
nodes = (
"215 425 OFFCURVE",
"182 462 OFFCURVE",
"182 505 CURVE SMOOTH",
"182 548 OFFCURVE",
"216 586 OFFCURVE",
"257 586 CURVE SMOOTH",
"300 586 OFFCURVE",
"331 547 OFFCURVE",
"331 505 CURVE SMOOTH",
"331 462 OFFCURVE",
"299 425 OFFCURVE",
"256 425 CURVE SMOOTH"
);
}
);
width = 500;
}
);
unicode = 00B0;
},
{
glyphname = minute;
layers = (
{
layerId = "051EFAE4-8BBE-4FBB-A016-4335C3E52F59";
paths = (
{
closed = 1;
nodes = (
"292 694 LINE",
"221 694 LINE",
"199 514 LINE",
"243 514 LINE"
);
}
);
width = 500;
}
);
unicode = 2032;
},
{
glyphname = bar;
layers = (
{
layerId = "051EFAE4-8BBE-4FBB-A016-4335C3E52F59";
paths = (
{
closed = 1;
nodes = (
"284 -151 LINE",
"284 652 LINE",
"217 652 LINE",
"217 -151 LINE"
);
}
);
width = 500;
}
);
unicode = 007C;
},
{
glyphname = brokenbar;
layers = (
{
layerId = "051EFAE4-8BBE-4FBB-A016-4335C3E52F59";
paths = (
{
closed = 1;
nodes = (
"284 295 LINE",
"284 652 LINE",
"217 652 LINE",
"217 295 LINE"
);
},
{
closed = 1;
nodes = (
"284 -151 LINE",
"284 196 LINE",
"217 196 LINE",
"217 -151 LINE"
);
}
);
width = 500;
}
);
unicode = 00A6;
},
{
glyphname = dagger;
layers = (
{
layerId = "051EFAE4-8BBE-4FBB-A016-4335C3E52F59";
paths = (
{
closed = 1;
nodes = (
"284 -151 LINE",
"284 397 LINE",
"450 397 LINE",
"450 457 LINE",
"284 457 LINE",
"284 652 LINE",
"217 652 LINE",
"217 457 LINE",
"49 457 LINE",
"49 397 LINE",
"217 397 LINE",
"217 -151 LINE"
);
}
);
width = 500;
}
);
unicode = 2020;
},
{
glyphname = literSign;
layers = (
{
layerId = "051EFAE4-8BBE-4FBB-A016-4335C3E52F59";
paths = (
{
closed = 1;
nodes = (
"227 52 OFFCURVE",
"199 86 OFFCURVE",
"199 170 CURVE SMOOTH",
"199 259 LINE",
"345 317 OFFCURVE",
"406 410 OFFCURVE",
"406 524 CURVE SMOOTH",
"406 626 OFFCURVE",
"357 681 OFFCURVE",
"264 681 CURVE SMOOTH",
"169 681 OFFCURVE",
"117 625 OFFCURVE",
"117 518 CURVE SMOOTH",
"117 295 LINE",
"87 283 OFFCURVE",
"57 274 OFFCURVE",
"23 265 CURVE",
"23 205 LINE",
"53 212 OFFCURVE",
"83 222 OFFCURVE",
"117 234 CURVE",
"117 167 LINE SMOOTH",
"117 61 OFFCURVE",
"165 -8 OFFCURVE",
"267 -8 CURVE SMOOTH",
"386 -8 OFFCURVE",
"424 60 OFFCURVE",
"429 165 CURVE",
"361 165 LINE",
"357 96 OFFCURVE",
"337 52 OFFCURVE",
"280 52 CURVE SMOOTH"
);
},
{
closed = 1;
nodes = (
"329 432 OFFCURVE",
"286 365 OFFCURVE",
"199 322 CURVE",
"199 530 LINE SMOOTH",
"199 600 OFFCURVE",
"227 624 OFFCURVE",
"264 624 CURVE SMOOTH",
"308 624 OFFCURVE",
"329 591 OFFCURVE",
"329 526 CURVE SMOOTH"
);
}
);
width = 500;
}
);
unicode = 2113;
},
{
glyphname = daggerdbl;
layers = (
{
layerId = "051EFAE4-8BBE-4FBB-A016-4335C3E52F59";
paths = (
{
closed = 1;
nodes = (
"284 -151 LINE",
"284 61 LINE",
"450 61 LINE",
"450 121 LINE",
"284 121 LINE",
"284 397 LINE",
"450 397 LINE",
"450 457 LINE",
"284 457 LINE",
"284 652 LINE",
"217 652 LINE",
"217 457 LINE",
"49 457 LINE",
"49 397 LINE",
"217 397 LINE",
"217 121 LINE",
"49 121 LINE",
"49 61 LINE",
"217 61 LINE",
"217 -151 LINE"
);
}
);
width = 500;
}
);
unicode = 2021;
},
{
glyphname = estimated;
layers = (
{
layerId = "051EFAE4-8BBE-4FBB-A016-4335C3E52F59";
paths = (
{
closed = 1;
nodes = (
"361 -7 OFFCURVE",
"411 47 OFFCURVE",
"452 112 CURVE",
"422 129 LINE",
"382 66 OFFCURVE",
"337 29 OFFCURVE",
"252 29 CURVE SMOOTH",
"200 29 OFFCURVE",
"151 55 OFFCURVE",
"125 82 CURVE",
"125 235 LINE",
"479 235 LINE",
"479 384 OFFCURVE",
"381 477 OFFCURVE",
"252 477 CURVE SMOOTH",
"144 477 OFFCURVE",
"25 403 OFFCURVE",
"25 235 CURVE SMOOTH",
"25 108 OFFCURVE",
"104 -7 OFFCURVE",
"252 -7 CURVE SMOOTH"
);
},
{
closed = 1;
nodes = (
"125 271 LINE",
"125 391 LINE",
"152 417 OFFCURVE",
"194 441 OFFCURVE",
"251 441 CURVE SMOOTH",
"312 441 OFFCURVE",
"358 413 OFFCURVE",
"380 390 CURVE",
"380 271 LINE"
);
}
);
width = 500;
}
);
unicode = 212E;
},
{
glyphname = numero;
layers = (
{
background = {
components = (
{
name = Nj;
}
);
};
layerId = "051EFAE4-8BBE-4FBB-A016-4335C3E52F59";
paths = (
{
closed = 1;
nodes = (
"110 0 LINE",
"110 535 LINE",
"88 529 LINE",
"211 0 LINE",
"259 0 LINE",
"259 596 LINE SMOOTH",
"259 610 OFFCURVE",
"266 615 OFFCURVE",
"266 623 CURVE",
"199 623 LINE",
"199 116 LINE",
"221 122 LINE",
"111 623 LINE",
"48 623 LINE",
"48 0 LINE"
);
},
{
closed = 1;
nodes = (
"466 355 LINE",
"466 397 LINE",
"297 397 LINE",
"297 355 LINE"
);
},
{
closed = 1;
nodes = (
"425 429 OFFCURVE",
"466 467 OFFCURVE",
"466 533 CURVE SMOOTH",
"466 598 OFFCURVE",
"429 634 OFFCURVE",
"383 634 CURVE SMOOTH",
"337 634 OFFCURVE",
"297 591 OFFCURVE",
"297 529 CURVE SMOOTH",
"297 469 OFFCURVE",
"334 429 OFFCURVE",
"380 429 CURVE SMOOTH"
);
},
{
closed = 1;
nodes = (
"358 471 OFFCURVE",
"337 492 OFFCURVE",
"337 531 CURVE SMOOTH",
"337 570 OFFCURVE",
"358 593 OFFCURVE",
"382 593 CURVE SMOOTH",
"405 593 OFFCURVE",
"425 570 OFFCURVE",
"425 531 CURVE SMOOTH",
"425 492 OFFCURVE",
"405 471 OFFCURVE",
"381 471 CURVE SMOOTH"
);
}
);
width = 500;
}
);
unicode = 2116;
},
{
glyphname = blank;
layers = (
{
layerId = "051EFAE4-8BBE-4FBB-A016-4335C3E52F59";
paths = (
{
closed = 1;
nodes = (
"452 -66 LINE",
"452 70 LINE",
"404 70 LINE",
"404 -21 LINE",
"95 -21 LINE",
"95 70 LINE",
"48 70 LINE",
"48 -66 LINE"
);
}
);
width = 500;
}
);
unicode = 2423;
},
{
glyphname = brokenCircleNorthWestArrow;
layers = (
{
background = {
components = (
{
name = upArrow;
transform = "{0.44351, 0.40411, -0.40411, 0.44351, 134, 211}";
}
);
};
guideLines = (
{
angle = 90;
position = "{249, 308}";
},
{
position = "{250, 308}";
},
{
angle = 90;
position = "{41, 386}";
},
{
position = "{132, 517}";
},
{
angle = 135.1186;
position = "{148, 410}";
},
{
position = "{132, 476}";
},
{
angle = 90;
position = "{81, 476}";
}
);
layerId = "051EFAE4-8BBE-4FBB-A016-4335C3E52F59";
paths = (
{
closed = 1;
nodes = (
"249 476 LINE",
"342 476 OFFCURVE",
"418 400 OFFCURVE",
"418 308 CURVE SMOOTH",
"418 216 OFFCURVE",
"342 139 OFFCURVE",
"249 139 CURVE SMOOTH",
"157 139 OFFCURVE",
"81 216 OFFCURVE",
"81 308 CURVE",
"41 308 LINE",
"41 193 OFFCURVE",
"134 99 OFFCURVE",
"249 99 CURVE SMOOTH",
"364 99 OFFCURVE",
"458 193 OFFCURVE",
"458 308 CURVE SMOOTH",
"458 423 OFFCURVE",
"364 517 OFFCURVE",
"249 517 CURVE"
);
},
{
closed = 1;
nodes = (
"77 481 LINE",
"148 481 LINE",
"148 517 LINE",
"51 517 LINE",
"41 508 LINE",
"41 412 LINE",
"77 412 LINE"
);
},
{
closed = 1;
nodes = (
"54 483 LINE",
"239 294 LINE",
"264 318 LINE",
"78 506 LINE"
);
}
);
width = 500;
}
);
unicode = 238B;
},
{
color = 4;
glyphname = house;
layers = (
{
layerId = "051EFAE4-8BBE-4FBB-A016-4335C3E52F59";
paths = (
{
closed = 1;
nodes = (
"250 463 LINE",
"28 328 LINE",
"28 0 LINE",
"472 0 LINE",
"472 328 LINE"
);
},
{
closed = 1;
nodes = (
"250 413 LINE",
"432 304 LINE",
"432 40 LINE",
"68 40 LINE",
"68 304 LINE"
);
}
);
width = 500;
}
);
unicode = 2302;
},
{
glyphname = capslock;
layers = (
{
background = {
paths = (
{
closed = 1;
nodes = (
"363 -40 LINE",
"363 242 LINE",
"468 242 LINE",
"468 286 LINE",
"265 513 LINE",
"238 513 LINE",
"34 286 LINE",
"34 242 LINE",
"140 242 LINE",
"140 -40 LINE"
);
},
{
closed = 1;
nodes = (
"180 283 LINE",
"47 283 LINE",
"56 248 LINE",
"251 468 LINE",
"454 239 LINE",
"439 283 LINE",
"323 283 LINE",
"323 0 LINE",
"180 0 LINE"
);
}
);
};
layerId = "051EFAE4-8BBE-4FBB-A016-4335C3E52F59";
paths = (
{
closed = 1;
nodes = (
"363 -40 LINE",
"363 115 LINE",
"140 115 LINE",
"140 -40 LINE"
);
},
{
closed = 1;
nodes = (
"180 75 LINE",
"323 75 LINE",
"323 0 LINE",
"180 0 LINE"
);
},
{
closed = 1;
nodes = (
"363 208 LINE",
"363 365 LINE",
"468 365 LINE",
"468 409 LINE",
"265 636 LINE",
"238 636 LINE",
"34 409 LINE",
"34 365 LINE",
"140 365 LINE",
"140 208 LINE"
);
},
{
closed = 1;
nodes = (
"180 406 LINE",
"47 406 LINE",
"56 373 LINE",
"251 591 LINE",
"443 376 LINE",
"439 406 LINE",
"323 406 LINE",
"323 248 LINE",
"180 248 LINE"
);
}
);
width = 500;
}
);
unicode = 21EA;
},
{
color = 4;
glyphname = clear;
layers = (
{
layerId = "051EFAE4-8BBE-4FBB-A016-4335C3E52F59";
paths = (
{
closed = 1;
nodes = (
"61 78 LINE",
"439 78 LINE",
"439 522 LINE",
"61 522 LINE"
);
},
{
closed = 1;
nodes = (
"101 482 LINE",
"399 482 LINE",
"399 118 LINE",
"101 118 LINE"
);
},
{
closed = 1;
nodes = (
"143 218 LINE",
"168 193 LINE",
"250 275 LINE",
"332 193 LINE",
"357 218 LINE",
"275 300 LINE",
"357 382 LINE",
"332 407 LINE",
"250 325 LINE",
"168 407 LINE",
"143 382 LINE",
"225 300 LINE"
);
}
);
width = 500;
}
);
unicode = 2327;
},
{
color = 4;
glyphname = deleteLeftKey;
layers = (
{
layerId = "051EFAE4-8BBE-4FBB-A016-4335C3E52F59";
paths = (
{
closed = 1;
nodes = (
"2 300 LINE",
"134 78 LINE",
"462 78 LINE",
"462 522 LINE",
"134 522 LINE"
);
},
{
closed = 1;
nodes = (
"49 300 LINE",
"158 482 LINE",
"422 482 LINE",
"422 118 LINE",
"158 118 LINE"
);
},
{
closed = 1;
nodes = (
"166 218 LINE",
"191 193 LINE",
"273 275 LINE",
"355 193 LINE",
"380 218 LINE",
"298 300 LINE",
"380 382 LINE",
"355 407 LINE",
"273 325 LINE",
"191 407 LINE",
"166 382 LINE",
"248 300 LINE"
);
}
);
width = 500;
}
);
unicode = 232B;
},
{
color = 4;
glyphname = optionKey;
layers = (
{
background = {
paths = (
{
closed = 1;
nodes = (
"676.76 512.21 LINE",
"676.76 463.87 LINE",
"981.93 463.87 LINE",
"981.93 512.21 LINE"
);
},
{
closed = 1;
nodes = (
"705.08 47.85 LINE",
"323.24 512.21 LINE",
"18.07 512.21 LINE",
"18.07 463.87 LINE",
"294.92 463.87 LINE",
"676.76 0 LINE",
"981.93 0 LINE",
"981.93 47.85 LINE"
);
}
);
};
guideLines = (
{
angle = 180;
position = "{92, 553}";
},
{
position = "{80, 510}";
}
);
layerId = "051EFAE4-8BBE-4FBB-A016-4335C3E52F59";
paths = (
{
closed = 1;
nodes = (
"500 0 LINE",
"500 43 LINE",
"370 43 LINE",
"156 457 LINE",
"0 457 LINE",
"0 414 LINE",
"129 414 LINE",
"343 0 LINE"
);
},
{
closed = 1;
nodes = (
"500 414 LINE",
"500 457 LINE",
"323 457 LINE",
"323 414 LINE"
);
}
);
width = 500;
}
);
unicode = 2325;
},
{
color = 4;
glyphname = propellor;
layers = (
{
layerId = "051EFAE4-8BBE-4FBB-A016-4335C3E52F59";
paths = (
{
closed = 1;
nodes = (
"168 8 OFFCURVE",
"209 50 OFFCURVE",
"209 101 CURVE SMOOTH",
"209 153 LINE",
"291 153 LINE",
"291 101 LINE SMOOTH",
"291 50 OFFCURVE",
"332 8 OFFCURVE",
"383 8 CURVE SMOOTH",
"434 8 OFFCURVE",
"476 50 OFFCURVE",
"476 101 CURVE SMOOTH",
"476 152 OFFCURVE",
"434 193 OFFCURVE",
"383 193 CURVE SMOOTH",
"331 193 LINE",
"331 274 LINE",
"383 274 LINE SMOOTH",
"434 274 OFFCURVE",
"476 315 OFFCURVE",
"476 366 CURVE SMOOTH",
"476 417 OFFCURVE",
"434 459 OFFCURVE",
"383 459 CURVE SMOOTH",
"332 459 OFFCURVE",
"291 417 OFFCURVE",
"291 366 CURVE SMOOTH",
"291 314 LINE",
"209 314 LINE",
"209 366 LINE SMOOTH",
"209 417 OFFCURVE",
"168 459 OFFCURVE",
"117 459 CURVE SMOOTH",
"66 459 OFFCURVE",
"24 417 OFFCURVE",
"24 366 CURVE SMOOTH",
"24 315 OFFCURVE",
"66 274 OFFCURVE",
"117 274 CURVE SMOOTH",
"169 274 LINE",
"169 193 LINE",
"117 193 LINE SMOOTH",
"66 193 OFFCURVE",
"24 152 OFFCURVE",
"24 101 CURVE SMOOTH",
"24 50 OFFCURVE",
"66 8 OFFCURVE",
"117 8 CURVE SMOOTH"
);
},
{
closed = 1;
nodes = (
"88 48 OFFCURVE",
"64 72 OFFCURVE",
"64 101 CURVE SMOOTH",
"64 130 OFFCURVE",
"88 153 OFFCURVE",
"117 153 CURVE SMOOTH",
"169 153 LINE",
"169 101 LINE SMOOTH",
"169 72 OFFCURVE",
"146 48 OFFCURVE",
"117 48 CURVE SMOOTH"
);
},
{
closed = 1;
nodes = (
"88 314 OFFCURVE",
"64 337 OFFCURVE",
"64 366 CURVE SMOOTH",
"64 395 OFFCURVE",
"88 419 OFFCURVE",
"117 419 CURVE SMOOTH",
"146 419 OFFCURVE",
"169 395 OFFCURVE",
"169 366 CURVE SMOOTH",
"169 314 LINE",
"117 314 LINE SMOOTH"
);
},
{
closed = 1;
nodes = (
"209 274 LINE",
"291 274 LINE",
"291 193 LINE",
"209 193 LINE"
);
},
{
closed = 1;
nodes = (
"354 48 OFFCURVE",
"331 72 OFFCURVE",
"331 101 CURVE SMOOTH",
"331 153 LINE",
"383 153 LINE SMOOTH",
"412 153 OFFCURVE",
"436 130 OFFCURVE",
"436 101 CURVE SMOOTH",
"436 72 OFFCURVE",
"412 48 OFFCURVE",
"383 48 CURVE SMOOTH"
);
},
{
closed = 1;
nodes = (
"331 366 LINE SMOOTH",
"331 395 OFFCURVE",
"354 419 OFFCURVE",
"383 419 CURVE SMOOTH",
"412 419 OFFCURVE",
"436 395 OFFCURVE",
"436 366 CURVE SMOOTH",
"436 337 OFFCURVE",
"412 314 OFFCURVE",
"383 314 CURVE SMOOTH",
"331 314 LINE"
);
}
);
width = 500;
}
);
unicode = 2318;
},
{
color = 4;
glyphname = returnsymbol;
layers = (
{
background = {
paths = (
{
closed = 1;
nodes = (
"15 208 LINE",
"179 371 LINE",
"179 293 LINE",
"288 293 LINE",
"315 321 LINE",
"315 564 LINE",
"462 564 LINE",
"462 173 LINE",
"423 122 LINE",
"179 122 LINE",
"179 44 LINE"
);
},
{
closed = 1;
nodes = (
"154 159 LINE",
"409 159 LINE",
"436 186 LINE",
"436 525 LINE",
"341 525 LINE",
"341 309 LINE",
"300 256 LINE",
"154 256 LINE",
"154 307 LINE",
"54 208 LINE",
"154 108 LINE"
);
}
);
};
guideLines = (
{
position = "{507, 395}";
},
{
position = "{507, 143}";
},
{
angle = 90;
position = "{482, 243}";
},
{
angle = 90;
position = "{381, 243}";
},
{
position = "{507, 248}";
},
{
angle = 90;
position = "{95, 243}";
},
{
angle = 90;
position = "{214, 243}";
}
);
layerId = "051EFAE4-8BBE-4FBB-A016-4335C3E52F59";
paths = (
{
closed = 1;
nodes = (
"320 267 LINE",
"192 267 LINE",
"192 355 LINE",
"172 355 LINE",
"33 214 LINE",
"33 188 LINE",
"172 33 LINE",
"190 33 LINE",
"190 123 LINE",
"460 123 LINE",
"460 457 LINE",
"320 457 LINE"
);
},
{
closed = 1;
nodes = (
"420 417 LINE",
"420 163 LINE",
"155 163 LINE",
"155 74 LINE",
"180 85 LINE",
"79 199 LINE",
"183 307 LINE",
"157 320 LINE",
"157 227 LINE",
"360 227 LINE",
"360 417 LINE"
);
}
);
width = 500;
}
);
unicode = 23CE;
},
{
color = 10;
export = 0;
glyphname = skullAndCrossbones;
layers = (
{
layerId = "051EFAE4-8BBE-4FBB-A016-4335C3E52F59";
paths = (
{
closed = 1;
nodes = (
"147 113 OFFCURVE",
"154 119 OFFCURVE",
"159 130 CURVE",
"164 142 OFFCURVE",
"167 157 OFFCURVE",
"167 175 CURVE",
"179 196 LINE",
"182 170 OFFCURVE",
"190 150 OFFCURVE",
"204 136 CURVE",
"218 123 OFFCURVE",
"238 115 OFFCURVE",
"262 115 CURVE",
"287 115 OFFCURVE",
"305 122 OFFCURVE",
"317 134 CURVE",
"328 147 OFFCURVE",
"335 166 OFFCURVE",
"338 193 CURVE",
"345 183 OFFCURVE",
"349 173 OFFCURVE",
"349 159 CURVE",
"349 145 OFFCURVE",
"353 134 OFFCURVE",
"358 126 CURVE",
"365 118 OFFCURVE",
"373 114 OFFCURVE",
"382 114 CURVE",
"387 114 OFFCURVE",
"391 115 OFFCURVE",
"395 118 CURVE",
"399 120 OFFCURVE",
"405 126 OFFCURVE",
"411 134 CURVE",
"417 143 OFFCURVE",
"426 152 OFFCURVE",
"437 158 CURVE",
"448 166 OFFCURVE",
"453 173 OFFCURVE",
"453 179 CURVE",
"453 190 OFFCURVE",
"450 198 OFFCURVE",
"444 205 CURVE",
"438 212 OFFCURVE",
"430 215 OFFCURVE",
"420 215 CURVE",
"413 215 OFFCURVE",
"405 216 OFFCURVE",
"399 217 CURVE",
"393 218 OFFCURVE",
"387 222 OFFCURVE",
"381 228 CURVE",
"361 250 LINE",
"380 278 OFFCURVE",
"389 323 OFFCURVE",
"389 387 CURVE",
"389 393 OFFCURVE",
"388 402 OFFCURVE",
"387 412 CURVE",
"409 412 OFFCURVE",
"427 415 OFFCURVE",
"439 422 CURVE",
"453 428 OFFCURVE",
"458 438 OFFCURVE",
"458 450 CURVE",
"458 465 OFFCURVE",
"446 478 OFFCURVE",
"419 487 CURVE",
"413 517 OFFCURVE",
"403 532 OFFCURVE",
"388 532 CURVE",
"374 532 OFFCURVE",
"364 527 OFFCURVE",
"358 518 CURVE",
"353 508 OFFCURVE",
"348 492 OFFCURVE",
"348 468 CURVE",
"320 485 OFFCURVE",
"288 493 OFFCURVE",
"251 493 CURVE",
"212 493 OFFCURVE",
"181 485 OFFCURVE",
"158 469 CURVE",
"138 489 LINE",
"133 513 OFFCURVE",
"128 526 OFFCURVE",
"122 531 CURVE",
"117 535 OFFCURVE",
"111 538 OFFCURVE",
"105 538 CURVE",
"87 538 OFFCURVE",
"77 525 OFFCURVE",
"76 499 CURVE",
"53 493 OFFCURVE",
"43 483 OFFCURVE",
"43 467 CURVE",
"43 461 OFFCURVE",
"45 456 OFFCURVE",
"49 453 CURVE",
"53 448 OFFCURVE",
"67 445 OFFCURVE",
"89 442 CURVE",
"123 412 LINE",
"119 393 OFFCURVE",
"118 361 OFFCURVE",
"118 318 CURVE",
"118 298 OFFCURVE",
"127 277 OFFCURVE",
"145 253 CURVE",
"114 214 LINE",
"105 217 OFFCURVE",
"98 218 OFFCURVE",
"91 218 CURVE",
"82 218 OFFCURVE",
"74 215 OFFCURVE",
"68 209 CURVE",
"61 203 OFFCURVE",
"58 197 OFFCURVE",
"58 188 CURVE",
"58 179 OFFCURVE",
"61 173 OFFCURVE",
"67 168 CURVE",
"73 163 OFFCURVE",
"84 158 OFFCURVE",
"101 154 CURVE",
"105 140 OFFCURVE",
"109 130 OFFCURVE",
"115 123 CURVE",
"120 117 OFFCURVE",
"128 113 OFFCURVE",
"138 113 CURVE"
);
},
{
closed = 1;
nodes = (
"130 123 OFFCURVE",
"124 125 OFFCURVE",
"120 132 CURVE",
"116 138 OFFCURVE",
"112 148 OFFCURVE",
"108 162 CURVE",
"88 167 OFFCURVE",
"76 171 OFFCURVE",
"73 174 CURVE",
"68 178 OFFCURVE",
"67 183 OFFCURVE",
"67 188 CURVE",
"67 194 OFFCURVE",
"69 199 OFFCURVE",
"73 203 CURVE",
"78 207 OFFCURVE",
"84 208 OFFCURVE",
"91 208 CURVE",
"100 208 OFFCURVE",
"108 207 OFFCURVE",
"116 204 CURVE",
"152 245 LINE",
"167 228 OFFCURVE",
"176 216 OFFCURVE",
"178 210 CURVE",
"158 178 LINE",
"158 141 OFFCURVE",
"152 123 OFFCURVE",
"138 123 CURVE"
);
},
{
closed = 1;
nodes = (
"266 174 LINE",
"280 175 LINE",
"278 158 LINE",
"289 164 LINE",
"289 176 LINE",
"300 178 LINE",
"302 168 LINE",
"308 177 LINE",
"317 179 LINE",
"317 186 LINE",
"308 189 LINE",
"298 204 LINE",
"298 191 LINE",
"288 190 LINE",
"288 206 LINE",
"278 209 LINE",
"281 189 LINE",
"265 190 LINE",
"266 208 LINE",
"254 210 LINE",
"255 191 LINE",
"242 188 LINE",
"242 207 LINE",
"233 207 LINE",
"235 190 LINE",
"220 191 LINE",
"218 202 LINE",
"212 198 LINE",
"213 191 LINE",
"203 190 LINE",
"203 181 LINE",
"213 181 LINE",
"215 170 LINE",
"222 168 LINE",
"220 178 LINE",
"232 177 LINE",
"232 160 LINE",
"242 158 LINE",
"243 174 LINE",
"256 177 LINE",
"254 158 LINE",
"270 157 LINE"
);
},
{
closed = 1;
nodes = (
"203 275 OFFCURVE",
"209 279 OFFCURVE",
"215 288 CURVE",
"220 298 OFFCURVE",
"223 308 OFFCURVE",
"223 318 CURVE",
"223 338 OFFCURVE",
"212 348 OFFCURVE",
"190 348 CURVE",
"165 348 OFFCURVE",
"153 338 OFFCURVE",
"153 319 CURVE",
"153 311 OFFCURVE",
"158 302 OFFCURVE",
"167 291 CURVE",
"176 280 OFFCURVE",
"185 275 OFFCURVE",
"194 275 CURVE"
);
},
{
closed = 1;
nodes = (
"273 243 OFFCURVE",
"277 246 OFFCURVE",
"277 253 CURVE",
"277 258 OFFCURVE",
"273 268 OFFCURVE",
"268 278 CURVE",
"262 288 OFFCURVE",
"259 294 OFFCURVE",
"259 299 CURVE",
"258 306 OFFCURVE",
"256 308 OFFCURVE",
"250 308 CURVE",
"245 308 OFFCURVE",
"243 303 OFFCURVE",
"242 293 CURVE",
"241 287 OFFCURVE",
"239 280 OFFCURVE",
"235 273 CURVE",
"230 266 OFFCURVE",
"228 259 OFFCURVE",
"228 253 CURVE",
"228 248 OFFCURVE",
"231 244 OFFCURVE",
"237 244 CURVE",
"239 244 OFFCURVE",
"242 245 OFFCURVE",
"244 246 CURVE",
"248 246 OFFCURVE",
"251 247 OFFCURVE",
"253 247 CURVE",
"254 247 OFFCURVE",
"257 246 OFFCURVE",
"259 245 CURVE",
"263 243 OFFCURVE",
"265 243 OFFCURVE",
"268 243 CURVE"
);
},
{
closed = 1;
nodes = (
"238 124 OFFCURVE",
"219 133 OFFCURVE",
"207 148 CURVE",
"194 163 OFFCURVE",
"188 184 OFFCURVE",
"188 211 CURVE",
"185 218 OFFCURVE",
"178 228 OFFCURVE",
"165 242 CURVE",
"148 261 OFFCURVE",
"138 276 OFFCURVE",
"133 287 CURVE",
"129 298 OFFCURVE",
"127 308 OFFCURVE",
"127 318 CURVE",
"127 352 LINE",
"138 353 OFFCURVE",
"145 355 OFFCURVE",
"149 358 CURVE",
"153 363 OFFCURVE",
"157 369 OFFCURVE",
"160 380 CURVE",
"163 390 OFFCURVE",
"165 399 OFFCURVE",
"165 408 CURVE",
"165 411 OFFCURVE",
"163 413 OFFCURVE",
"160 413 CURVE",
"157 413 OFFCURVE",
"156 411 OFFCURVE",
"156 408 CURVE",
"156 400 OFFCURVE",
"154 392 OFFCURVE",
"152 383 CURVE",
"149 373 OFFCURVE",
"147 368 OFFCURVE",
"143 365 CURVE",
"140 363 OFFCURVE",
"134 361 OFFCURVE",
"127 361 CURVE",
"127 375 OFFCURVE",
"128 391 OFFCURVE",
"130 407 CURVE",
"133 423 OFFCURVE",
"137 434 OFFCURVE",
"140 440 CURVE",
"144 447 OFFCURVE",
"152 453 OFFCURVE",
"163 462 CURVE",
"175 470 OFFCURVE",
"188 476 OFFCURVE",
"201 479 CURVE",
"214 483 OFFCURVE",
"231 484 OFFCURVE",
"251 484 CURVE",
"278 484 OFFCURVE",
"303 480 OFFCURVE",
"325 470 CURVE",
"347 461 OFFCURVE",
"362 449 OFFCURVE",
"369 437 CURVE",
"377 423 OFFCURVE",
"380 407 OFFCURVE",
"380 387 CURVE",
"380 377 OFFCURVE",
"380 363 OFFCURVE",
"379 348 CURVE",
"373 348 OFFCURVE",
"367 352 OFFCURVE",
"362 358 CURVE",
"357 364 OFFCURVE",
"350 379 OFFCURVE",
"341 402 CURVE",
"336 414 OFFCURVE",
"333 420 OFFCURVE",
"333 420 CURVE",
"329 420 OFFCURVE",
"327 419 OFFCURVE",
"327 416 CURVE",
"327 414 OFFCURVE",
"332 402 OFFCURVE",
"342 377 CURVE",
"352 353 OFFCURVE",
"363 339 OFFCURVE",
"378 338 CURVE",
"375 290 OFFCURVE",
"359 253 OFFCURVE",
"330 227 CURVE",
"330 189 OFFCURVE",
"325 163 OFFCURVE",
"315 148 CURVE",
"305 133 OFFCURVE",
"288 124 OFFCURVE",
"262 124 CURVE"
);
},
{
closed = 1;
nodes = (
"375 123 OFFCURVE",
"370 126 OFFCURVE",
"365 133 CURVE",
"360 139 OFFCURVE",
"358 148 OFFCURVE",
"358 159 CURVE",
"358 175 OFFCURVE",
"352 191 OFFCURVE",
"338 206 CURVE",
"338 213 OFFCURVE",
"339 219 OFFCURVE",
"339 223 CURVE",
"346 230 OFFCURVE",
"351 237 OFFCURVE",
"355 243 CURVE",
"371 226 LINE",
"378 218 OFFCURVE",
"385 212 OFFCURVE",
"391 210 CURVE",
"397 208 OFFCURVE",
"407 206 OFFCURVE",
"420 206 CURVE",
"428 206 OFFCURVE",
"433 203 OFFCURVE",
"438 199 CURVE",
"442 194 OFFCURVE",
"444 188 OFFCURVE",
"444 179 CURVE",
"444 174 OFFCURVE",
"439 168 OFFCURVE",
"428 163 CURVE",
"422 159 OFFCURVE",
"417 157 OFFCURVE",
"414 154 CURVE",
"412 153 OFFCURVE",
"409 148 OFFCURVE",
"406 143 CURVE",
"398 129 OFFCURVE",
"391 123 OFFCURVE",
"382 123 CURVE"
);
},
{
closed = 1;
nodes = (
"93 451 LINE",
"66 453 LINE",
"57 455 OFFCURVE",
"52 459 OFFCURVE",
"52 467 CURVE",
"52 478 OFFCURVE",
"63 488 OFFCURVE",
"84 493 CURVE",
"84 517 OFFCURVE",
"91 528 OFFCURVE",
"105 528 CURVE",
"109 528 OFFCURVE",
"113 527 OFFCURVE",
"117 523 CURVE",
"121 520 OFFCURVE",
"125 507 OFFCURVE",
"130 483 CURVE",
"141 474 LINE",
"148 468 OFFCURVE",
"152 464 OFFCURVE",
"152 464 CURVE",
"151 463 OFFCURVE",
"148 462 OFFCURVE",
"146 459 CURVE",
"140 455 OFFCURVE",
"136 450 OFFCURVE",
"133 445 CURVE",
"130 439 OFFCURVE",
"128 432 OFFCURVE",
"125 422 CURVE"
);
},
{
closed = 1;
nodes = (
"320 273 OFFCURVE",
"328 278 OFFCURVE",
"333 287 CURVE",
"339 295 OFFCURVE",
"342 304 OFFCURVE",
"342 313 CURVE",
"342 324 OFFCURVE",
"339 333 OFFCURVE",
"333 339 CURVE",
"326 345 OFFCURVE",
"318 348 OFFCURVE",
"308 348 CURVE",
"287 348 OFFCURVE",
"277 338 OFFCURVE",
"277 317 CURVE",
"277 308 OFFCURVE",
"280 299 OFFCURVE",
"288 289 CURVE",
"297 279 OFFCURVE",
"304 273 OFFCURVE",
"313 273 CURVE"
);
},
{
closed = 1;
nodes = (
"381 438 OFFCURVE",
"371 452 OFFCURVE",
"356 463 CURVE",
"357 487 OFFCURVE",
"359 503 OFFCURVE",
"364 511 CURVE",
"369 518 OFFCURVE",
"377 523 OFFCURVE",
"388 523 CURVE",
"393 523 OFFCURVE",
"398 520 OFFCURVE",
"402 515 CURVE",
"405 510 OFFCURVE",
"409 498 OFFCURVE",
"413 480 CURVE",
"438 473 OFFCURVE",
"449 463 OFFCURVE",
"449 450 CURVE",
"449 430 OFFCURVE",
"428 420 OFFCURVE",
"386 420 CURVE"
);
}
);
width = 500;
}
);
unicode = 2620;
},
{
export = 0;
glyphname = bellsymbol;
layers = (
{
layerId = "051EFAE4-8BBE-4FBB-A016-4335C3E52F59";
paths = (
{
closed = 1;
nodes = (
"185 0 LINE",
"185 180 LINE",
"315 180 LINE",
"315 0 LINE",
"468 0 LINE",
"468 40 LINE",
"355 40 LINE",
"355 180 LINE",
"478 180 LINE",
"478 339 OFFCURVE",
"393 450 OFFCURVE",
"250 450 CURVE SMOOTH",
"105 450 OFFCURVE",
"22 336 OFFCURVE",
"22 180 CURVE",
"145 180 LINE",
"145 40 LINE",
"32 40 LINE",
"32 0 LINE"
);
},
{
closed = 1;
nodes = (
"69 329 OFFCURVE",
"152 410 OFFCURVE",
"250 410 CURVE SMOOTH",
"354 410 OFFCURVE",
"430 327 OFFCURVE",
"431 220 CURVE",
"69 220 LINE"
);
}
);
width = 500;
}
);
unicode = 237E;
},
{
glyphname = cedi;
layers = (
{
components = (
{
name = C;
}
);
layerId = "051EFAE4-8BBE-4FBB-A016-4335C3E52F59";
paths = (
{
closed = 1;
nodes = (
"302 -71 LINE",
"302 675 LINE",
"245 675 LINE",
"245 -71 LINE"
);
}
);
width = 500;
}
);
unicode = 20B5;
},
{
glyphname = cent;
layers = (
{
background = {
components = (
{
name = c;
transform = "{1, 0, 0, 1, 0, 43}";
}
);
paths = (
{
closed = 1;
nodes = (
"338 623 LINE",
"289 623 LINE",
"194 -73 LINE",
"246 -73 LINE"
);
}
);
};
components = (
{
name = c;
transform = "{1, 0, 0, 1, 0, 43}";
}
);
layerId = "051EFAE4-8BBE-4FBB-A016-4335C3E52F59";
paths = (
{
closed = 1;
nodes = (
"338 623 LINE",
"289 623 LINE",
"194 -73 LINE",
"246 -73 LINE"
);
}
);
width = 500;
}
);
unicode = 00A2;
},
{
glyphname = colonsign;
layers = (
{
components = (
{
name = C;
}
);
layerId = "051EFAE4-8BBE-4FBB-A016-4335C3E52F59";
paths = (
{
closed = 1;
nodes = (
"209 -71 LINE",
"409 675 LINE",
"372 675 LINE",
"172 -71 LINE"
);
},
{
closed = 1;
nodes = (
"140 -71 LINE",
"340 675 LINE",
"303 675 LINE",
"103 -71 LINE"
);
}
);
width = 500;
}
);
unicode = 20A1;
},
{
glyphname = currency;
layers = (
{
layerId = "051EFAE4-8BBE-4FBB-A016-4335C3E52F59";
paths = (
{
closed = 1;
nodes = (
"159 220 LINE",
"187 200 OFFCURVE",
"218 190 OFFCURVE",
"251 190 CURVE SMOOTH",
"283 190 OFFCURVE",
"314 199 OFFCURVE",
"341 219 CURVE",
"396 164 LINE",
"432 199 LINE",
"377 254 LINE",
"396 281 OFFCURVE",
"406 312 OFFCURVE",
"406 345 CURVE SMOOTH",
"406 378 OFFCURVE",
"396 409 OFFCURVE",
"376 437 CURVE",
"432 492 LINE",
"396 527 LINE",
"340 472 LINE",
"312 491 OFFCURVE",
"282 500 OFFCURVE",
"251 500 CURVE SMOOTH",
"218 500 OFFCURVE",
"187 490 OFFCURVE",
"160 471 CURVE",
"104 527 LINE",
"68 492 LINE",
"125 435 LINE",
"105 408 OFFCURVE",
"96 377 OFFCURVE",
"96 345 CURVE SMOOTH",
"96 314 OFFCURVE",
"105 283 OFFCURVE",
"124 256 CURVE",
"68 199 LINE",
"104 164 LINE"
);
},
{
closed = 1;
nodes = (
"186 245 OFFCURVE",
"150 291 OFFCURVE",
"150 345 CURVE SMOOTH",
"150 400 OFFCURVE",
"187 446 OFFCURVE",
"250 446 CURVE SMOOTH",
"315 446 OFFCURVE",
"351 400 OFFCURVE",
"351 345 CURVE SMOOTH",
"351 292 OFFCURVE",
"315 245 OFFCURVE",
"250 245 CURVE SMOOTH"
);
}
);
width = 500;
}
);
unicode = 00A4;
},
{
glyphname = dollar;
layers = (
{
layerId = "051EFAE4-8BBE-4FBB-A016-4335C3E52F59";
paths = (
{
closed = 1;
nodes = (
"293 -47 LINE",
"293 16 LINE",
"397 29 OFFCURVE",
"460 106 OFFCURVE",
"460 181 CURVE SMOOTH",
"460 264 OFFCURVE",
"408 303 OFFCURVE",
"293 340 CURVE",
"293 533 LINE",
"333 526 OFFCURVE",
"365 509 OFFCURVE",
"388 482 CURVE SMOOTH",
"395 475 OFFCURVE",
"392 464 OFFCURVE",
"399 461 CURVE",
"442 515 LINE",
"405 559 OFFCURVE",
"356 585 OFFCURVE",
"293 592 CURVE",
"293 630 LINE",
"294 639 OFFCURVE",
"300 645 OFFCURVE",
"300 648 CURVE SMOOTH",
"300 649 OFFCURVE",
"300 650 OFFCURVE",
"299 651 CURVE",
"235 651 LINE",
"235 591 LINE",
"143 578 OFFCURVE",
"79 519 OFFCURVE",
"79 446 CURVE SMOOTH",
"79 373 OFFCURVE",
"131 327 OFFCURVE",
"235 292 CURVE",
"235 72 LINE",
"185 77 OFFCURVE",
"143 97 OFFCURVE",
"110 133 CURVE SMOOTH",
"106 138 OFFCURVE",
"108 150 OFFCURVE",
"103 154 CURVE",
"60 94 LINE",
"105 46 OFFCURVE",
"163 19 OFFCURVE",
"235 14 CURVE",
"235 -47 LINE"
);
},
{
closed = 1;
nodes = (
"293 273 LINE",
"365 250 OFFCURVE",
"395 225 OFFCURVE",
"395 177 CURVE SMOOTH",
"395 130 OFFCURVE",
"357 86 OFFCURVE",
"293 74 CURVE"
);
},
{
closed = 1;
nodes = (
"175 385 OFFCURVE",
"145 416 OFFCURVE",
"145 454 CURVE SMOOTH",
"145 493 OFFCURVE",
"175 527 OFFCURVE",
"235 534 CURVE",
"235 361 LINE"
);
}
);
width = 500;
}
);
unicode = 0024;
},
{
glyphname = dong;
layers = (
{
components = (
{
alignment = -1;
name = d;
transform = "{0.8, 0, 0, 0.8, 29, 107}";
},
{
name = strokeshortcomb;
transform = "{1, 0, 0, 0.95, 50, 243}";
}
);
layerId = "051EFAE4-8BBE-4FBB-A016-4335C3E52F59";
paths = (
{
closed = 1;
nodes = (
"413 0 LINE",
"413 54 LINE",
"92 54 LINE",
"92 0 LINE"
);
}
);
width = 500;
}
);
unicode = 20AB;
},
{
glyphname = euro;
layers = (
{
layerId = "051EFAE4-8BBE-4FBB-A016-4335C3E52F59";
paths = (
{
closed = 1;
nodes = (
"377 -11 OFFCURVE",
"424 6 OFFCURVE",
"463 40 CURVE",
"434 90 LINE",
"403 63 OFFCURVE",
"368 49 OFFCURVE",
"327 49 CURVE SMOOTH",
"240 49 OFFCURVE",
"173 107 OFFCURVE",
"154 218 CURVE",
"331 218 LINE",
"354 276 LINE",
"148 276 LINE",
"148 316 OFFCURVE",
"147 334 OFFCURVE",
"150 356 CURVE",
"384 356 LINE",
"406 414 LINE",
"159 414 LINE",
"182 522 OFFCURVE",
"250 571 OFFCURVE",
"325 571 CURVE SMOOTH",
"420 571 OFFCURVE",
"410 524 OFFCURVE",
"439 506 CURVE",
"464 574 LINE",
"429 610 OFFCURVE",
"384 628 OFFCURVE",
"329 628 CURVE SMOOTH",
"233 628 OFFCURVE",
"129 570 OFFCURVE",
"97 414 CURVE",
"46 414 LINE",
"33 356 LINE",
"88 356 LINE",
"86 333 OFFCURVE",
"85 296 OFFCURVE",
"86 276 CURVE",
"46 276 LINE",
"33 218 LINE",
"91 218 LINE",
"110 67 OFFCURVE",
"207 -11 OFFCURVE",
"323 -11 CURVE SMOOTH"
);
}
);
width = 500;
}
);
unicode = 20AC;
},
{
glyphname = guarani;
layers = (
{
layerId = "051EFAE4-8BBE-4FBB-A016-4335C3E52F59";
paths = (
{
closed = 1;
nodes = (
"289 -71 LINE",
"289 675 LINE",
"232 675 LINE",
"232 -71 LINE"
);
},
{
closed = 1;
nodes = (
"340 -10 OFFCURVE",
"401 12 OFFCURVE",
"460 55 CURVE",
"460 299 LINE",
"332 299 LINE",
"332 238 LINE",
"395 238 LINE",
"395 90 LINE",
"360 65 OFFCURVE",
"320 52 OFFCURVE",
"277 52 CURVE SMOOTH",
"178 52 OFFCURVE",
"105 146 OFFCURVE",
"105 319 CURVE SMOOTH",
"105 510 OFFCURVE",
"188 568 OFFCURVE",
"266 568 CURVE SMOOTH",
"395 568 OFFCURVE",
"400 490 OFFCURVE",
"420 480 CURVE",
"458 525 LINE",
"423 588 OFFCURVE",
"382 630 OFFCURVE",
"267 630 CURVE SMOOTH",
"183 630 OFFCURVE",
"33 573 OFFCURVE",
"36 304 CURVE",
"36 115 OFFCURVE",
"128 -10 OFFCURVE",
"277 -10 CURVE SMOOTH"
);
}
);
width = 500;
}
);
unicode = 20B2;
},
{
glyphname = kip;
layers = (
{
background = {
paths = (
{
closed = 1;
nodes = (
"99 327 LINE",
"99 378 LINE",
"14 378 LINE",
"14 327 LINE"
);
},
{
closed = 1;
nodes = (
"99 327 LINE",
"99 378 LINE",
"14 378 LINE",
"14 327 LINE"
);
}
);
};
components = (
{
name = K;
transform = "{1, 0, 0, 1, 20, 0}";
}
);
layerId = "051EFAE4-8BBE-4FBB-A016-4335C3E52F59";
paths = (
{
closed = 1;
nodes = (
"449 327 LINE",
"449 378 LINE",
"194 378 LINE",
"194 327 LINE"
);
},
{
closed = 1;
nodes = (
"99 327 LINE",
"99 378 LINE",
"14 378 LINE",
"14 327 LINE"
);
}
);
width = 500;
}
);
unicode = 20AD;
},
{
glyphname = liraTurkish;
layers = (
{
guideLines = (
{
angle = 90;
position = "{179, 80}";
}
);
layerId = "051EFAE4-8BBE-4FBB-A016-4335C3E52F59";
paths = (
{
closed = 1;
nodes = (
"366 487 LINE",
"366 548 LINE",
"25 428 LINE",
"25 367 LINE"
);
},
{
closed = 1;
nodes = (
"366 370 LINE",
"366 431 LINE",
"25 311 LINE",
"25 250 LINE"
);
},
{
closed = 1;
nodes = (
"179 0 LINE SMOOTH",
"336 0 OFFCURVE",
"443 73 OFFCURVE",
"443 230 CURVE",
"384 230 LINE",
"384 95 OFFCURVE",
"293 61 OFFCURVE",
"179 61 CURVE",
"179 589 LINE SMOOTH",
"179 607 OFFCURVE",
"188 610 OFFCURVE",
"188 623 CURVE",
"106 623 LINE",
"106 0 LINE"
);
}
);
width = 500;
}
);
unicode = 20BA;
},
{
glyphname = manat;
layers = (
{
layerId = "051EFAE4-8BBE-4FBB-A016-4335C3E52F59";
paths = (
{
closed = 1;
nodes = (
"284 99 LINE",
"284 665 LINE",
"217 665 LINE",
"217 99 LINE"
);
},
{
closed = 1;
nodes = (
"118 584 OFFCURVE",
"50 501 OFFCURVE",
"50 358 CURVE SMOOTH",
"50 0 LINE",
"126 0 LINE",
"126 8 OFFCURVE",
"119 14 OFFCURVE",
"119 32 CURVE",
"119 359 LINE SMOOTH",
"119 460 OFFCURVE",
"153 525 OFFCURVE",
"252 525 CURVE SMOOTH",
"352 525 OFFCURVE",
"387 461 OFFCURVE",
"387 356 CURVE SMOOTH",
"387 0 LINE",
"454 0 LINE",
"454 355 LINE SMOOTH",
"454 513 OFFCURVE",
"374 584 OFFCURVE",
"251 584 CURVE SMOOTH"
);
}
);
width = 500;
}
);
unicode = 20BC;
},
{
glyphname = naira;
layers = (
{
components = (
{
alignment = -1;
name = N;
transform = "{0.9, 0, 0, 1, 24, 0}";
}
);
layerId = "051EFAE4-8BBE-4FBB-A016-4335C3E52F59";
paths = (
{
closed = 1;
nodes = (
"489 275 LINE",
"489 326 LINE",
"14 326 LINE",
"14 275 LINE"
);
}
);
width = 500;
}
);
unicode = 20A6;
},
{
glyphname = peseta;
layers = (
{
background = {
hints = (
{
origin = "{2, 14}";
type = Corner;
name = _corner.rightSpur;
},
{
origin = "{2, 33}";
type = Corner;
name = _corner.rightSpur;
}
);
paths = (
{
closed = 1;
nodes = (
"280.985 -11.85 OFFCURVE",
"307.656 -0.991 OFFCURVE",
"332.377 20.538 CURVE",
"315.741 67.951 LINE",
"290.034 45.988 OFFCURVE",
"274.017 37.15 OFFCURVE",
"257 37.15 CURVE SMOOTH",
"229.718 37.15 OFFCURVE",
"222.167 54.95 OFFCURVE",
"227.478 127.012 CURVE SMOOTH",
"236.451 240.568 LINE",
"237 315 LINE",
"184 305 LINE",
"184 240.9 LINE",
"174.52 120.464 LINE SMOOTH",
"168.219 28.466 OFFCURVE",
"190.473 -11.85 OFFCURVE",
"250.5 -11.85 CURVE SMOOTH"
);
},
{
closed = 1;
nodes = (
"288 211 LINE",
"296 259 LINE",
"134 259 LINE",
"127 211 LINE"
);
},
{
closed = 1;
nodes = (
"450.464 -13.5 OFFCURVE",
"491 20.562 OFFCURVE",
"491 73.15 CURVE SMOOTH",
"491 112.302 OFFCURVE",
"467 133 OFFCURVE",
"407.06 155.529 CURVE SMOOTH",
"368 170 OFFCURVE",
"353 179 OFFCURVE",
"353 195 CURVE",
"353 209 OFFCURVE",
"363 219 OFFCURVE",
"391 219 CURVE SMOOTH",
"417 219 OFFCURVE",
"434 211 OFFCURVE",
"458.167 176.624 CURVE",
"489.078 217.913 LINE",
"463.791 251.32 OFFCURVE",
"433 265 OFFCURVE",
"389 265 CURVE SMOOTH",
"338 265 OFFCURVE",
"301 238.92 OFFCURVE",
"301 194.15 CURVE SMOOTH",
"301 152 OFFCURVE",
"331 132 OFFCURVE",
"387 113 CURVE SMOOTH",
"428 99 OFFCURVE",
"440 84 OFFCURVE",
"439 66 CURVE SMOOTH",
"439 48 OFFCURVE",
"421.851 35.5 OFFCURVE",
"389.5 35.5 CURVE SMOOTH",
"345.26 35.5 OFFCURVE",
"332.101 57.972 OFFCURVE",
"311.036 87.098 CURVE",
"281.707 32.804 LINE",
"309.681 2.16 OFFCURVE",
"345.86 -13.5 OFFCURVE",
"388.5 -13.5 CURVE SMOOTH"
);
},
{
closed = 1;
nodes = (
"111 0 LINE",
"111 315 LINE",
"134 315 LINE SMOOTH",
"227 315 OFFCURVE",
"271 384 OFFCURVE",
"271 474 CURVE SMOOTH",
"271 554 OFFCURVE",
"226 623 OFFCURVE",
"129 623 CURVE SMOOTH",
"54 623 LINE",
"54 0 LINE"
);
},
{
closed = 1;
nodes = (
"111 567 LINE",
"127 567 LINE",
"188 567 OFFCURVE",
"214 522 OFFCURVE",
"214 472 CURVE SMOOTH",
"214 407 OFFCURVE",
"189 367 OFFCURVE",
"126 367 CURVE SMOOTH",
"111 367 LINE"
);
},
{
closed = 1;
nodes = (
"111 0 LINE",
"111 315 LINE",
"134 315 LINE SMOOTH",
"227 315 OFFCURVE",
"271 384 OFFCURVE",
"271 474 CURVE SMOOTH",
"271 554 OFFCURVE",
"226 623 OFFCURVE",
"129 623 CURVE SMOOTH",
"54 623 LINE",
"54 0 LINE"
);
},
{
closed = 1;
nodes = (
"111 567 LINE",
"127 567 LINE",
"188 567 OFFCURVE",
"214 522 OFFCURVE",
"214 472 CURVE SMOOTH",
"214 407 OFFCURVE",
"189 367 OFFCURVE",
"126 367 CURVE SMOOTH",
"111 367 LINE"
);
}
);
};
hints = (
{
origin = "{3, 14}";
type = Corner;
name = _corner.rightSpur;
},
{
origin = "{3, 33}";
type = Corner;
name = _corner.rightSpur;
},
{
origin = "{1, 12}";
type = Corner;
name = _corner.rightSpur;
}
);
layerId = "051EFAE4-8BBE-4FBB-A016-4335C3E52F59";
paths = (
{
closed = 1;
nodes = (
"111 0 LINE",
"111 315 LINE",
"134 315 LINE SMOOTH",
"227 315 OFFCURVE",
"271 384 OFFCURVE",
"271 474 CURVE SMOOTH",
"271 554 OFFCURVE",
"226 623 OFFCURVE",
"129 623 CURVE SMOOTH",
"54 623 LINE",
"54 0 LINE"
);
},
{
closed = 1;
nodes = (
"281 -12 OFFCURVE",
"308 -1 OFFCURVE",
"332 21 CURVE",
"316 68 LINE",
"290 46 OFFCURVE",
"274 37 OFFCURVE",
"257 37 CURVE SMOOTH",
"230 37 OFFCURVE",
"224 55 OFFCURVE",
"227 127 CURVE SMOOTH",
"232 242 LINE",
"232 248 LINE",
"233 315 LINE",
"180 305 LINE",
"180 247 LINE",
"180 241 LINE",
"175 120 LINE SMOOTH",
"171 28 OFFCURVE",
"190 -12 OFFCURVE",
"251 -12 CURVE SMOOTH"
);
},
{
closed = 1;
nodes = (
"288 211 LINE",
"296 259 LINE",
"134 259 LINE",
"127 211 LINE"
);
},
{
closed = 1;
nodes = (
"450 -14 OFFCURVE",
"491 21 OFFCURVE",
"491 73 CURVE SMOOTH",
"491 112 OFFCURVE",
"467 133 OFFCURVE",
"407 156 CURVE SMOOTH",
"368 170 OFFCURVE",
"353 179 OFFCURVE",
"353 195 CURVE",
"353 209 OFFCURVE",
"363 219 OFFCURVE",
"391 219 CURVE SMOOTH",
"417 219 OFFCURVE",
"434 211 OFFCURVE",
"458 177 CURVE",
"489 218 LINE",
"464 251 OFFCURVE",
"433 265 OFFCURVE",
"389 265 CURVE SMOOTH",
"338 265 OFFCURVE",
"301 239 OFFCURVE",
"301 194 CURVE SMOOTH",
"301 152 OFFCURVE",
"331 132 OFFCURVE",
"387 113 CURVE SMOOTH",
"428 99 OFFCURVE",
"439 84 OFFCURVE",
"439 66 CURVE SMOOTH",
"439 48 OFFCURVE",
"422 36 OFFCURVE",
"390 36 CURVE SMOOTH",
"345 36 OFFCURVE",
"332 58 OFFCURVE",
"311 87 CURVE",
"282 33 LINE",
"310 2 OFFCURVE",
"346 -14 OFFCURVE",
"389 -14 CURVE SMOOTH"
);
},
{
closed = 1;
nodes = (
"111 567 LINE",
"127 567 LINE",
"188 567 OFFCURVE",
"214 522 OFFCURVE",
"214 472 CURVE SMOOTH",
"214 407 OFFCURVE",
"189 367 OFFCURVE",
"126 367 CURVE SMOOTH",
"111 367 LINE"
);
}
);
width = 500;
}
);
unicode = 20A7;
},
